<svg width="8" height="8" viewBox="0 0 8 8" fill="none" xmlns="http://www.w3.org/2000/svg">
<path d="M2.64623 7.18201C2.5525 7.08824 2.49984 6.96109 2.49984 6.82851C2.49984 6.69592 2.5525 6.56877 2.64623 6.47501L5.12123 4.00001L2.64623 1.52501C2.55515 1.43071 2.50476 1.3044 2.50589 1.17331C2.50703 1.04221 2.55962 0.9168 2.65232 0.824097C2.74503 0.731393 2.87043 0.678809 3.00153 0.67767C3.13263 0.67653 3.25893 0.726927 3.35323 0.818007L6.18173 3.64651C6.27547 3.74027 6.32812 3.86742 6.32812 4.00001C6.32813 4.13259 6.27547 4.25974 6.18173 4.35351L3.35323 7.18201C3.25947 7.27574 3.13231 7.3284 2.99973 7.3284C2.86715 7.3284 2.74 7.27574 2.64623 7.18201Z" fill="white"/>
</svg>
