<svg width="32" height="32" viewBox="0 0 32 32" fill="none" xmlns="http://www.w3.org/2000/svg">
<g clip-path="url(#clip0_2388_1891)">
<path d="M29.3331 6.41955C29.3331 5.16267 29.9704 5.79111 30.5989 5.16267C31.8575 3.90578 32.4904 2.01955 31.2335 0.762665C29.9758 -0.494224 28.0922 0.14311 26.8353 1.4C26.206 2.02844 26.8371 2.66667 25.5802 2.66667H20.5518L21.1802 3.28622C21.1802 3.28622 24.3233 7.68089 24.9518 7.05244C24.3233 7.68178 28.7126 10.8213 28.7126 10.8213L29.3331 11.448V6.41955Z" fill="#FFAC33"/>
<path d="M27.4656 13.3333L23.0665 8.93332L18.6665 4.53421C18.038 5.16265 14.8949 4.53421 13.638 5.7911L13.0096 6.41954L11.1234 8.30577L1.43538 17.9929C0.0469319 19.3813 0.0469319 21.6338 1.43538 23.0213L8.9776 30.5635C10.366 31.952 12.6176 31.952 14.006 30.5635L22.806 21.7644L25.5803 18.9902L26.2087 18.3618C27.4656 17.104 26.8372 13.9618 27.4656 13.3333Z" fill="#CCD6DD"/>
<path d="M29.0374 13.0187C28.1689 13.8871 27.3911 14.5155 26.5236 13.6471L18.3529 5.47643C17.4845 4.60799 18.1138 3.83021 18.9814 2.96176C19.8498 2.09421 21.256 2.09421 22.1236 2.96176L29.0374 9.87554C29.9058 10.744 29.9058 12.1511 29.0374 13.0187Z" fill="#55ACEE"/>
<path d="M11.5554 28.4445C11.3278 28.4445 11.1003 28.3573 10.927 28.184C10.5794 27.8365 10.5794 27.2747 10.927 26.9271L21.5936 16.2605C21.9412 15.9129 22.503 15.9129 22.8505 16.2605C23.1981 16.608 23.1981 17.1707 22.8505 17.5182L12.1838 28.1849C12.0105 28.3573 11.783 28.4445 11.5554 28.4445ZM7.99984 24.8889C7.77229 24.8889 7.54473 24.8018 7.3714 24.6285C7.02384 24.2809 7.02384 23.7191 7.3714 23.3716L18.0381 12.7049C18.3856 12.3573 18.9474 12.3573 19.295 12.7049C19.6425 13.0525 19.6425 13.6142 19.295 13.9618L8.62829 24.6293C8.45495 24.8018 8.2274 24.8889 7.99984 24.8889ZM4.44429 21.3333C4.21673 21.3333 3.98918 21.2462 3.81584 21.0729C3.46829 20.7253 3.46829 20.1636 3.81584 19.816L14.4825 9.14934C14.8301 8.80178 15.3918 8.80178 15.7394 9.14934C16.087 9.49689 16.087 10.0587 15.7394 10.4062L5.07273 21.0738C4.8994 21.2462 4.67184 21.3333 4.44429 21.3333Z" fill="#99AAB5"/>
</g>
<defs>
<clipPath id="clip0_2388_1891">
<rect width="32" height="32" fill="white"/>
</clipPath>
</defs>
</svg>
