<svg width="37" height="37" viewBox="0 0 37 37" fill="none" xmlns="http://www.w3.org/2000/svg">
<path d="M1.37695 22.5289H35.6225V27.565H1.37695V22.5289Z" fill="#C1694F"/>
<path d="M36.6296 29.5795C36.6296 30.1365 36.1794 30.5867 35.6224 30.5867C35.0655 30.5867 34.6152 30.1365 34.6152 29.5795V15.4784C34.6152 14.9214 35.0655 14.4712 35.6224 14.4712C36.1794 14.4712 36.6296 14.9214 36.6296 15.4784V29.5795ZM0.369629 29.5795C0.369629 30.1365 0.819898 30.5867 1.37685 30.5867C1.9338 30.5867 2.38407 30.1365 2.38407 29.5795V7.42061C2.38407 6.86459 1.9338 6.41339 1.37685 6.41339C0.819898 6.41339 0.369629 6.86459 0.369629 7.42061V29.5795Z" fill="#C1694F"/>
<path d="M32.6009 17.4928H4.39872C3.28677 17.4928 2.38428 18.3953 2.38428 19.5072V23.5361H34.6154V19.5072C34.6154 18.3953 33.7129 17.4928 32.6009 17.4928Z" fill="#226699"/>
<path d="M32.6009 17.4928H4.39872C3.28677 17.4928 2.38428 18.3953 2.38428 19.5072V23.5361H34.6154V19.5072C34.6154 18.3953 33.7129 17.4928 32.6009 17.4928Z" fill="#55ACEE"/>
<path d="M2.51138 14.4086C2.24847 15.4894 4.0071 16.8451 6.43955 17.4363C8.87199 18.0276 11.0566 17.6297 11.3206 16.5489C11.5834 15.4682 9.82484 14.1125 7.3924 13.5203C4.95996 12.929 2.77428 13.3268 2.51138 14.4086Z" fill="#5C913B"/>
</svg>
