<svg width="32" height="32" viewBox="0 0 32 32" fill="none" xmlns="http://www.w3.org/2000/svg">
<g clip-path="url(#clip0_2388_1847)">
<path d="M10.6665 25.7778C10.6665 27.1923 11.2284 28.5488 12.2286 29.549C13.2288 30.5492 14.5853 31.1111 15.9998 31.1111C17.4143 31.1111 18.7709 30.5492 19.7711 29.549C20.7713 28.5488 21.3332 27.1923 21.3332 25.7778C21.3332 24.3633 20.7713 23.0067 19.7711 22.0066C18.7709 21.0064 17.4143 20.4445 15.9998 20.4445C14.5853 20.4445 13.2288 21.0064 12.2286 22.0066C11.2284 23.0067 10.6665 24.3633 10.6665 25.7778Z" fill="#50A5E6"/>
<path d="M19.5557 16.0001C19.5557 16.8172 19.7166 17.6263 20.0293 18.3812C20.342 19.1361 20.8003 19.822 21.3781 20.3998C21.9559 20.9776 22.6418 21.4359 23.3967 21.7486C24.1517 22.0613 24.9608 22.2223 25.7779 22.2223C26.595 22.2223 27.4041 22.0613 28.159 21.7486C28.9139 21.4359 29.5999 20.9776 30.1777 20.3998C30.7554 19.822 31.2138 19.1361 31.5265 18.3812C31.8392 17.6263 32.0001 16.8172 32.0001 16.0001C32.0001 15.1829 31.8392 14.3738 31.5265 13.6189C31.2138 12.864 30.7554 12.1781 30.1777 11.6003C29.5999 11.0225 28.9139 10.5642 28.159 10.2515C27.4041 9.93877 26.595 9.77783 25.7779 9.77783C24.9608 9.77783 24.1517 9.93877 23.3967 10.2515C22.6418 10.5642 21.9559 11.0225 21.3781 11.6003C20.8003 12.1781 20.342 12.864 20.0293 13.6189C19.7166 14.3738 19.5557 15.1829 19.5557 16.0001Z" fill="#50A5E6"/>
<path d="M0 10.2222C0 12.6976 0.98333 15.0716 2.73367 16.8219C4.48401 18.5723 6.85798 19.5556 9.33333 19.5556C11.8087 19.5556 14.1827 18.5723 15.933 16.8219C17.6833 15.0716 18.6667 12.6976 18.6667 10.2222C18.6667 7.74689 17.6833 5.37293 15.933 3.62259C14.1827 1.87225 11.8087 0.888916 9.33333 0.888916C6.85798 0.888916 4.48401 1.87225 2.73367 3.62259C0.98333 5.37293 0 7.74689 0 10.2222Z" fill="#50A5E6"/>
<path d="M0.888672 10.2222C0.888672 12.4618 1.77835 14.6097 3.36199 16.1933C4.94563 17.777 7.09351 18.6667 9.33312 18.6667C11.5727 18.6667 13.7206 17.777 15.3042 16.1933C16.8879 14.6097 17.7776 12.4618 17.7776 10.2222C17.7776 9.11328 17.5591 8.01519 17.1348 6.99067C16.7104 5.96614 16.0884 5.03523 15.3042 4.25109C14.5201 3.46695 13.5892 2.84494 12.5647 2.42057C11.5401 1.99619 10.4421 1.77777 9.33312 1.77777C8.22418 1.77777 7.12609 1.99619 6.10157 2.42057C5.07704 2.84494 4.14613 3.46695 3.36199 4.25109C2.57785 5.03523 1.95584 5.96614 1.53147 6.99067C1.10709 8.01519 0.888672 9.11328 0.888672 10.2222Z" fill="#A8E0F9" fill-opacity="0.5"/>
<path d="M11.5552 25.7778C11.5552 26.3614 11.6701 26.9393 11.8935 27.4786C12.1168 28.0178 12.4442 28.5077 12.8569 28.9205C13.2696 29.3332 13.7596 29.6605 14.2988 29.8839C14.838 30.1072 15.416 30.2222 15.9996 30.2222C16.5833 30.2222 17.1612 30.1072 17.7004 29.8839C18.2397 29.6605 18.7296 29.3332 19.1423 28.9205C19.555 28.5077 19.8824 28.0178 20.1058 27.4786C20.3291 26.9393 20.4441 26.3614 20.4441 25.7778C20.4441 25.1941 20.3291 24.6162 20.1058 24.0769C19.8824 23.5377 19.555 23.0478 19.1423 22.6351C18.7296 22.2224 18.2397 21.895 17.7004 21.6716C17.1612 21.4483 16.5833 21.3333 15.9996 21.3333C15.416 21.3333 14.838 21.4483 14.2988 21.6716C13.7596 21.895 13.2696 22.2224 12.8569 22.6351C12.4442 23.0478 12.1168 23.5377 11.8935 24.0769C11.6701 24.6162 11.5552 25.1941 11.5552 25.7778Z" fill="#A8E0F9" fill-opacity="0.5"/>
<path d="M20.4443 16C20.4443 16.7004 20.5823 17.3939 20.8503 18.041C21.1183 18.6881 21.5112 19.276 22.0064 19.7713C22.5017 20.2665 23.0896 20.6594 23.7367 20.9274C24.3838 21.1954 25.0773 21.3334 25.7777 21.3334C26.4781 21.3334 27.1716 21.1954 27.8186 20.9274C28.4657 20.6594 29.0537 20.2665 29.5489 19.7713C30.0442 19.276 30.437 18.6881 30.705 18.041C30.9731 17.3939 31.111 16.7004 31.111 16C31.111 15.2996 30.9731 14.6061 30.705 13.959C30.437 13.312 30.0442 12.724 29.5489 12.2288C29.0537 11.7335 28.4657 11.3407 27.8186 11.0727C27.1716 10.8046 26.4781 10.6667 25.7777 10.6667C25.0773 10.6667 24.3838 10.8046 23.7367 11.0727C23.0896 11.3407 22.5017 11.7335 22.0064 12.2288C21.5112 12.724 21.1183 13.312 20.8503 13.959C20.5823 14.6061 20.4443 15.2996 20.4443 16Z" fill="#A8E0F9" fill-opacity="0.5"/>
<path d="M9.33322 17.3333C9.09748 17.3333 8.87138 17.2397 8.70469 17.073C8.53799 16.9063 8.44434 16.6802 8.44434 16.4444C8.44434 16.2087 8.53799 15.9826 8.70469 15.8159C8.87138 15.6492 9.09748 15.5555 9.33322 15.5555C12.2746 15.5555 14.6666 13.1635 14.6666 10.2222C14.6666 9.98645 14.7602 9.76036 14.9269 9.59366C15.0936 9.42696 15.3197 9.33331 15.5554 9.33331C15.7912 9.33331 16.0173 9.42696 16.184 9.59366C16.3507 9.76036 16.4443 9.98645 16.4443 10.2222C16.4443 14.1431 13.2541 17.3333 9.33322 17.3333ZM30.2221 16.4444C30.2221 16.2087 30.1285 15.9826 29.9618 15.8159C29.7951 15.6492 29.569 15.5555 29.3332 15.5555C29.0975 15.5555 28.8714 15.6492 28.7047 15.8159C28.538 15.9826 28.4443 16.2087 28.4443 16.4444C28.4443 17.6693 27.447 18.6666 26.2221 18.6666C25.9864 18.6666 25.7603 18.7603 25.5936 18.927C25.4269 19.0937 25.3332 19.3198 25.3332 19.5555C25.3332 19.7913 25.4269 20.0174 25.5936 20.1841C25.7603 20.3508 25.9864 20.4444 26.2221 20.4444C28.4274 20.4444 30.2221 18.6498 30.2221 16.4444ZM19.5554 26.2222C19.5554 25.9865 19.4618 25.7604 19.2951 25.5937C19.1284 25.427 18.9023 25.3333 18.6666 25.3333C18.4308 25.3333 18.2047 25.427 18.038 25.5937C17.8713 25.7604 17.7777 25.9865 17.7777 26.2222C17.7777 26.9573 17.1794 27.5555 16.4443 27.5555C16.2086 27.5555 15.9825 27.6492 15.8158 27.8159C15.6491 27.9826 15.5554 28.2087 15.5554 28.4444C15.5554 28.6802 15.6491 28.9063 15.8158 29.073C15.9825 29.2397 16.2086 29.3333 16.4443 29.3333C18.1599 29.3333 19.5554 27.9378 19.5554 26.2222Z" fill="#F2F9FF"/>
<path d="M3.11117 11.5556C2.75754 11.5556 2.4184 11.4151 2.16836 11.1651C1.91831 10.915 1.77783 10.5759 1.77783 10.2222C1.77783 6.05602 5.16717 2.66669 9.33339 2.66669C9.68701 2.66669 10.0261 2.80716 10.2762 3.05721C10.5262 3.30726 10.6667 3.6464 10.6667 4.00002C10.6667 4.35364 10.5262 4.69278 10.2762 4.94283C10.0261 5.19288 9.68701 5.33335 9.33339 5.33335C8.03721 5.33477 6.79452 5.8503 5.87798 6.76684C4.96144 7.68337 4.44591 8.92606 4.4445 10.2222C4.4445 10.5759 4.30402 10.915 4.05397 11.1651C3.80393 11.4151 3.46479 11.5556 3.11117 11.5556ZM24.0001 16C24.0001 15.0196 24.7974 14.2222 25.7778 14.2222C26.1315 14.2222 26.4706 14.0818 26.7206 13.8317C26.9707 13.5817 27.1112 13.2425 27.1112 12.8889C27.1112 12.5353 26.9707 12.1961 26.7206 11.9461C26.4706 11.6961 26.1315 11.5556 25.7778 11.5556C23.3272 11.5556 21.3334 13.5494 21.3334 16C21.3334 16.1751 21.3679 16.3485 21.4349 16.5103C21.5019 16.672 21.6001 16.819 21.7239 16.9428C21.8477 17.0666 21.9947 17.1649 22.1565 17.2319C22.3182 17.2989 22.4916 17.3334 22.6667 17.3334C22.8418 17.3334 23.0152 17.2989 23.177 17.2319C23.3387 17.1649 23.4857 17.0666 23.6095 16.9428C23.7333 16.819 23.8316 16.672 23.8986 16.5103C23.9656 16.3485 24.0001 16.1751 24.0001 16ZM15.1112 25.7778C15.1112 25.288 15.5103 24.8889 16.0001 24.8889C16.3537 24.8889 16.6928 24.7484 16.9429 24.4984C17.1929 24.2483 17.3334 23.9092 17.3334 23.5556C17.3334 23.202 17.1929 22.8628 16.9429 22.6128C16.6928 22.3627 16.3537 22.2222 16.0001 22.2222C14.0392 22.2222 12.4445 23.8169 12.4445 25.7778C12.4445 25.9529 12.479 26.1263 12.546 26.288C12.613 26.4498 12.7112 26.5968 12.835 26.7206C12.9588 26.8444 13.1058 26.9426 13.2676 27.0096C13.4294 27.0766 13.6027 27.1111 13.7778 27.1111C13.9529 27.1111 14.1263 27.0766 14.2881 27.0096C14.4498 26.9426 14.5968 26.8444 14.7206 26.7206C14.8445 26.5968 14.9427 26.4498 15.0097 26.288C15.0767 26.1263 15.1112 25.9529 15.1112 25.7778Z" fill="white"/>
<path d="M9.33327 0.888916C9.93771 0.888916 10.5279 0.951138 11.1004 1.06225C11.3994 1.70394 11.5548 2.40319 11.5555 3.11114C11.554 4.28555 11.1299 5.4202 10.3606 6.30757C9.59128 7.19494 8.52826 7.77573 7.36592 7.94372C6.20359 8.11171 5.01962 7.85567 4.03055 7.22244C3.04148 6.5892 2.31341 5.62108 1.97949 4.49514C3.68883 2.30492 6.3466 0.888916 9.33327 0.888916ZM20.5146 12.696C20.6867 13.6816 21.2224 14.5668 22.0157 15.1764C22.8091 15.786 23.8023 16.0757 24.799 15.9882C25.7957 15.9008 26.7232 15.4425 27.3983 14.704C28.0733 13.9655 28.4466 13.0005 28.4444 12C28.4404 11.3704 28.2862 10.7509 27.9946 10.1929C27.2873 9.91988 26.5359 9.77917 25.7777 9.7778C24.7252 9.77898 23.6901 10.0473 22.7696 10.5578C21.8491 11.0682 21.0732 11.8039 20.5146 12.696ZM11.6097 22.7565C11.7354 23.5956 12.1578 24.362 12.8002 24.9163C13.4426 25.4707 14.2625 25.7763 15.111 25.7778C16.054 25.7778 16.9584 25.4032 17.6252 24.7364C18.292 24.0696 18.6666 23.1652 18.6666 22.2222C18.6666 21.808 18.5822 21.416 18.4515 21.0462C17.6948 20.6509 16.8537 20.4444 15.9999 20.4445C15.1355 20.4449 14.2842 20.6557 13.5194 21.0584C12.7545 21.4612 12.0992 22.044 11.6097 22.7565Z" fill="white" fill-opacity="0.5"/>
</g>
<defs>
<clipPath id="clip0_2388_1847">
<rect width="32" height="32" fill="white"/>
</clipPath>
</defs>
</svg>
