<svg width="124" height="46" viewBox="0 0 124 46" fill="none" xmlns="http://www.w3.org/2000/svg">
<path d="M63.9394 18.27C64.0994 18.27 64.2494 18.33 64.3594 18.45C64.3794 18.48 64.4094 18.51 64.4294 18.54L67.0394 21.15L69.6594 18.53C69.6594 18.53 69.6994 18.47 69.7294 18.45C69.8994 18.28 70.1594 18.23 70.3794 18.32C70.5994 18.41 70.7494 18.63 70.7494 18.87C70.7494 19.03 70.6894 19.18 70.5794 19.29L67.8894 22L70.5094 24.61C70.5094 24.61 70.5694 24.65 70.5894 24.68C70.7594 24.85 70.8094 25.11 70.7194 25.33C70.6294 25.55 70.4094 25.7 70.1694 25.7C70.0094 25.7 69.8594 25.64 69.7494 25.53L67.0494 22.84L64.3594 25.54H64.3494C64.2994 25.58 64.2294 25.63 64.1594 25.66C63.9394 25.75 63.6794 25.7 63.5094 25.53C63.3994 25.42 63.3294 25.27 63.3294 25.11C63.3294 24.95 63.3894 24.8 63.5094 24.69C63.5394 24.66 63.5694 24.64 63.6094 24.61L66.2094 22.01L63.5094 19.31C63.4594 19.25 63.4094 19.18 63.3794 19.11C63.2894 18.89 63.3394 18.63 63.5094 18.46C63.6194 18.35 63.7694 18.28 63.9294 18.28L63.9394 18.27ZM71.0094 14.33H63.6194C63.5294 14.33 63.4494 14.33 63.3694 14.33C63.2194 14.33 63.0694 14.33 62.8794 14.33C62.5494 14.33 62.2094 14.36 61.8894 14.42C61.5894 14.47 61.3094 14.57 61.0394 14.7C60.7794 14.83 60.5294 15.01 60.3194 15.22C60.3194 15.22 60.2994 15.24 60.2694 15.27C60.2094 15.33 60.1994 15.35 60.1794 15.37C60.0794 15.46 59.9894 15.55 59.8994 15.64C59.8494 15.69 59.7994 15.74 59.7494 15.79L59.5694 15.97L57.2694 18.27C57.2694 18.27 57.2294 18.31 57.2194 18.32C57.1794 18.36 57.1294 18.41 57.0794 18.45L57.0194 18.51C57.0194 18.51 56.9894 18.54 56.9794 18.55L56.9394 18.59L56.8894 18.64L54.8294 20.7C54.8294 20.7 54.7494 20.79 54.6894 20.84C54.6894 20.84 54.6627 20.8667 54.6094 20.92C54.6094 20.92 54.5294 21 54.4494 21.08C54.2994 21.22 54.1694 21.38 54.0394 21.54L53.9994 21.59C53.9994 21.59 53.9394 21.67 53.9194 21.71C53.8694 21.89 53.8694 22.07 53.9194 22.25C53.9394 22.29 53.9694 22.33 53.9994 22.37L54.0394 22.42C54.1694 22.58 54.3094 22.73 54.4694 22.89C54.4994 22.92 54.5294 22.95 54.5594 22.99L54.7194 23.15C54.7194 23.15 54.7894 23.22 54.8194 23.25L56.8894 25.32L57.0494 25.47C57.0494 25.47 57.0794 25.5 57.0894 25.51C57.1694 25.59 57.1994 25.62 57.2294 25.65C57.2294 25.65 57.2494 25.67 57.2794 25.7L59.5794 28.01C59.7494 28.18 59.8194 28.25 59.9194 28.35C60.0394 28.47 60.1094 28.54 60.1894 28.62C60.2094 28.64 60.2094 28.64 60.2794 28.72C60.2994 28.74 60.3194 28.76 60.3294 28.77C60.5394 28.98 60.7794 29.16 61.0394 29.29C61.3094 29.43 61.5994 29.52 61.8894 29.57C62.2194 29.62 62.5494 29.65 62.8894 29.66C63.0594 29.66 63.2194 29.66 63.3794 29.66H71.2194C71.3594 29.66 71.5094 29.66 71.7194 29.66C72.0594 29.66 72.3894 29.63 72.7194 29.57C73.0194 29.52 73.3094 29.42 73.5794 29.29C73.8494 29.15 74.0894 28.98 74.2994 28.77C74.5094 28.56 74.6894 28.31 74.8294 28.05C74.9694 27.78 75.0594 27.49 75.1094 27.19C75.1594 26.86 75.1894 26.52 75.1994 26.17C75.1994 26.07 75.1994 25.99 75.1994 25.8C75.1994 25.76 75.1994 25.74 75.1994 25.72V18.23C75.1994 18.23 75.1994 18.21 75.1994 18.19C75.1994 18.07 75.1994 18.02 75.1994 17.96C75.1994 17.9 75.1994 17.85 75.1994 17.79C75.1994 17.46 75.1694 17.12 75.1094 16.8C75.0594 16.5 74.9594 16.21 74.8294 15.95C74.6894 15.68 74.5194 15.44 74.3094 15.23C74.0994 15.02 73.8594 14.84 73.5994 14.71C73.3294 14.57 73.0394 14.48 72.7594 14.43C72.4294 14.38 72.0994 14.35 71.7594 14.34C71.5794 14.34 71.4194 14.34 71.2694 14.34C71.1894 14.34 71.1194 14.34 71.0194 14.34L71.0094 14.33ZM71.0994 13H71.2594C71.4194 13 71.5894 13 71.7694 13C72.1694 13 72.5694 13.04 72.9694 13.11C73.3994 13.18 73.8094 13.32 74.1994 13.52C74.5894 13.72 74.9494 13.98 75.2594 14.29C75.5694 14.6 75.8294 14.95 76.0294 15.35C76.2194 15.74 76.3594 16.15 76.4294 16.58C76.4894 16.97 76.5294 17.37 76.5294 17.76C76.5294 17.82 76.5294 17.87 76.5294 17.94C76.5294 18.01 76.5294 18.06 76.5294 18.18C76.5294 18.2133 76.5294 18.25 76.5294 18.29V25.69C76.5294 25.73 76.5294 25.77 76.5294 25.81C76.5294 26 76.5294 26.09 76.5294 26.19C76.5294 26.59 76.4894 27 76.4194 27.4C76.3494 27.83 76.2094 28.25 76.0094 28.64C75.8094 29.03 75.5494 29.39 75.2394 29.7C74.9294 30.01 74.5694 30.27 74.1694 30.47C73.7794 30.67 73.3594 30.8 72.9294 30.88C72.5294 30.95 72.1294 30.98 71.7294 30.99C71.5194 30.99 71.3594 30.99 71.2094 30.99H63.3594C63.1894 30.99 63.0194 30.99 62.8494 30.99C62.4494 30.99 62.0494 30.95 61.6494 30.88C61.2194 30.81 60.8094 30.67 60.4194 30.47C60.0294 30.27 59.6694 30.01 59.3794 29.72C59.3594 29.7 59.3394 29.68 59.2894 29.63C59.1594 29.5 59.0794 29.42 58.9494 29.3C58.9094 29.26 58.8794 29.23 58.8394 29.19L58.6094 28.96L56.3294 26.68C56.2594 26.61 56.2194 26.57 56.1494 26.51C56.1094 26.47 56.0794 26.44 56.0394 26.4L55.9194 26.28L53.8494 24.2L53.8094 24.16L53.7094 24.05C53.7094 24.05 53.6894 24.03 53.6694 24.01C53.5994 23.94 53.5394 23.88 53.5094 23.84C53.3394 23.67 53.1694 23.49 53.0194 23.3C52.8794 23.15 52.7594 22.97 52.6794 22.78L52.6594 22.72C52.5094 22.26 52.5094 21.76 52.6594 21.29L52.6794 21.23C52.7594 21.04 52.8794 20.86 53.0194 20.71C53.1694 20.52 53.3394 20.34 53.4994 20.18C53.5694 20.11 53.6194 20.05 53.6794 19.99L53.7094 19.96C53.7094 19.96 53.7194 19.95 53.7294 19.94C53.7794 19.89 53.8194 19.85 53.8594 19.81L55.9294 17.74L55.9794 17.69C55.9794 17.69 55.9994 17.67 56.0194 17.65C56.0694 17.6 56.0994 17.57 56.1294 17.54C56.1894 17.48 56.2494 17.42 56.3194 17.35L56.3394 17.33C56.3394 17.33 56.3694 17.3 56.3894 17.28L56.4694 17.2C56.4694 17.2 56.4994 17.17 56.5194 17.15L56.6494 17.02C56.6494 17.02 56.6994 16.97 56.7294 16.94L57.3494 16.32C57.5194 16.15 57.7094 15.96 57.9194 15.75L58.6194 15.05C58.7194 14.95 58.8094 14.86 58.8894 14.79L58.9594 14.72C59.0594 14.62 59.1594 14.53 59.2594 14.42C59.3494 14.33 59.3594 14.32 59.3694 14.3C59.6794 13.99 60.0294 13.73 60.4294 13.53C60.8194 13.34 61.2294 13.2 61.6594 13.12C62.0494 13.06 62.4494 13.02 62.8394 13.02C63.0294 13.02 63.1994 13.02 63.3494 13.02C63.4094 13.02 63.4594 13.02 63.5194 13.02H71.0894L71.0994 13Z" fill="black"/>
</svg>
