<svg width="13" height="13" viewBox="0 0 13 13" fill="none" xmlns="http://www.w3.org/2000/svg">
<path d="M4.30061 11.6707C4.14829 11.5184 4.06273 11.3117 4.06273 11.0963C4.06273 10.8809 4.14829 10.6742 4.30061 10.5219L8.32249 6.49999L4.30061 2.47812C4.15261 2.32488 4.07072 2.11964 4.07257 1.9066C4.07442 1.69357 4.15987 1.48978 4.31051 1.33914C4.46116 1.18849 4.66494 1.10304 4.87798 1.10119C5.09101 1.09934 5.29625 1.18124 5.44949 1.32924L10.0458 5.92555C10.1981 6.07792 10.2837 6.28454 10.2837 6.49999C10.2837 6.71544 10.1981 6.92206 10.0458 7.07443L5.44949 11.6707C5.29712 11.8231 5.0905 11.9086 4.87505 11.9086C4.65961 11.9086 4.45298 11.8231 4.30061 11.6707Z" fill="#1F1F1F"/>
</svg>
