<svg width="20" height="20" viewBox="0 0 20 20" fill="none" xmlns="http://www.w3.org/2000/svg">
<path d="M13.3839 2.04518C13.6183 2.27959 13.7499 2.59748 13.7499 2.92893C13.7499 3.26039 13.6183 3.57827 13.3839 3.81268L7.19643 10.0002L13.3839 16.1877C13.6116 16.4234 13.7376 16.7392 13.7348 17.0669C13.7319 17.3947 13.6005 17.7082 13.3687 17.94C13.1369 18.1717 12.8234 18.3032 12.4957 18.306C12.1679 18.3089 11.8522 18.1829 11.6164 17.9552L4.54518 10.8839C4.31084 10.6495 4.1792 10.3316 4.1792 10.0002C4.1792 9.66873 4.31084 9.35084 4.54518 9.11643L11.6164 2.04518C11.8508 1.81084 12.1687 1.6792 12.5002 1.6792C12.8316 1.6792 13.1495 1.81084 13.3839 2.04518Z" fill="black"/>
</svg>
