<svg width="20" height="20" viewBox="0 0 20 20" fill="none" xmlns="http://www.w3.org/2000/svg">
<path d="M13.3839 2.045C13.6183 2.27941 13.7499 2.59729 13.7499 2.92875C13.7499 3.2602 13.6183 3.57809 13.3839 3.8125L7.19643 10L13.3839 16.1875C13.6116 16.4233 13.7376 16.739 13.7348 17.0668C13.7319 17.3945 13.6005 17.708 13.3687 17.9398C13.1369 18.1715 12.8234 18.303 12.4957 18.3058C12.1679 18.3087 11.8522 18.1827 11.6164 17.955L4.54518 10.8837C4.31084 10.6493 4.1792 10.3315 4.1792 10C4.1792 9.66854 4.31084 9.35066 4.54518 9.11625L11.6164 2.045C11.8508 1.81066 12.1687 1.67902 12.5002 1.67902C12.8316 1.67902 13.1495 1.81066 13.3839 2.045Z" fill="black"/>
</svg>
