<svg width="311" height="39" viewBox="0 0 311 39" fill="none" xmlns="http://www.w3.org/2000/svg">
<g clip-path="url(#clip0_2502_878)">
<rect width="311" height="39" rx="10" fill="#F8F8F8"/>
<g filter="url(#filter0_d_2502_878)">
<rect x="3" y="3" width="153" height="33" rx="8" fill="white"/>
<path d="M61.1543 16.2188C61.1543 17.6367 62.2324 18.9375 63.7441 19.4531L63.2402 20.1797C62.0859 19.7578 61.1777 18.8965 60.7207 17.8125C60.2754 19.0371 59.3496 20.0039 58.1309 20.4727L57.6387 19.7344C59.1973 19.1484 60.2402 17.7539 60.252 16.1484V15.0703H61.1543V16.2188ZM65.8184 14.5312V17.25H67.3887V18.0234H65.8184V20.8711H64.9043V14.5312H65.8184ZM62.4785 21.1406C64.623 21.1406 65.9121 21.832 65.9121 23.0273C65.9121 24.2461 64.623 24.9258 62.4785 24.9258C60.334 24.9258 59.0215 24.2461 59.0215 23.0273C59.0215 21.832 60.334 21.1406 62.4785 21.1406ZM62.4785 21.8789C60.9082 21.8789 59.9355 22.3125 59.9473 23.0273C59.9355 23.7656 60.9082 24.1875 62.4785 24.1992C64.0605 24.1875 65.0215 23.7656 65.0215 23.0273C65.0215 22.3125 64.0605 21.8789 62.4785 21.8789ZM77.5371 19.5703V20.332H73.2363V21.5625H76.377V24.8086H69.2051V21.5625H72.334V20.332H68.0449V19.5703H77.5371ZM76.6348 14.8711V15.6328H75.0293V17.8242H76.5996V18.5859H68.9707V17.8242H70.541V15.6328H68.9355V14.8711H76.6348ZM70.1191 22.2891V24.0586H75.4746V22.2891H70.1191ZM71.4551 17.8242H74.1152V15.6328H71.4551V17.8242ZM86.8066 15.2109C86.7949 17.8242 84.9316 19.6992 81.9316 20.5547L81.5449 19.8281C84.0352 19.125 85.623 17.7422 85.8223 15.9727H82.084V15.2109H86.8066ZM90.0645 14.543V20.4844H89.1387V18H86.8301V17.2266H89.1387V14.543H90.0645ZM90.0645 20.9297V24.8086H83.3027V20.9297H90.0645ZM84.1934 21.668V24.0586H89.1504V21.668H84.1934ZM94.9043 16.5703C94.9043 17.7539 95.7012 18.9492 97.0371 19.4766L96.5449 20.1914C95.5605 19.7812 94.8398 19.0195 94.4707 18.0938C94.084 19.1074 93.334 19.9922 92.3145 20.4492L91.8105 19.7344C93.1816 19.125 94.0254 17.7539 94.0254 16.5703V15.1758H94.9043V16.5703ZM100.646 14.543V20.8359H99.7676V18.0352H98.3848V20.7773H97.5176V14.7305H98.3848V17.2617H99.7676V14.543H100.646ZM100.646 21.4102V24.9492H99.7441V22.1719H93.627V21.4102H100.646Z" fill="#3B3A3A"/>
</g>
<path d="M217.424 16.4648C217.424 17.8711 218.537 19.1484 220.096 19.6523L219.627 20.3672C218.414 19.957 217.447 19.0957 216.979 17.9883C216.521 19.1777 215.543 20.1152 214.307 20.5664L213.826 19.8516C215.385 19.3008 216.498 17.9414 216.498 16.4648V16.0195H214.061V15.2695H219.826V16.0195H217.424V16.4648ZM222.275 14.5312V20.8359H221.361V14.5312H222.275ZM222.275 21.3867V24.9492H221.361V22.1484H215.268V21.3867H222.275ZM232.67 14.5312V20.1914H231.756V17.8359H229.646V17.0625H231.756V14.5312H232.67ZM226.893 20.6953V21.9961H231.756V20.6953H232.67V24.8086H225.967V20.6953H226.893ZM226.893 24.0586H231.756V22.7344H226.893V24.0586ZM227.666 16.2305C227.666 17.5664 228.709 18.8789 230.232 19.4062L229.752 20.1211C228.574 19.6934 227.666 18.8203 227.221 17.7422C226.77 18.9492 225.809 19.916 224.572 20.3672L224.092 19.6406C225.627 19.0898 226.74 17.707 226.74 16.2305V15.9258H224.385V15.1641H229.998V15.9258H227.666V16.2305ZM246.029 14.5312V20.1211H245.115V14.5312H246.029ZM240.193 20.6484V21.9141H245.115V20.6484H246.029V24.8086H239.279V20.6484H240.193ZM240.193 24.0586H245.115V22.6523H240.193V24.0586ZM240.404 15.0469C241.986 15.0352 243.135 16.0078 243.135 17.4375C243.135 18.8555 241.986 19.8281 240.404 19.8281C238.822 19.8281 237.674 18.8555 237.674 17.4375C237.674 16.0078 238.822 15.0352 240.404 15.0469ZM240.404 15.8203C239.338 15.8086 238.564 16.4883 238.576 17.4375C238.564 18.3867 239.338 19.0664 240.404 19.0664C241.459 19.0664 242.232 18.3867 242.232 17.4375C242.232 16.4883 241.459 15.8086 240.404 15.8203ZM252.744 15.1758V18.0938H249.158V19.7109C251.115 19.7109 252.123 19.6816 253.354 19.4531L253.447 20.2148C252.146 20.4258 251.092 20.4609 248.982 20.4609H248.244V17.3906H251.83V15.9141H248.221V15.1758H252.744ZM256.436 14.543V20.9414H255.51V19.0078H253.436V18.2461H255.51V16.8398H253.436V16.0898H255.51V14.543H256.436ZM256.436 21.5039V24.9727H255.51V22.2539H249.416V21.5039H256.436Z" fill="#3B3A3A"/>
</g>
<defs>
<filter id="filter0_d_2502_878" x="-1.7" y="-1.7" width="162.4" height="42.4" filterUnits="userSpaceOnUse" color-interpolation-filters="sRGB">
<feFlood flood-opacity="0" result="BackgroundImageFix"/>
<feColorMatrix in="SourceAlpha" type="matrix" values="0 0 0 0 0 0 0 0 0 0 0 0 0 0 0 0 0 0 127 0" result="hardAlpha"/>
<feOffset/>
<feGaussianBlur stdDeviation="2.35"/>
<feComposite in2="hardAlpha" operator="out"/>
<feColorMatrix type="matrix" values="0 0 0 0 0 0 0 0 0 0 0 0 0 0 0 0 0 0 0.04 0"/>
<feBlend mode="normal" in2="BackgroundImageFix" result="effect1_dropShadow_2502_878"/>
<feBlend mode="normal" in="SourceGraphic" in2="effect1_dropShadow_2502_878" result="shape"/>
</filter>
<clipPath id="clip0_2502_878">
<rect width="311" height="39" rx="10" fill="white"/>
</clipPath>
</defs>
</svg>
