<svg width="15" height="18" viewBox="0 0 15 18" fill="none" xmlns="http://www.w3.org/2000/svg">
<path d="M5.50016 8.99984C5.50016 9.55237 5.28067 10.0823 4.88997 10.473C4.49927 10.8637 3.96936 11.0832 3.41683 11.0832C2.8643 11.0832 2.33439 10.8637 1.94369 10.473C1.55299 10.0823 1.3335 9.55237 1.3335 8.99984C1.3335 8.4473 1.55299 7.9174 1.94369 7.5267C2.33439 7.136 2.8643 6.9165 3.41683 6.9165C3.96936 6.9165 4.49927 7.136 4.88997 7.5267C5.28067 7.9174 5.50016 8.4473 5.50016 8.99984Z" stroke="#CAC8C8" stroke-width="1.5"/>
<path d="M9.66667 4.4165L5.5 7.33317M9.66667 13.5832L5.5 10.6665" stroke="#CAC8C8" stroke-width="1.5" stroke-linecap="round"/>
<path d="M13.8337 14.4167C13.8337 14.9692 13.6142 15.4991 13.2235 15.8898C12.8328 16.2805 12.3029 16.5 11.7503 16.5C11.1978 16.5 10.6679 16.2805 10.2772 15.8898C9.88649 15.4991 9.66699 14.9692 9.66699 14.4167C9.66699 13.8641 9.88649 13.3342 10.2772 12.9435C10.6679 12.5528 11.1978 12.3333 11.7503 12.3333C12.3029 12.3333 12.8328 12.5528 13.2235 12.9435C13.6142 13.3342 13.8337 13.8641 13.8337 14.4167ZM13.8337 3.58333C13.8337 4.13587 13.6142 4.66577 13.2235 5.05647C12.8328 5.44717 12.3029 5.66667 11.7503 5.66667C11.1978 5.66667 10.6679 5.44717 10.2772 5.05647C9.88649 4.66577 9.66699 4.13587 9.66699 3.58333C9.66699 3.0308 9.88649 2.50089 10.2772 2.11019C10.6679 1.71949 11.1978 1.5 11.7503 1.5C12.3029 1.5 12.8328 1.71949 13.2235 2.11019C13.6142 2.50089 13.8337 3.0308 13.8337 3.58333Z" stroke="#CAC8C8" stroke-width="1.5"/>
</svg>
