<svg width="10" height="10" viewBox="0 0 10 10" fill="none" xmlns="http://www.w3.org/2000/svg">
<path fill-rule="evenodd" clip-rule="evenodd" d="M3.93893 0.146108C4.14014 0.0499234 4.36032 0 4.58334 0C4.80636 0 5.02655 0.0499234 5.22776 0.146108C5.40513 0.2309 5.56693 0.369317 5.79197 0.5609L5.82772 0.59115C5.9368 0.684192 5.97118 0.712608 6.00601 0.735983C6.09447 0.795567 6.19393 0.836358 6.29797 0.856983C6.33922 0.865233 6.38368 0.869358 6.52668 0.880358L6.57297 0.884025C6.86722 0.9074 7.07988 0.924358 7.26505 0.989442C7.47539 1.06398 7.66644 1.18455 7.82423 1.34234C7.98203 1.50014 8.1026 1.69118 8.17713 1.90153C8.24222 2.08669 8.25872 2.29936 8.28255 2.59361L8.28622 2.6399C8.29722 2.7829 8.30134 2.82782 8.30959 2.86861C8.33022 2.97311 8.37147 3.07257 8.43059 3.16103C8.45397 3.1954 8.48238 3.22977 8.57543 3.33886L8.60568 3.37461C8.79772 3.59919 8.93568 3.76144 9.02047 3.93836C9.21526 4.34628 9.21526 4.82019 9.02047 5.22765C8.93613 5.40503 8.79772 5.56682 8.60568 5.79186L8.57543 5.82761C8.5242 5.88458 8.47586 5.94409 8.43059 6.0059C8.37101 6.09436 8.33022 6.19382 8.30959 6.29786C8.30134 6.33911 8.29768 6.38357 8.28622 6.52657L8.28209 6.57286C8.25918 6.86711 8.24222 7.07978 8.17668 7.26494C8.10248 7.4754 7.98208 7.66656 7.82433 7.82439C7.66657 7.98223 7.47547 8.10272 7.26505 8.17703C7.07988 8.24211 6.86722 8.25861 6.57297 8.28244L6.52668 8.28611C6.4501 8.29007 6.37376 8.29787 6.29797 8.30948C6.19376 8.33063 6.09462 8.37171 6.00601 8.43048C5.94404 8.47574 5.88438 8.52408 5.82726 8.57532L5.79197 8.60557C5.56738 8.79761 5.40513 8.93557 5.22822 9.02036C5.02695 9.11662 4.80668 9.16658 4.58357 9.16658C4.36047 9.16658 4.1402 9.11662 3.93893 9.02036C3.76155 8.93603 3.59976 8.79761 3.37472 8.60557L3.33897 8.57532C3.28214 8.5241 3.22279 8.47576 3.16113 8.43048C3.07238 8.37166 2.97308 8.33057 2.86872 8.30948C2.79292 8.29787 2.71659 8.29007 2.64001 8.28611L2.59372 8.28198C2.29947 8.25907 2.0868 8.24211 1.90163 8.17657C1.69118 8.10237 1.50002 7.98197 1.34218 7.82422C1.18435 7.66646 1.06386 7.47536 0.989551 7.26494C0.924468 7.07978 0.90751 6.86711 0.884135 6.57286L0.880468 6.52657C0.876508 6.44999 0.868706 6.37366 0.857093 6.29786C0.835951 6.19365 0.794864 6.09451 0.736093 6.0059C0.690838 5.94393 0.6425 5.88427 0.59126 5.82715L0.56101 5.79186C0.369426 5.56728 0.23101 5.40503 0.146218 5.22811C0.0499618 5.02684 0 4.80657 0 4.58346C0 4.36036 0.0499618 4.14009 0.146218 3.93882C0.23101 3.76144 0.369426 3.59965 0.56101 3.37461L0.59126 3.33886C0.642475 3.28204 0.690813 3.22268 0.736093 3.16103C0.795676 3.07257 0.836468 2.97311 0.857093 2.86861C0.865343 2.82736 0.869468 2.7829 0.880468 2.6399L0.884135 2.59361C0.90751 2.29936 0.924468 2.08669 0.989551 1.90153C1.0638 1.69102 1.18427 1.49983 1.3421 1.34199C1.49994 1.18416 1.69113 1.06369 1.90163 0.989442C2.0868 0.924358 2.29947 0.9074 2.59372 0.884025L2.64001 0.880358C2.71659 0.876398 2.79292 0.868596 2.86872 0.856983C2.97322 0.836358 3.07268 0.795108 3.16113 0.735983C3.19551 0.712608 3.22988 0.684192 3.33897 0.59115L3.37472 0.5609C3.5993 0.369317 3.76201 0.2309 3.93893 0.146108ZM4.92984 0.768525C4.82147 0.716891 4.70293 0.690097 4.58288 0.690097C4.46284 0.690097 4.3443 0.716891 4.23593 0.768525C4.15113 0.808858 4.06176 0.881733 3.7863 1.11594L3.77255 1.1274C3.68226 1.2044 3.61672 1.26078 3.54476 1.3089C3.38022 1.4189 3.19597 1.49544 3.00163 1.53348C2.91684 1.55044 2.83068 1.55732 2.71197 1.56694L2.69455 1.56832C2.33384 1.59719 2.21972 1.60911 2.1308 1.64028C1.90163 1.7214 1.72105 1.90153 1.64038 2.13115C1.6083 2.22007 1.59684 2.33419 1.56797 2.6949L1.56659 2.71232C1.55743 2.83103 1.55009 2.91719 1.53359 3.00198C1.49509 3.19632 1.41901 3.38057 1.30901 3.54511C1.26043 3.61707 1.20405 3.68261 1.12705 3.77336L1.11559 3.78665C0.881385 4.06165 0.80851 4.15148 0.768176 4.23582C0.716471 4.34425 0.689639 4.46287 0.689639 4.583C0.689639 4.70314 0.716471 4.82175 0.768176 4.93019C0.80851 5.01498 0.881385 5.10436 1.11559 5.37982L1.12705 5.39357C1.20405 5.48386 1.26043 5.5494 1.30855 5.62136C1.41855 5.7859 1.49509 5.97015 1.53313 6.16448C1.55009 6.24928 1.55697 6.33544 1.56659 6.45415L1.56797 6.47157C1.59684 6.83228 1.60876 6.9464 1.63993 7.03532C1.72105 7.26448 1.90118 7.44507 2.1308 7.52573C2.21972 7.55782 2.33384 7.56928 2.69455 7.59815L2.71197 7.59953C2.83068 7.60869 2.91684 7.61603 3.00163 7.63253C3.19597 7.67103 3.38022 7.74711 3.54476 7.85711C3.61672 7.90569 3.68226 7.96207 3.77301 8.03907L3.7863 8.05053C4.0613 8.28473 4.15113 8.35761 4.23547 8.39794C4.3439 8.44965 4.46252 8.47648 4.58266 8.47648C4.70279 8.47648 4.82141 8.44965 4.92984 8.39794C5.01463 8.35761 5.10401 8.28473 5.37947 8.05053L5.39322 8.03907C5.48351 7.96207 5.54905 7.90569 5.62101 7.85757C5.78555 7.74757 5.9698 7.67103 6.16413 7.63298C6.26003 7.61672 6.35672 7.60555 6.4538 7.59953L6.47122 7.59815C6.83193 7.56928 6.94605 7.55736 7.03497 7.52619C7.26413 7.44507 7.44472 7.26494 7.52538 7.03532C7.55747 6.9464 7.56893 6.83182 7.5978 6.47157L7.59918 6.45415C7.60503 6.35693 7.61605 6.26008 7.63218 6.16403C7.67068 5.97015 7.74676 5.7859 7.85676 5.62136C7.90534 5.5494 7.96172 5.48386 8.03872 5.39311L8.05018 5.37982C8.28438 5.10482 8.35726 5.01498 8.39759 4.93065C8.4493 4.82221 8.47613 4.7036 8.47613 4.58346C8.47613 4.46333 8.4493 4.34471 8.39759 4.23628C8.35726 4.15148 8.28438 4.06211 8.05018 3.78665L8.03872 3.7729C7.96172 3.68261 7.90534 3.61707 7.85722 3.54511C7.74756 3.38049 7.67126 3.19597 7.63263 3.00198C7.61637 2.90609 7.6052 2.8094 7.59918 2.71232L7.5978 2.6949C7.56893 2.33419 7.55701 2.22007 7.52584 2.13115C7.44472 1.90198 7.26459 1.7214 7.03497 1.64073C6.94605 1.60865 6.83147 1.59719 6.47122 1.56832L6.4538 1.56694C6.35658 1.56109 6.25973 1.55007 6.16368 1.53394C5.96985 1.49526 5.78549 1.41896 5.62101 1.30936C5.54905 1.26078 5.48351 1.2044 5.39276 1.1274L5.37947 1.11594C5.10447 0.881733 5.01463 0.808858 4.9303 0.768525" fill="white"/>
<path fill-rule="evenodd" clip-rule="evenodd" d="M6.20734 2.95905C6.23939 2.9911 6.26482 3.02914 6.28217 3.07102C6.29952 3.1129 6.30845 3.15778 6.30845 3.20311C6.30845 3.24844 6.29952 3.29332 6.28217 3.3352C6.26482 3.37707 6.23939 3.41512 6.20734 3.44717L3.44771 6.20634C3.38246 6.26816 3.29566 6.30208 3.20578 6.30089C3.11589 6.29969 3.03002 6.26348 2.96643 6.19995C2.90284 6.13642 2.86655 6.05058 2.86527 5.9607C2.86399 5.87082 2.89783 5.78399 2.95959 5.71867L5.71921 2.95951C5.75126 2.92745 5.78931 2.90202 5.83119 2.88468C5.87306 2.86733 5.91795 2.8584 5.96328 2.8584C6.0086 2.8584 6.05349 2.86733 6.09537 2.88468C6.13724 2.90202 6.17529 2.92745 6.20734 2.95951" fill="white"/>
<path d="M6.1932 5.73287C6.19514 5.79449 6.18468 5.85587 6.16245 5.91337C6.14021 5.97088 6.10664 6.02332 6.06374 6.0676C6.02084 6.11188 5.96948 6.14708 5.9127 6.17112C5.85593 6.19517 5.79491 6.20755 5.73326 6.20755C5.67161 6.20755 5.61058 6.19517 5.55381 6.17112C5.49704 6.14708 5.44568 6.11188 5.40278 6.0676C5.35988 6.02332 5.32631 5.97088 5.30407 5.91337C5.28183 5.85587 5.27137 5.79449 5.27332 5.73287C5.27709 5.6134 5.3272 5.50008 5.41305 5.41691C5.49889 5.33373 5.61373 5.28722 5.73326 5.28722C5.85279 5.28722 5.96763 5.33373 6.05347 5.41691C6.13931 5.50008 6.18942 5.6134 6.1932 5.73287ZM3.89374 3.43295C3.89568 3.49457 3.88523 3.55596 3.86299 3.61346C3.84075 3.67096 3.80718 3.72341 3.76428 3.76768C3.72138 3.81196 3.67002 3.84717 3.61325 3.87121C3.55648 3.89525 3.49545 3.90764 3.4338 3.90764C3.37215 3.90764 3.31112 3.89525 3.25435 3.87121C3.19758 3.84717 3.14622 3.81196 3.10332 3.76768C3.06042 3.72341 3.02685 3.67096 3.00461 3.61346C2.98237 3.55596 2.97192 3.49457 2.97386 3.43295C2.97763 3.31348 3.02774 3.20017 3.11359 3.11699C3.19943 3.03381 3.31427 2.9873 3.4338 2.9873C3.55333 2.9873 3.66817 3.03381 3.75401 3.11699C3.83985 3.20017 3.88997 3.31348 3.89374 3.43295Z" fill="white"/>
</svg>
