<svg width="29" height="29" viewBox="0 0 29 29" fill="none" xmlns="http://www.w3.org/2000/svg">
<g clip-path="url(#clip0_2388_1836)">
<path d="M22.5939 18.1424C22.1463 18.1424 21.7845 17.7806 21.7845 17.333V12.4764C21.7845 7.56739 18.5169 3.57289 14.4998 3.57289C10.4834 3.57289 7.21504 7.56739 7.21504 12.4764V17.333C7.21504 17.7806 6.85237 18.1424 6.40561 18.1424C5.95885 18.1424 5.59619 17.7806 5.59619 17.333V12.4764C5.59619 6.6746 9.59062 1.95404 14.4998 1.95404C19.4089 1.95404 23.4033 6.6746 23.4033 12.4764V17.333C23.4033 17.7806 23.0415 18.1424 22.5939 18.1424Z" fill="#FFAC33"/>
<path d="M26.9537 10.835C26.7433 9.06718 25.1147 7.62 23.334 7.62H5.66608C3.8854 7.62 2.25681 9.06718 2.0464 10.835L0.312599 25.4498C0.102188 27.2184 1.38753 28.6647 3.16821 28.6647H25.8319C27.6126 28.6647 28.8979 27.2184 28.6875 25.4498L26.9537 10.835Z" fill="#9266CC"/>
<path d="M22.5939 16.5236C22.1463 16.5236 21.7845 16.1617 21.7845 15.7141V10.8576C21.7845 5.94856 18.5169 1.95405 14.4998 1.95405C10.4834 1.95405 7.21504 5.94856 7.21504 10.8576V15.7141C7.21504 16.1617 6.85237 16.5236 6.40561 16.5236C5.95885 16.5236 5.59619 16.1617 5.59619 15.7141V10.8576C5.59619 5.05576 9.59062 0.335205 14.4998 0.335205C19.4089 0.335205 23.4033 5.05576 23.4033 10.8576V15.7141C23.4033 16.1617 23.0415 16.5236 22.5939 16.5236Z" fill="#FFD983"/>
</g>
<defs>
<clipPath id="clip0_2388_1836">
<rect width="29" height="29" fill="white"/>
</clipPath>
</defs>
</svg>
