<svg width="32" height="32" viewBox="0 0 32 32" fill="none" xmlns="http://www.w3.org/2000/svg">
<g clip-path="url(#clip0_2388_1898)">
<path d="M31.1698 31.1698C30.4889 31.8507 29.3867 31.8507 28.7067 31.1698L10.8427 13.3067C10.1618 12.6258 10.1618 11.5227 10.8427 10.8418C11.5236 10.1618 12.6267 10.1618 13.3067 10.8418L31.1698 28.7067C31.8507 29.3858 31.8507 30.4898 31.1698 31.1698Z" fill="#FFAC33"/>
<path d="M24.7109 12.5156C24.7109 19.2498 19.2514 24.7111 12.5154 24.7111C5.78027 24.7111 0.319824 19.2498 0.319824 12.5156C0.319824 5.77956 5.78027 0.320007 12.5154 0.320007C19.2514 0.320007 24.7109 5.77956 24.7109 12.5156Z" fill="#DD2E44"/>
<path d="M15.4766 24.3342C14.1797 24.416 12.865 24.2755 11.5841 23.8871C8.7788 23.0329 6.4748 21.1378 5.09525 18.5511C4.01347 16.5218 3.78592 14.1938 4.45614 11.9947C5.12458 9.79554 6.61081 7.98843 8.64014 6.90666C10.2232 6.06221 12.0375 5.88532 13.7521 6.40799C15.4668 6.92888 16.8757 8.08799 17.7192 9.67021C18.3717 10.8942 18.5095 12.2995 18.105 13.6267C17.7015 14.9547 16.8055 16.0453 15.5806 16.6978C14.6419 17.1973 13.5655 17.304 12.5477 16.9938C11.5308 16.6844 10.6944 15.9964 10.1939 15.0578C9.41258 13.5929 9.96903 11.7653 11.4339 10.984C11.9601 10.7022 12.5646 10.6427 13.1361 10.8178C13.3415 10.88 13.5335 10.9698 13.7086 11.0835C13.1112 10.7929 12.3877 10.7813 11.7584 11.1164C10.561 11.7555 10.1068 13.2489 10.745 14.4462C11.1041 15.12 11.7041 15.6133 12.4348 15.8364C13.1655 16.0587 13.9388 15.984 14.6126 15.624C16.2446 14.7529 16.865 12.7164 15.9948 11.0835C15.4952 10.1458 14.6597 9.45954 13.6437 9.1511C12.6277 8.84088 11.5521 8.94577 10.6144 9.44621C8.30236 10.68 7.42414 13.5644 8.65703 15.8773C9.37614 17.2258 10.5788 18.2142 12.041 18.6595C13.5032 19.104 15.0517 18.9529 16.401 18.2338C18.0357 17.3627 19.2339 15.9049 19.7735 14.1324C20.3112 12.36 20.1281 10.4835 19.2579 8.84888C18.1957 6.85688 16.4197 5.39643 14.2597 4.73865C12.0979 4.08088 9.81169 4.30399 7.81969 5.36799C5.38058 6.66843 3.59392 8.84088 2.78858 11.4862C1.98414 14.1315 2.25703 16.9307 3.55747 19.3698C4.37258 20.8995 5.46947 22.216 6.77792 23.2738C8.48814 24.1875 10.4401 24.7093 12.5157 24.7093C13.5388 24.7111 14.5272 24.5715 15.4766 24.3342ZM14.2988 13.1804C14.4419 13.104 14.5548 12.9929 14.6339 12.864C14.5708 13.3671 14.2721 13.8329 13.7921 14.0889C13.5281 14.2293 13.2259 14.2578 12.9415 14.1715C12.6561 14.0844 12.4215 13.8924 12.281 13.6284C12.0944 13.2791 12.2277 12.8427 12.577 12.656C12.6366 12.624 12.7015 12.6089 12.7655 12.6089C12.9086 12.6089 13.0481 12.6853 13.1201 12.8204C13.3468 13.2462 13.8739 13.408 14.2988 13.1804Z" fill="#F4900C"/>
<path d="M21.791 7.55468C20.3963 4.46845 16.3537 1.05512 11.3279 0.501342C11.1394 0.480898 10.9519 0.472009 10.7652 0.459564C7.56522 0.921786 4.77144 2.61868 2.87988 5.06045C5.88611 2.56356 8.90299 2.20356 11.1145 2.44356C15.4123 2.91734 18.8425 5.77779 20.0088 8.35912C21.7945 12.3129 20.0292 16.9831 16.0763 18.768C14.5928 19.4391 12.935 19.4898 11.4123 18.9147C9.88877 18.3396 8.67988 17.2045 8.00966 15.72C6.94655 13.3671 7.99633 10.5876 10.3483 9.52445C12.1323 8.71912 14.2417 9.51556 15.0479 11.2996C15.5492 12.4116 15.2168 13.6916 14.3172 14.432C14.551 14.192 14.735 13.9049 14.8568 13.5822C15.0888 12.9671 15.0674 12.2987 14.7972 11.6996C14.4861 11.0107 13.9252 10.4827 13.2177 10.216C12.5092 9.94845 11.7394 9.97245 11.0514 10.2845C10.2488 10.6462 9.63455 11.2996 9.32344 12.1227C9.01233 12.9467 9.04077 13.8418 9.40255 14.6445C9.82833 15.5876 10.5963 16.3093 11.5652 16.6747C12.5341 17.0409 13.5874 17.0062 14.5297 16.5813C16.8399 15.5378 17.8719 12.8071 16.8283 10.4951C15.5794 7.72979 12.3101 6.49779 9.54388 7.74401C6.20877 9.25156 4.72166 13.1911 6.22744 16.5262C7.11366 18.4871 8.70922 19.9849 10.7217 20.744C11.6479 21.0942 12.6097 21.2685 13.5705 21.2685C14.6985 21.2685 15.823 21.0285 16.8817 20.5502C21.8159 18.3191 24.0185 12.4907 21.791 7.55468ZM13.0274 12.8907C12.9794 13.0169 12.8852 13.1173 12.7634 13.1733C12.271 13.3947 12.0532 13.9733 12.2745 14.4658C12.3803 14.7005 12.567 14.8729 12.7865 14.9653C12.607 14.9502 12.4292 14.9102 12.2559 14.8462C11.7759 14.664 11.3945 14.3067 11.1839 13.8391C11.0363 13.5129 11.0248 13.1485 11.1519 12.8133C11.2781 12.4791 11.5279 12.2125 11.8559 12.0658C11.9705 12.0133 12.0932 11.9876 12.2159 11.9876C12.3208 11.9876 12.4257 12.0062 12.5261 12.0445C12.7457 12.128 12.919 12.2898 13.0159 12.5049C13.071 12.6276 13.0745 12.7645 13.0274 12.8907Z" fill="#FFCC4D"/>
</g>
<defs>
<clipPath id="clip0_2388_1898">
<rect width="32" height="32" fill="white"/>
</clipPath>
</defs>
</svg>
