<svg width="32" height="32" viewBox="0 0 32 32" fill="none" xmlns="http://www.w3.org/2000/svg">
<path d="M15.1113 2.66666H16.8891V7.1111H15.1113V2.66666Z" fill="#66757F"/>
<path d="M10.6665 10.6667V8.00001C10.6665 7.02223 11.4665 6.22223 12.4443 6.22223H19.5554C20.5332 6.22223 21.3332 7.02223 21.3332 8.00001V10.6667H10.6665Z" fill="#99AAB5"/>
<path d="M21.3335 9.77777H10.6668C6.22238 9.77777 5.3335 28.4444 5.3335 28.4444C5.3335 30.4 6.9335 32 8.88905 32H23.1113C25.0668 32 26.6668 30.4 26.6668 28.4444C26.6668 28.4444 25.7779 9.77777 21.3335 9.77777Z" fill="#FFAC33"/>
<path d="M7.11133 3.55556C7.11133 3.55556 8.88911 0 13.3335 0H18.6669C20.4447 0 20.4447 3.55556 18.6669 3.55556H13.3335C8.88911 3.55556 8.00022 4.44444 8.00022 4.44444L7.11133 3.55556Z" fill="#CCD6DD"/>
<path d="M7.52344 3.96799L7.99988 4.44444C7.99988 4.44444 8.88877 3.55555 13.3332 3.55555H18.6665C19.5332 3.55555 19.975 2.71199 19.9963 1.8471C18.6665 1.8471 17.3545 1.77777 13.3332 1.77777C9.90299 1.77777 8.42744 3.00177 7.52344 3.96799Z" fill="#99AAB5"/>
<path d="M20.8887 11.5555H11.1109C10.8665 11.5555 10.6665 11.3555 10.6665 11.1111C10.6665 10.8667 10.8665 10.6667 11.1109 10.6667H20.8887C21.1332 10.6667 21.3332 10.8667 21.3332 11.1111C21.3332 11.3555 21.1332 11.5555 20.8887 11.5555Z" fill="#FFCC4D"/>
<path d="M15.9999 16C15.9999 16 12.4443 20.2587 12.4443 22.2222C12.4443 24.1858 14.0363 25.7778 15.9999 25.7778C17.9634 25.7778 19.5554 24.1858 19.5554 22.2222C19.5554 20.2587 15.9999 16 15.9999 16Z" fill="#FFE8B6"/>
</svg>
