<svg width="28" height="28" viewBox="0 0 28 28" fill="none" xmlns="http://www.w3.org/2000/svg">
<path d="M7.00016 2.33344H21.0002C22.2378 2.33344 23.4248 2.8251 24.3 3.70027C25.1752 4.57544 25.6668 5.76242 25.6668 7.0001V12.8334C25.6668 13.4778 25.1445 14.0001 24.5002 14.0001C23.8558 14.0001 23.3335 13.4778 23.3335 12.8334V7.0001C23.3335 6.38126 23.0877 5.78777 22.6501 5.35019C22.2125 4.9126 21.619 4.66677 21.0002 4.66677H7.00016C6.38132 4.66677 5.78783 4.9126 5.35025 5.35019C4.91266 5.78777 4.66683 6.38126 4.66683 7.0001V21.0001C4.66683 21.6189 4.91266 22.2124 5.35025 22.65C5.78783 23.0876 6.38132 23.3334 7.00016 23.3334H12.8335C13.4778 23.3334 14.0002 23.8558 14.0002 24.5001C14.0002 25.1444 13.4778 25.6668 12.8335 25.6668H7.00016C5.76249 25.6668 4.5755 25.1751 3.70033 24.2999C2.82516 23.4248 2.3335 22.2378 2.3335 21.0001V7.0001C2.3335 5.76242 2.82516 4.57544 3.70033 3.70027C4.5755 2.8251 5.76249 2.33344 7.00016 2.33344ZM14.0002 9.33344C15.2378 9.33344 16.4248 9.8251 17.3 10.7003C18.1752 11.5754 18.6668 12.7624 18.6668 14.0001C18.6668 15.2378 18.1752 16.4248 17.3 17.2999C16.4248 18.1751 15.2378 18.6668 14.0002 18.6668C12.7625 18.6668 11.5755 18.1751 10.7003 17.2999C9.82516 16.4248 9.3335 15.2378 9.3335 14.0001C9.3335 12.7624 9.82516 11.5754 10.7003 10.7003C11.5755 9.8251 12.7625 9.33344 14.0002 9.33344ZM21.0002 18.6668C21.619 18.6668 22.2125 18.9126 22.6501 19.3502C23.0877 19.7878 23.3335 20.3813 23.3335 21.0001C23.3335 21.6189 23.0877 22.2124 22.6501 22.65C22.2125 23.0876 21.619 23.3334 21.0002 23.3334C20.3813 23.3334 19.7878 23.0876 19.3502 22.65C18.9127 22.2124 18.6668 21.6189 18.6668 21.0001C18.6668 20.3813 18.9127 19.7878 19.3502 19.3502C19.7878 18.9126 20.3813 18.6668 21.0002 18.6668Z" fill="white"/>
</svg>
