<svg width="32" height="32" viewBox="0 0 32 32" fill="none" xmlns="http://www.w3.org/2000/svg">
<g clip-path="url(#clip0_2388_1960)">
<path d="M15.3386 28.0169C11.1128 32.2427 5.37681 32.9707 2.28704 29.8809C-0.801853 26.792 0.0497024 20.9333 4.15281 16.8302C7.13504 13.8471 10.1181 13.8471 12.3555 11.6098C14.5928 9.37334 13.847 7.13601 17.2035 3.77956C21.3048 -0.32088 26.5244 -1.06755 29.8808 2.28801C33.2355 5.64445 32.3981 10.9582 28.3893 14.9662C25.0337 18.3218 22.7964 17.576 20.559 19.8125C18.3208 22.0507 18.3208 25.0329 15.3386 28.0169Z" fill="#D99E82"/>
<path d="M7.29881 19.0196C7.01081 19.0196 6.72725 18.88 6.55658 18.6213C6.28547 18.2124 6.39747 17.6604 6.80725 17.3893C7.41347 16.9884 8.08547 16.6311 8.80281 16.3289C12.3033 14.9813 14.9379 12.5884 15.705 10.0738C15.8481 9.60356 16.3459 9.33689 16.8144 9.48267C17.2846 9.62578 17.5486 10.1227 17.4064 10.592C16.4828 13.6196 13.4419 16.4489 9.4677 17.9778C8.87658 18.2267 8.30325 18.5316 7.78858 18.872C7.63747 18.9724 7.4677 19.0196 7.29881 19.0196ZM2.81525 26.9636H2.7957C2.30503 26.9529 1.9157 26.5458 1.92547 26.056C1.96725 24.1324 2.2677 21.6862 4.23747 19.832C4.5957 19.4969 5.15836 19.5138 5.49436 19.8702C5.83125 20.2276 5.81347 20.7902 5.45703 21.1271C3.97614 22.52 3.7397 24.4196 3.70414 26.0942C3.69347 26.5778 3.29703 26.9636 2.81525 26.9636ZM6.48192 26.3333C6.40903 26.3333 6.33436 26.3244 6.26058 26.3058C5.78503 26.184 5.49792 25.6996 5.6197 25.224C6.11925 23.2764 7.2037 20.5333 10.8419 19.2027C11.3015 19.0356 11.8135 19.2711 11.9815 19.7324C12.1504 20.1938 11.913 20.704 11.4517 20.8729C8.63303 21.9031 7.77436 23.9751 7.34058 25.6658C7.24014 26.0667 6.87836 26.3333 6.48192 26.3333ZM22.1859 16.5191C21.8197 16.5191 21.4766 16.2907 21.3477 15.9262C21.1841 15.4631 21.4277 14.9556 21.8899 14.792C25.6935 13.4498 27.9779 10.8373 28.873 6.808C28.9797 6.328 29.457 6.03111 29.9335 6.13334C30.4126 6.24 30.7148 6.71467 30.609 7.19378C29.5833 11.8071 26.849 14.928 22.481 16.4693C22.3841 16.5022 22.2837 16.5191 22.1859 16.5191Z" fill="#C1694F"/>
<path d="M21.7412 13.2222C21.3884 13.2222 21.0532 13.0089 20.9146 12.6604C20.7341 12.2036 20.9572 11.6871 21.4141 11.5067C22.9448 10.9004 24.4168 9.49511 25.0764 8.00889C25.2764 7.56266 25.799 7.35822 26.2497 7.55733C26.6986 7.75733 26.8995 8.28177 26.7012 8.73066C25.8515 10.6427 24.0328 12.3813 22.0684 13.1591C21.9608 13.2027 21.8506 13.2222 21.7412 13.2222ZM13.9999 19.6302C13.6488 19.6302 13.3172 19.4222 13.1768 19.0773C12.991 18.6222 13.2097 18.104 13.6639 17.9182C14.5128 17.5716 15.423 16.7227 15.6781 16.2898C15.927 15.8667 16.4737 15.7253 16.895 15.9751C17.319 16.224 17.4595 16.7689 17.2097 17.192C16.7537 17.968 15.5528 19.0676 14.3359 19.5644C14.2257 19.6098 14.1119 19.6302 13.9999 19.6302ZM17.5555 8.37066C17.4595 8.37066 17.3599 8.35466 17.2639 8.32088C16.7999 8.16 16.5546 7.65333 16.7155 7.19022C17.071 6.16622 17.8124 5.18577 18.6035 4.69066C19.0204 4.43022 19.5688 4.55733 19.8284 4.97333C20.0888 5.38933 19.9617 5.93777 19.5466 6.19822C19.1724 6.432 18.6426 7.06311 18.3955 7.77333C18.2675 8.14044 17.9235 8.37066 17.5555 8.37066ZM5.73946 30.1467C5.30391 30.1467 4.92435 29.8284 4.86124 29.3849C4.80435 28.984 4.86124 28.2711 4.94835 27.8818C5.05502 27.4027 5.53413 27.1084 6.0088 27.2071C6.48791 27.3138 6.79013 27.7893 6.68346 28.2684C6.62657 28.5227 6.60346 29.0009 6.62213 29.1351C6.68968 29.6204 6.35102 30.0711 5.8648 30.1387C5.82213 30.144 5.78035 30.1467 5.73946 30.1467Z" fill="#C1694F"/>
</g>
<defs>
<clipPath id="clip0_2388_1960">
<rect width="32" height="32" fill="white"/>
</clipPath>
</defs>
</svg>
