<svg width="344" height="164" viewBox="0 0 344 164" fill="none" xmlns="http://www.w3.org/2000/svg">
<path d="M52 0V150" stroke="#E6E6E6"/>
<path d="M112 0V150" stroke="#E6E6E6"/>
<path d="M171 0V150" stroke="#E6E6E6"/>
<path d="M231 0V150" stroke="#E6E6E6"/>
<path d="M290 0V150" stroke="#E6E6E6"/>
<path d="M1.5 20.5H342.5" stroke="#BFDBB6" stroke-linecap="square" stroke-dasharray="2 4"/>
<path d="M2 130H343" stroke="#F2ADAB" stroke-linecap="square" stroke-dasharray="2 4"/>
<path d="M1 51.5H17L26 21L38.5 60.5L44 51.5H63.5L70 21H96L112.5 106.5H122.5L128.5 120.5L150 65H187.5L194 79.5L199.5 51.5L206.5 65L217.5 28H245L250.5 21H267L281 51.5H300L311.5 95H323.5L334 120.5L342 129" stroke="#434343" stroke-linecap="round"/>
<path d="M319.826 10.9824C320.681 10.9893 321.624 11.502 321.624 13.3271C321.624 15.084 320.906 16.0684 319.744 16.0684C318.876 16.0684 318.261 15.5352 318.138 14.749H318.746C318.855 15.1934 319.19 15.5215 319.744 15.5215C320.551 15.5215 321.043 14.8242 321.05 13.6211H320.981C320.694 14.0312 320.243 14.2773 319.717 14.2773C318.828 14.2773 318.097 13.6006 318.097 12.6436C318.097 11.7207 318.773 10.9756 319.826 10.9824ZM319.826 11.5225C319.177 11.5225 318.691 12.0283 318.698 12.6367C318.698 13.252 319.156 13.7373 319.806 13.7373C320.448 13.7373 320.954 13.2041 320.954 12.623C320.954 12.0557 320.482 11.5225 319.826 11.5225ZM322.349 14.9883V14.4824L324.577 11.0508H325.336V14.4482H326.026V14.9883H325.336V16H324.748V14.9883H322.349ZM323.012 14.4482H324.748V11.8301H324.687L323.012 14.4072V14.4482ZM327.394 15.542L326.86 17.4014H326.354L326.73 15.542H327.394ZM329.861 16.0684C328.761 16.0684 328.132 15.1455 328.132 13.5254C328.132 11.9189 328.774 10.9824 329.861 10.9824C330.948 10.9824 331.591 11.9189 331.591 13.5254C331.591 15.1455 330.955 16.0684 329.861 16.0684ZM329.861 15.5215C330.572 15.5215 330.989 14.8037 330.989 13.5254C330.989 12.2471 330.572 11.5156 329.861 11.5156C329.15 11.5156 328.727 12.2471 328.727 13.5254C328.727 14.8037 329.144 15.5215 329.861 15.5215ZM334.031 16.0684C332.931 16.0684 332.302 15.1455 332.302 13.5254C332.302 11.9189 332.944 10.9824 334.031 10.9824C335.118 10.9824 335.761 11.9189 335.761 13.5254C335.761 15.1455 335.125 16.0684 334.031 16.0684ZM334.031 15.5215C334.742 15.5215 335.159 14.8037 335.159 13.5254C335.159 12.2471 334.742 11.5156 334.031 11.5156C333.32 11.5156 332.896 12.2471 332.896 13.5254C332.896 14.8037 333.313 15.5215 334.031 15.5215ZM338.201 16.0684C337.101 16.0684 336.472 15.1455 336.472 13.5254C336.472 11.9189 337.114 10.9824 338.201 10.9824C339.288 10.9824 339.931 11.9189 339.931 13.5254C339.931 15.1455 339.295 16.0684 338.201 16.0684ZM338.201 15.5215C338.912 15.5215 339.329 14.8037 339.329 13.5254C339.329 12.2471 338.912 11.5156 338.201 11.5156C337.49 11.5156 337.066 12.2471 337.066 13.5254C337.066 14.8037 337.483 15.5215 338.201 15.5215Z" fill="#BFDBB6"/>
<path d="M319.871 139.068C319.009 139.055 318.066 138.549 318.066 136.717C318.066 134.967 318.784 133.982 319.946 133.982C320.814 133.982 321.422 134.516 321.552 135.295H320.944C320.828 134.857 320.5 134.529 319.946 134.529C319.132 134.529 318.647 135.227 318.647 136.416H318.708C318.996 136.006 319.447 135.76 319.98 135.76C320.862 135.76 321.593 136.443 321.593 137.4C321.593 138.33 320.91 139.075 319.871 139.068ZM319.871 138.528C320.513 138.528 320.992 138.022 320.999 137.407C320.992 136.799 320.534 136.3 319.884 136.3C319.235 136.3 318.736 136.826 318.729 137.414C318.729 137.995 319.208 138.528 319.871 138.528ZM322.441 139L322.434 138.549L324.123 136.771C324.71 136.149 324.991 135.814 324.991 135.356C324.991 134.851 324.56 134.516 324.006 134.516C323.418 134.516 323.042 134.892 323.042 135.445H322.461C322.455 134.57 323.131 133.982 324.027 133.982C324.922 133.982 325.565 134.584 325.565 135.356C325.565 135.91 325.305 136.341 324.43 137.243L323.295 138.412V138.453H325.654V139H322.441ZM327.329 138.542L326.795 140.401H326.29L326.666 138.542H327.329ZM329.851 139.068C328.812 139.068 328.087 138.494 328.094 137.688C328.087 137.045 328.532 136.519 329.099 136.43V136.402C328.607 136.286 328.286 135.835 328.286 135.295C328.286 134.536 328.949 133.982 329.851 133.982C330.753 133.982 331.417 134.536 331.423 135.295C331.417 135.835 331.088 136.286 330.603 136.402V136.43C331.164 136.519 331.608 137.045 331.615 137.688C331.608 138.494 330.883 139.068 329.851 139.068ZM329.851 138.528C330.562 138.528 331 138.173 331 137.653C331 137.106 330.514 136.703 329.851 136.703C329.188 136.703 328.696 137.106 328.709 137.653C328.696 138.173 329.14 138.528 329.851 138.528ZM329.851 136.184C330.412 136.184 330.822 135.842 330.822 135.343C330.822 134.851 330.432 134.516 329.851 134.516C329.263 134.516 328.88 134.851 328.88 135.343C328.88 135.842 329.284 136.184 329.851 136.184ZM334.062 139.068C332.961 139.068 332.333 138.146 332.333 136.525C332.333 134.919 332.975 133.982 334.062 133.982C335.149 133.982 335.792 134.919 335.792 136.525C335.792 138.146 335.156 139.068 334.062 139.068ZM334.062 138.521C334.773 138.521 335.19 137.804 335.19 136.525C335.19 135.247 334.773 134.516 334.062 134.516C333.351 134.516 332.927 135.247 332.927 136.525C332.927 137.804 333.344 138.521 334.062 138.521ZM338.232 139.068C337.131 139.068 336.502 138.146 336.502 136.525C336.502 134.919 337.145 133.982 338.232 133.982C339.319 133.982 339.961 134.919 339.961 136.525C339.961 138.146 339.326 139.068 338.232 139.068ZM338.232 138.521C338.943 138.521 339.36 137.804 339.36 136.525C339.36 135.247 338.943 134.516 338.232 134.516C337.521 134.516 337.097 135.247 337.097 136.525C337.097 137.804 337.514 138.521 338.232 138.521Z" fill="#F2ADAB"/>
<path d="M48.7837 159.068C47.9224 159.055 46.979 158.549 46.979 156.717C46.979 154.967 47.6968 153.982 48.8589 153.982C49.7271 153.982 50.3354 154.516 50.4653 155.295H49.8569C49.7407 154.857 49.4126 154.529 48.8589 154.529C48.0454 154.529 47.5601 155.227 47.5601 156.416H47.6216C47.9087 156.006 48.3599 155.76 48.8931 155.76C49.7749 155.76 50.5063 156.443 50.5063 157.4C50.5063 158.33 49.8228 159.075 48.7837 159.068ZM48.7837 158.528C49.4263 158.528 49.9048 158.022 49.9116 157.407C49.9048 156.799 49.4468 156.3 48.7974 156.3C48.1479 156.3 47.6489 156.826 47.6421 157.414C47.6421 157.995 48.1206 158.528 48.7837 158.528ZM53.1245 153.818L51.5249 159.745H50.9917L52.5845 153.818H53.1245ZM55.3052 159.068C54.4097 159.068 53.7329 158.515 53.6987 157.756H54.2935C54.3413 158.2 54.772 158.528 55.3052 158.528C55.9478 158.528 56.4126 158.057 56.4126 157.435C56.4126 156.792 55.9272 156.32 55.2642 156.313C54.8472 156.307 54.5259 156.437 54.3413 156.758H53.7466L54.0952 154.051H56.7749V154.598H54.6079L54.4233 156.047H54.4712C54.6899 155.876 55.0249 155.76 55.3735 155.76C56.3169 155.76 57.0142 156.457 57.0142 157.421C57.0142 158.378 56.2896 159.068 55.3052 159.068Z" fill="#848484"/>
<path d="M107.252 159.068C106.391 159.055 105.448 158.549 105.448 156.717C105.448 154.967 106.166 153.982 107.328 153.982C108.196 153.982 108.804 154.516 108.934 155.295H108.326C108.209 154.857 107.881 154.529 107.328 154.529C106.514 154.529 106.029 155.227 106.029 156.416H106.09C106.377 156.006 106.829 155.76 107.362 155.76C108.244 155.76 108.975 156.443 108.975 157.4C108.975 158.33 108.292 159.075 107.252 159.068ZM107.252 158.528C107.895 158.528 108.374 158.022 108.38 157.407C108.374 156.799 107.916 156.3 107.266 156.3C106.617 156.3 106.118 156.826 106.111 157.414C106.111 157.995 106.589 158.528 107.252 158.528ZM111.593 153.818L109.994 159.745H109.46L111.053 153.818H111.593ZM113.911 154.051V159H113.289V154.693H113.261L112.058 155.493V154.871L113.289 154.051H113.911ZM116.85 159.068C115.75 159.068 115.121 158.146 115.121 156.525C115.121 154.919 115.763 153.982 116.85 153.982C117.937 153.982 118.58 154.919 118.58 156.525C118.58 158.146 117.944 159.068 116.85 159.068ZM116.85 158.521C117.561 158.521 117.978 157.804 117.978 156.525C117.978 155.247 117.561 154.516 116.85 154.516C116.139 154.516 115.715 155.247 115.715 156.525C115.715 157.804 116.132 158.521 116.85 158.521Z" fill="#848484"/>
<path d="M166.249 159.068C165.388 159.055 164.444 158.549 164.444 156.717C164.444 154.967 165.162 153.982 166.324 153.982C167.192 153.982 167.801 154.516 167.931 155.295H167.322C167.206 154.857 166.878 154.529 166.324 154.529C165.511 154.529 165.025 155.227 165.025 156.416H165.087C165.374 156.006 165.825 155.76 166.358 155.76C167.24 155.76 167.972 156.443 167.972 157.4C167.972 158.33 167.288 159.075 166.249 159.068ZM166.249 158.528C166.892 158.528 167.37 158.022 167.377 157.407C167.37 156.799 166.912 156.3 166.263 156.3C165.613 156.3 165.114 156.826 165.107 157.414C165.107 157.995 165.586 158.528 166.249 158.528ZM170.59 153.818L168.99 159.745H168.457L170.05 153.818H170.59ZM172.907 154.051V159H172.285V154.693H172.258L171.055 155.493V154.871L172.285 154.051H172.907ZM175.84 159.068C174.944 159.068 174.268 158.515 174.233 157.756H174.828C174.876 158.2 175.307 158.528 175.84 158.528C176.482 158.528 176.947 158.057 176.947 157.435C176.947 156.792 176.462 156.32 175.799 156.313C175.382 156.307 175.061 156.437 174.876 156.758H174.281L174.63 154.051H177.31V154.598H175.143L174.958 156.047H175.006C175.225 155.876 175.56 155.76 175.908 155.76C176.852 155.76 177.549 156.457 177.549 157.421C177.549 158.378 176.824 159.068 175.84 159.068Z" fill="#848484"/>
<path d="M225.733 159.068C224.872 159.055 223.928 158.549 223.928 156.717C223.928 154.967 224.646 153.982 225.808 153.982C226.676 153.982 227.285 154.516 227.415 155.295H226.806C226.69 154.857 226.362 154.529 225.808 154.529C224.995 154.529 224.509 155.227 224.509 156.416H224.571C224.858 156.006 225.309 155.76 225.842 155.76C226.724 155.76 227.456 156.443 227.456 157.4C227.456 158.33 226.772 159.075 225.733 159.068ZM225.733 158.528C226.375 158.528 226.854 158.022 226.861 157.407C226.854 156.799 226.396 156.3 225.747 156.3C225.097 156.3 224.598 156.826 224.591 157.414C224.591 157.995 225.07 158.528 225.733 158.528ZM230.074 153.818L228.474 159.745H227.941L229.534 153.818H230.074ZM230.641 159L230.634 158.549L232.323 156.771C232.911 156.149 233.191 155.814 233.191 155.356C233.191 154.851 232.76 154.516 232.207 154.516C231.619 154.516 231.243 154.892 231.243 155.445H230.662C230.655 154.57 231.332 153.982 232.227 153.982C233.123 153.982 233.765 154.584 233.765 155.356C233.765 155.91 233.505 156.341 232.63 157.243L231.496 158.412V158.453H233.854V159H230.641ZM236.37 159.068C235.269 159.068 234.64 158.146 234.64 156.525C234.64 154.919 235.283 153.982 236.37 153.982C237.457 153.982 238.099 154.919 238.099 156.525C238.099 158.146 237.463 159.068 236.37 159.068ZM236.37 158.521C237.081 158.521 237.498 157.804 237.498 156.525C237.498 155.247 237.081 154.516 236.37 154.516C235.659 154.516 235.235 155.247 235.235 156.525C235.235 157.804 235.652 158.521 236.37 158.521Z" fill="#848484"/>
<path d="M284.729 159.068C283.868 159.055 282.925 158.549 282.925 156.717C282.925 154.967 283.643 153.982 284.805 153.982C285.673 153.982 286.281 154.516 286.411 155.295H285.803C285.687 154.857 285.358 154.529 284.805 154.529C283.991 154.529 283.506 155.227 283.506 156.416H283.567C283.854 156.006 284.306 155.76 284.839 155.76C285.721 155.76 286.452 156.443 286.452 157.4C286.452 158.33 285.769 159.075 284.729 159.068ZM284.729 158.528C285.372 158.528 285.851 158.022 285.857 157.407C285.851 156.799 285.393 156.3 284.743 156.3C284.094 156.3 283.595 156.826 283.588 157.414C283.588 157.995 284.066 158.528 284.729 158.528ZM289.07 153.818L287.471 159.745H286.938L288.53 153.818H289.07ZM289.638 159L289.631 158.549L291.319 156.771C291.907 156.149 292.188 155.814 292.188 155.356C292.188 154.851 291.757 154.516 291.203 154.516C290.615 154.516 290.239 154.892 290.239 155.445H289.658C289.651 154.57 290.328 153.982 291.224 153.982C292.119 153.982 292.762 154.584 292.762 155.356C292.762 155.91 292.502 156.341 291.627 157.243L290.492 158.412V158.453H292.851V159H289.638ZM295.359 159.068C294.464 159.068 293.787 158.515 293.753 157.756H294.348C294.396 158.2 294.826 158.528 295.359 158.528C296.002 158.528 296.467 158.057 296.467 157.435C296.467 156.792 295.981 156.32 295.318 156.313C294.901 156.307 294.58 156.437 294.396 156.758H293.801L294.149 154.051H296.829V154.598H294.662L294.478 156.047H294.525C294.744 155.876 295.079 155.76 295.428 155.76C296.371 155.76 297.068 156.457 297.068 157.421C297.068 158.378 296.344 159.068 295.359 159.068Z" fill="#848484"/>
</svg>
