<svg width="324" height="77" viewBox="0 0 324 77" fill="none" xmlns="http://www.w3.org/2000/svg">
<path d="M91.5921 15.49V13.11H86.2371V11.886L92.1361 3.641H93.5641V11.563H95.2811V13.11H93.5641V15.49H91.5921ZM88.5151 11.563H91.6091V7.177L88.5151 11.563ZM96.9116 15.575V13.586H98.9856V15.575H96.9116ZM100.957 15.303V14.079L103.184 11.733C104.17 10.6903 104.901 9.829 105.377 9.149C105.853 8.45767 106.091 7.78333 106.091 7.126C106.091 6.43467 105.904 5.936 105.53 5.63C105.168 5.324 104.607 5.171 103.847 5.171C103.099 5.171 102.295 5.43167 101.433 5.953L101.093 4.406C102.102 3.81667 103.207 3.522 104.408 3.522C105.666 3.522 106.624 3.811 107.281 4.389C107.939 4.967 108.267 5.78867 108.267 6.854C108.267 7.34133 108.177 7.83433 107.995 8.333C107.825 8.82033 107.553 9.319 107.179 9.829C106.805 10.3277 106.477 10.7357 106.193 11.053C105.921 11.359 105.547 11.7613 105.071 12.26L103.694 13.671H108.369V15.303H100.957Z" fill="black"/>
<path d="M126.655 3.63768C126.228 2.62143 124.772 2.62143 124.344 3.63768L123.248 6.24205L120.403 6.46768C119.294 6.55518 118.844 7.92455 119.689 8.6408L121.857 10.4764L121.194 13.2214C120.936 14.2921 122.114 15.1383 123.064 14.5646L125.5 13.0939L127.935 14.5652C128.885 15.1389 130.064 14.2927 129.805 13.2214L129.143 10.4777L131.31 8.64143C132.156 7.92518 131.706 6.55643 130.597 6.4683L127.752 6.2433L126.655 3.63768Z" fill="#FFEBAF"/>
<path d="M143.655 3.63768C143.228 2.62143 141.772 2.62143 141.344 3.63768L140.248 6.24205L137.403 6.46768C136.294 6.55518 135.844 7.92455 136.689 8.6408L138.857 10.4764L138.194 13.2214C137.936 14.2921 139.114 15.1383 140.064 14.5646L142.5 13.0939L144.935 14.5652C145.885 15.1389 147.064 14.2927 146.805 13.2214L146.143 10.4777L148.31 8.64143C149.156 7.92518 148.706 6.55643 147.597 6.4683L144.752 6.2433L143.655 3.63768Z" fill="#FFEBAF"/>
<path d="M160.655 3.63768C160.228 2.62143 158.772 2.62143 158.344 3.63768L157.248 6.24205L154.403 6.46768C153.294 6.55518 152.844 7.92455 153.689 8.6408L155.857 10.4764L155.194 13.2214C154.936 14.2921 156.114 15.1383 157.064 14.5646L159.5 13.0939L161.935 14.5652C162.885 15.1389 164.064 14.2927 163.805 13.2214L163.143 10.4777L165.31 8.64143C166.156 7.92518 165.706 6.55643 164.597 6.4683L161.752 6.2433L160.655 3.63768Z" fill="#FFEBAF"/>
<path d="M177.655 3.63768C177.228 2.62143 175.772 2.62143 175.344 3.63768L174.248 6.24205L171.403 6.46768C170.294 6.55518 169.844 7.92455 170.689 8.6408L172.857 10.4764L172.194 13.2214C171.936 14.2921 173.114 15.1383 174.064 14.5646L176.5 13.0939L178.935 14.5652C179.885 15.1389 181.064 14.2927 180.805 13.2214L180.143 10.4777L182.31 8.64143C183.156 7.92518 182.706 6.55643 181.597 6.4683L178.752 6.2433L177.655 3.63768Z" fill="#FFEBAF"/>
<path d="M194.655 3.63768C194.228 2.62143 192.772 2.62143 192.344 3.63768L191.248 6.24205L188.403 6.46768C187.294 6.55518 186.844 7.92455 187.689 8.6408L189.857 10.4764L189.194 13.2214C188.936 14.2921 190.114 15.1383 191.064 14.5646L193.5 13.0939L195.935 14.5652C196.885 15.1389 198.064 14.2927 197.805 13.2214L197.143 10.4777L199.31 8.64143C200.156 7.92518 199.706 6.55643 198.597 6.4683L195.752 6.2433L194.655 3.63768Z" fill="#F7F7F7"/>
<path d="M208.155 10.4961C208.168 8.09668 208.815 6.10352 209.983 4.41504H210.948C210.085 5.67188 209.285 8.23633 209.285 10.4961C209.285 12.7559 210.085 15.333 210.948 16.5898H209.983C208.815 14.8887 208.168 12.8955 208.155 10.4961ZM215.468 14.127C213.64 14.127 212.332 13.1494 212.269 11.6895H213.424C213.487 12.5654 214.363 13.1113 215.455 13.1113C216.661 13.1113 217.55 12.4512 217.55 11.499C217.55 10.4961 216.75 9.78516 215.315 9.78516H214.566V8.78223H215.315C216.433 8.78223 217.207 8.16016 217.207 7.20801C217.207 6.29395 216.534 5.67188 215.493 5.67188C214.516 5.67188 213.614 6.21777 213.563 7.11914H212.459C212.522 5.65918 213.868 4.68164 215.506 4.68164C217.258 4.68164 218.324 5.82422 218.312 7.14453C218.324 8.18555 217.715 8.95996 216.75 9.22656V9.29004C217.943 9.48047 218.68 10.3311 218.667 11.499C218.68 13.0098 217.296 14.127 215.468 14.127ZM223.313 14.127C221.65 14.127 220.394 13.0986 220.33 11.6895H221.435C221.523 12.5146 222.323 13.124 223.313 13.124C224.507 13.124 225.37 12.248 225.37 11.0928C225.37 9.89941 224.469 9.02344 223.237 9.01074C222.463 8.99805 221.866 9.23926 221.523 9.83594H220.419L221.066 4.80859H226.043V5.82422H222.019L221.676 8.51562H221.765C222.171 8.19824 222.793 7.98242 223.44 7.98242C225.192 7.98242 226.487 9.27734 226.487 11.0674C226.487 12.8447 225.142 14.127 223.313 14.127ZM231.146 14.127C229.217 14.127 227.871 13.0605 227.884 11.5625C227.871 10.3691 228.696 9.3916 229.75 9.22656V9.17578C228.836 8.95996 228.239 8.12207 228.239 7.11914C228.239 5.70996 229.471 4.68164 231.146 4.68164C232.822 4.68164 234.054 5.70996 234.066 7.11914C234.054 8.12207 233.444 8.95996 232.543 9.17578V9.22656C233.584 9.3916 234.409 10.3691 234.422 11.5625C234.409 13.0605 233.063 14.127 231.146 14.127ZM231.146 13.124C232.467 13.124 233.279 12.4639 233.279 11.499C233.279 10.4834 232.378 9.73438 231.146 9.73438C229.915 9.73438 229.001 10.4834 229.026 11.499C229.001 12.4639 229.826 13.124 231.146 13.124ZM231.146 8.76953C232.188 8.76953 232.949 8.13477 232.949 7.20801C232.949 6.29395 232.226 5.67188 231.146 5.67188C230.055 5.67188 229.344 6.29395 229.344 7.20801C229.344 8.13477 230.093 8.76953 231.146 8.76953ZM238.37 10.4961C238.357 12.8955 237.71 14.8887 236.542 16.5898H235.577C236.44 15.333 237.24 12.7559 237.24 10.4961C237.24 8.23633 236.44 5.67188 235.577 4.41504H236.542C237.71 6.10352 238.357 8.09668 238.37 10.4961Z" fill="#CAC8C8"/>
<path d="M2.96875 42.0977C1.68945 42.0977 0.722656 41.3066 0.673828 40.2227H1.52344C1.5918 40.8574 2.20703 41.3262 2.96875 41.3262C3.88672 41.3262 4.55078 40.6523 4.55078 39.7637C4.55078 38.8457 3.85742 38.1719 2.91016 38.1621C2.31445 38.1523 1.85547 38.3379 1.5918 38.7969H0.742188L1.24023 34.9297H5.06836V35.7109H1.97266L1.70898 37.7812H1.77734C2.08984 37.5371 2.56836 37.3711 3.06641 37.3711C4.41406 37.3711 5.41016 38.3672 5.41016 39.7441C5.41016 41.1113 4.375 42.0977 2.96875 42.0977ZM13.5156 34.1094V39.1973H12.7441V36.9316H10.9863V36.2871H12.7441V34.1094H13.5156ZM13.5156 39.627V42.6738H7.8418V39.627H13.5156ZM8.60352 40.2422V42.0488H12.7637V40.2422H8.60352ZM9.33594 35.6523C9.33594 36.7754 10.2051 37.8594 11.4746 38.3086L11.0742 38.9141C10.0928 38.5625 9.33594 37.8301 8.96484 36.9316C8.58887 37.9326 7.78809 38.7334 6.75781 39.1094L6.35742 38.5039C7.63672 38.0449 8.56445 36.8926 8.56445 35.6523V35.3105H6.60156V34.6758H11.2793V35.3105H9.33594V35.6523Z" fill="black"/>
<path d="M131.5 42.0781C130.516 42.0625 129.438 41.4844 129.438 39.3906C129.438 37.3906 130.258 36.2656 131.586 36.2656C132.578 36.2656 133.273 36.875 133.422 37.7656H132.727C132.594 37.2656 132.219 36.8906 131.586 36.8906C130.656 36.8906 130.102 37.6875 130.102 39.0469H130.172C130.5 38.5781 131.016 38.2969 131.625 38.2969C132.633 38.2969 133.469 39.0781 133.469 40.1719C133.469 41.2344 132.688 42.0859 131.5 42.0781ZM131.5 41.4609C132.234 41.4609 132.781 40.8828 132.789 40.1797C132.781 39.4844 132.258 38.9141 131.516 38.9141C130.773 38.9141 130.203 39.5156 130.195 40.1875C130.195 40.8516 130.742 41.4609 131.5 41.4609ZM134.438 42L134.43 41.4844L136.359 39.4531C137.031 38.7422 137.352 38.3594 137.352 37.8359C137.352 37.2578 136.859 36.875 136.227 36.875C135.555 36.875 135.125 37.3047 135.125 37.9375H134.461C134.453 36.9375 135.227 36.2656 136.25 36.2656C137.273 36.2656 138.008 36.9531 138.008 37.8359C138.008 38.4688 137.711 38.9609 136.711 39.9922L135.414 41.3281V41.375H138.109V42H134.438ZM140.328 38.9688C139.594 38.9688 139.195 38.4219 139.195 37.6094C139.195 36.8125 139.609 36.2578 140.328 36.2578C141.07 36.2578 141.461 36.8125 141.461 37.6094C141.461 38.4219 141.055 38.9688 140.328 38.9688ZM140.328 38.4844C140.711 38.4844 140.891 38.1406 140.891 37.6094C140.891 37.0859 140.727 36.7344 140.328 36.7422C139.953 36.7422 139.766 37.0859 139.766 37.6094C139.766 38.1406 139.953 38.4844 140.328 38.4844ZM143.781 42.0781C143.047 42.0859 142.641 41.5312 142.648 40.7266C142.641 39.9219 143.062 39.3672 143.781 39.3672C144.516 39.3672 144.906 39.9219 144.906 40.7266C144.906 41.5312 144.5 42.0859 143.781 42.0781ZM143.781 41.5938C144.156 41.5938 144.336 41.25 144.336 40.7266C144.336 40.1953 144.172 39.8438 143.781 39.8516C143.406 39.8594 143.211 40.1953 143.211 40.7266C143.211 41.25 143.398 41.5938 143.781 41.5938ZM139.75 42L143.641 36.3438H144.273L140.383 42H139.75Z" fill="black"/>
<rect x="24" y="35" width="100" height="7" rx="3.5" fill="#F7F7F7"/>
<path d="M0.488281 56.5547V55.832L3.67188 50.9297H4.75586V55.7832H5.74219V56.5547H4.75586V58H3.91602V56.5547H0.488281ZM1.43555 55.7832H3.91602V52.043H3.82812L1.43555 55.7246V55.7832ZM13.7891 50.1094V55.1973H13.0176V52.9316H11.2598V52.2871H13.0176V50.1094H13.7891ZM13.7891 55.627V58.6738H8.11523V55.627H13.7891ZM8.87695 56.2422V58.0488H13.0371V56.2422H8.87695ZM9.60938 51.6523C9.60938 52.7754 10.4785 53.8594 11.748 54.3086L11.3477 54.9141C10.3662 54.5625 9.60938 53.8301 9.23828 52.9316C8.8623 53.9326 8.06152 54.7334 7.03125 55.1094L6.63086 54.5039C7.91016 54.0449 8.83789 52.8926 8.83789 51.6523V51.3105H6.875V50.6758H11.5527V51.3105H9.60938V51.6523Z" fill="black"/>
<path d="M129.531 58L129.523 57.4844L131.453 55.4531C132.125 54.7422 132.445 54.3594 132.445 53.8359C132.445 53.2578 131.953 52.875 131.32 52.875C130.648 52.875 130.219 53.3047 130.219 53.9375H129.555C129.547 52.9375 130.32 52.2656 131.344 52.2656C132.367 52.2656 133.102 52.9531 133.102 53.8359C133.102 54.4688 132.805 54.9609 131.805 55.9922L130.508 57.3281V57.375H133.203V58H129.531ZM133.961 56.8438V56.2656L136.508 52.3438H137.375V56.2266H138.164V56.8438H137.375V58H136.703V56.8438H133.961ZM134.719 56.2266H136.703V53.2344H136.633L134.719 56.1797V56.2266ZM140.289 54.9688C139.555 54.9688 139.156 54.4219 139.156 53.6094C139.156 52.8125 139.57 52.2578 140.289 52.2578C141.031 52.2578 141.422 52.8125 141.422 53.6094C141.422 54.4219 141.016 54.9688 140.289 54.9688ZM140.289 54.4844C140.672 54.4844 140.852 54.1406 140.852 53.6094C140.852 53.0859 140.688 52.7344 140.289 52.7422C139.914 52.7422 139.727 53.0859 139.727 53.6094C139.727 54.1406 139.914 54.4844 140.289 54.4844ZM143.742 58.0781C143.008 58.0859 142.602 57.5312 142.609 56.7266C142.602 55.9219 143.023 55.3672 143.742 55.3672C144.477 55.3672 144.867 55.9219 144.867 56.7266C144.867 57.5312 144.461 58.0859 143.742 58.0781ZM143.742 57.5938C144.117 57.5938 144.297 57.25 144.297 56.7266C144.297 56.1953 144.133 55.8438 143.742 55.8516C143.367 55.8594 143.172 56.1953 143.172 56.7266C143.172 57.25 143.359 57.5938 143.742 57.5938ZM139.711 58L143.602 52.3438H144.234L140.344 58H139.711Z" fill="black"/>
<rect x="24" y="51" width="100" height="7" rx="3.5" fill="#F7F7F7"/>
<path d="M3.10547 74.0977C1.69922 74.0977 0.693359 73.3457 0.644531 72.2227H1.5332C1.58203 72.8965 2.25586 73.3164 3.0957 73.3164C4.02344 73.3164 4.70703 72.8086 4.70703 72.0762C4.70703 71.3047 4.0918 70.7578 2.98828 70.7578H2.41211V69.9863H2.98828C3.84766 69.9863 4.44336 69.5078 4.44336 68.7754C4.44336 68.0723 3.92578 67.5938 3.125 67.5938C2.37305 67.5938 1.67969 68.0137 1.64062 68.707H0.791016C0.839844 67.584 1.875 66.832 3.13477 66.832C4.48242 66.832 5.30273 67.7109 5.29297 68.7266C5.30273 69.5273 4.83398 70.123 4.0918 70.3281V70.377C5.00977 70.5234 5.57617 71.1777 5.56641 72.0762C5.57617 73.2383 4.51172 74.0977 3.10547 74.0977ZM13.7207 66.1094V71.1973H12.9492V68.9316H11.1914V68.2871H12.9492V66.1094H13.7207ZM13.7207 71.627V74.6738H8.04688V71.627H13.7207ZM8.80859 72.2422V74.0488H12.9688V72.2422H8.80859ZM9.54102 67.6523C9.54102 68.7754 10.4102 69.8594 11.6797 70.3086L11.2793 70.9141C10.2979 70.5625 9.54102 69.8301 9.16992 68.9316C8.79395 69.9326 7.99316 70.7334 6.96289 71.1094L6.5625 70.5039C7.8418 70.0449 8.76953 68.8926 8.76953 67.6523V67.3105H6.80664V66.6758H11.4844V67.3105H9.54102V67.6523Z" fill="black"/>
<path d="M129.391 72.8438V72.2656L131.938 68.3438H132.805V72.2266H133.594V72.8438H132.805V74H132.133V72.8438H129.391ZM130.148 72.2266H132.133V69.2344H132.062L130.148 72.1797V72.2266ZM135.719 70.9688C134.984 70.9688 134.586 70.4219 134.586 69.6094C134.586 68.8125 135 68.2578 135.719 68.2578C136.461 68.2578 136.852 68.8125 136.852 69.6094C136.852 70.4219 136.445 70.9688 135.719 70.9688ZM135.719 70.4844C136.102 70.4844 136.281 70.1406 136.281 69.6094C136.281 69.0859 136.117 68.7344 135.719 68.7422C135.344 68.7422 135.156 69.0859 135.156 69.6094C135.156 70.1406 135.344 70.4844 135.719 70.4844ZM139.172 74.0781C138.438 74.0859 138.031 73.5312 138.039 72.7266C138.031 71.9219 138.453 71.3672 139.172 71.3672C139.906 71.3672 140.297 71.9219 140.297 72.7266C140.297 73.5312 139.891 74.0859 139.172 74.0781ZM139.172 73.5938C139.547 73.5938 139.727 73.25 139.727 72.7266C139.727 72.1953 139.562 71.8438 139.172 71.8516C138.797 71.8594 138.602 72.1953 138.602 72.7266C138.602 73.25 138.789 73.5938 139.172 73.5938ZM135.141 74L139.031 68.3438H139.664L135.773 74H135.141Z" fill="black"/>
<rect x="24" y="67" width="100" height="7" rx="3.5" fill="#F7F7F7"/>
<path d="M172.664 42L172.654 41.3555L175.066 38.8164C175.906 37.9277 176.307 37.4492 176.307 36.7949C176.307 36.0723 175.691 35.5938 174.9 35.5938C174.061 35.5938 173.523 36.1309 173.523 36.9219H172.693C172.684 35.6719 173.65 34.832 174.93 34.832C176.209 34.832 177.127 35.6914 177.127 36.7949C177.127 37.5859 176.756 38.2012 175.506 39.4902L173.885 41.1602V41.2188H177.254V42H172.664ZM185.418 34.1094V39.1973H184.646V36.9316H182.889V36.2871H184.646V34.1094H185.418ZM185.418 39.627V42.6738H179.744V39.627H185.418ZM180.506 40.2422V42.0488H184.666V40.2422H180.506ZM181.238 35.6523C181.238 36.7754 182.107 37.8594 183.377 38.3086L182.977 38.9141C181.995 38.5625 181.238 37.8301 180.867 36.9316C180.491 37.9326 179.69 38.7334 178.66 39.1094L178.26 38.5039C179.539 38.0449 180.467 36.8926 180.467 35.6523V35.3105H178.504V34.6758H183.182V35.3105H181.238V35.6523Z" fill="black"/>
<path d="M301.531 42L301.523 41.4844L303.453 39.4531C304.125 38.7422 304.445 38.3594 304.445 37.8359C304.445 37.2578 303.953 36.875 303.32 36.875C302.648 36.875 302.219 37.3047 302.219 37.9375H301.555C301.547 36.9375 302.32 36.2656 303.344 36.2656C304.367 36.2656 305.102 36.9531 305.102 37.8359C305.102 38.4688 304.805 38.9609 303.805 39.9922L302.508 41.3281V41.375H305.203V42H301.531ZM307.422 38.9688C306.688 38.9688 306.289 38.4219 306.289 37.6094C306.289 36.8125 306.703 36.2578 307.422 36.2578C308.164 36.2578 308.555 36.8125 308.555 37.6094C308.555 38.4219 308.148 38.9688 307.422 38.9688ZM307.422 38.4844C307.805 38.4844 307.984 38.1406 307.984 37.6094C307.984 37.0859 307.82 36.7344 307.422 36.7422C307.047 36.7422 306.859 37.0859 306.859 37.6094C306.859 38.1406 307.047 38.4844 307.422 38.4844ZM310.875 42.0781C310.141 42.0859 309.734 41.5312 309.742 40.7266C309.734 39.9219 310.156 39.3672 310.875 39.3672C311.609 39.3672 312 39.9219 312 40.7266C312 41.5312 311.594 42.0859 310.875 42.0781ZM310.875 41.5938C311.25 41.5938 311.43 41.25 311.43 40.7266C311.43 40.1953 311.266 39.8438 310.875 39.8516C310.5 39.8594 310.305 40.1953 310.305 40.7266C310.305 41.25 310.492 41.5938 310.875 41.5938ZM306.844 42L310.734 36.3438H311.367L307.477 42H306.844Z" fill="black"/>
<rect x="196" y="35" width="100" height="7" rx="3.5" fill="#F7F7F7"/>
<path d="M175.164 50.9297V58H174.275V51.8477H174.236L172.518 52.9902V52.1016L174.275 50.9297H175.164ZM183.934 50.1094V55.1973H183.162V52.9316H181.404V52.2871H183.162V50.1094H183.934ZM183.934 55.627V58.6738H178.26V55.627H183.934ZM179.021 56.2422V58.0488H183.182V56.2422H179.021ZM179.754 51.6523C179.754 52.7754 180.623 53.8594 181.893 54.3086L181.492 54.9141C180.511 54.5625 179.754 53.8301 179.383 52.9316C179.007 53.9326 178.206 54.7334 177.176 55.1094L176.775 54.5039C178.055 54.0449 178.982 52.8926 178.982 51.6523V51.3105H177.02V50.6758H181.697V51.3105H179.754V51.6523Z" fill="black"/>
<path d="M303.422 58.0781C302.234 58.0781 301.406 57.4219 301.414 56.5C301.406 55.7656 301.914 55.1641 302.562 55.0625V55.0312C302 54.8984 301.633 54.3828 301.633 53.7656C301.633 52.8984 302.391 52.2656 303.422 52.2656C304.453 52.2656 305.211 52.8984 305.219 53.7656C305.211 54.3828 304.836 54.8984 304.281 55.0312V55.0625C304.922 55.1641 305.43 55.7656 305.438 56.5C305.43 57.4219 304.602 58.0781 303.422 58.0781ZM303.422 57.4609C304.234 57.4609 304.734 57.0547 304.734 56.4609C304.734 55.8359 304.18 55.375 303.422 55.375C302.664 55.375 302.102 55.8359 302.117 56.4609C302.102 57.0547 302.609 57.4609 303.422 57.4609ZM303.422 54.7812C304.062 54.7812 304.531 54.3906 304.531 53.8203C304.531 53.2578 304.086 52.875 303.422 52.875C302.75 52.875 302.312 53.2578 302.312 53.8203C302.312 54.3906 302.773 54.7812 303.422 54.7812ZM307.578 54.9688C306.844 54.9688 306.445 54.4219 306.445 53.6094C306.445 52.8125 306.859 52.2578 307.578 52.2578C308.32 52.2578 308.711 52.8125 308.711 53.6094C308.711 54.4219 308.305 54.9688 307.578 54.9688ZM307.578 54.4844C307.961 54.4844 308.141 54.1406 308.141 53.6094C308.141 53.0859 307.977 52.7344 307.578 52.7422C307.203 52.7422 307.016 53.0859 307.016 53.6094C307.016 54.1406 307.203 54.4844 307.578 54.4844ZM311.031 58.0781C310.297 58.0859 309.891 57.5312 309.898 56.7266C309.891 55.9219 310.312 55.3672 311.031 55.3672C311.766 55.3672 312.156 55.9219 312.156 56.7266C312.156 57.5312 311.75 58.0859 311.031 58.0781ZM311.031 57.5938C311.406 57.5938 311.586 57.25 311.586 56.7266C311.586 56.1953 311.422 55.8438 311.031 55.8516C310.656 55.8594 310.461 56.1953 310.461 56.7266C310.461 57.25 310.648 57.5938 311.031 57.5938ZM307 58L310.891 52.3438H311.523L307.633 58H307Z" fill="black"/>
<rect x="196" y="51" width="100" height="7" rx="3.5" fill="#F7F7F7"/>
<path d="M91 42H27.5C25.567 42 24 40.433 24 38.5C24 36.567 25.567 35 27.5 35H91V42Z" fill="#FFEBAF"/>
<path d="M51 58H27.5C25.567 58 24 56.433 24 54.5C24 52.567 25.567 51 27.5 51H51V58Z" fill="#FFEBAF"/>
<path d="M33 74H27.5C25.567 74 24 72.433 24 70.5C24 68.567 25.567 67 27.5 67H33V74Z" fill="#FFEBAF"/>
<path d="M201 42H199.5C197.567 42 196 40.433 196 38.5C196 36.567 197.567 35 199.5 35H201V42Z" fill="#FFEBAF"/>
<path d="M210 58H199.5C197.567 58 196 56.433 196 54.5C196 52.567 197.567 51 199.5 51H210V58Z" fill="#FFEBAF"/>
</svg>
