<svg width="37" height="37" viewBox="0 0 37 37" fill="none" xmlns="http://www.w3.org/2000/svg">
<path d="M36.6301 19.5073C36.6301 20.0642 36.1798 20.5145 35.6228 20.5145H34.6156C34.0587 20.5145 33.6084 20.0642 33.6084 19.5073V13.4639C33.6084 12.907 34.0587 12.4567 34.6156 12.4567H35.6228C36.1798 12.4567 36.6301 12.907 36.6301 13.4639V19.5073Z" fill="#292F33"/>
<path d="M5.40574 26.5578H31.5935C32.6007 26.5578 34.6152 25.5506 34.6152 22.5289C34.6152 20.5144 34.6152 14.4711 33.608 13.4639C32.6007 12.4567 33.608 6.41333 29.5791 6.41333H15.478C12.4563 6.41333 9.43463 13.4639 9.43463 13.4639L5.40574 14.4711C5.40574 14.4711 1.37685 15.4783 1.37685 18.5V21.5217C1.37685 21.5217 0.369629 21.8621 0.369629 23.4928C0.369629 25.1236 1.37685 25.5506 1.37685 25.5506L5.40574 26.5578Z" fill="#3B88C3"/>
<path d="M5.40625 26.5578C5.40625 29.6592 8.76369 31.5976 11.4496 30.0469C12.6962 29.3272 13.464 27.9972 13.464 26.5578C13.464 23.4564 10.1066 21.518 7.42069 23.0687C6.1741 23.7883 5.40625 25.1184 5.40625 26.5578Z" fill="#292F33"/>
<path d="M7.4209 26.5578C7.4209 28.1085 9.09957 29.0777 10.4426 28.3023C11.0658 27.9425 11.4498 27.2774 11.4498 26.5578C11.4498 25.0071 9.77112 24.0379 8.42812 24.8132C7.80488 25.1731 7.4209 25.8381 7.4209 26.5578Z" fill="#CCD6DD"/>
<path d="M23.5361 26.5578C23.5361 29.6592 26.8936 31.5976 29.5795 30.0469C30.8261 29.3272 31.5939 27.9972 31.5939 26.5578C31.5939 23.4564 28.2365 21.518 25.5506 23.0687C24.304 23.7883 23.5361 25.1184 23.5361 26.5578Z" fill="#292F33"/>
<path d="M25.5503 26.5578C25.5503 28.1085 27.229 29.0777 28.572 28.3023C29.1952 27.9425 29.5792 27.2774 29.5792 26.5578C29.5792 25.0071 27.9005 24.0379 26.5575 24.8132C25.9343 25.1731 25.5503 25.8381 25.5503 26.5578Z" fill="#CCD6DD"/>
<path d="M24.5433 12.4567C24.5433 13.0127 24.9936 13.4639 25.5505 13.4639H29.5794C30.1364 13.4639 30.5866 13.0127 30.5866 12.4567V9.43499C30.5866 8.87896 30.1364 8.42776 29.5794 8.42776H25.5505C24.9936 8.42776 24.5433 8.87896 24.5433 9.43499V12.4567ZM13.4639 12.4567C13.4639 13.4639 13.9151 13.4639 14.4711 13.4639H21.5216C22.0786 13.4639 22.5289 13.0127 22.5289 12.4567V9.43499C22.5289 8.87896 22.0786 8.42776 21.5216 8.42776H16.4855C15.4783 8.42776 13.4639 11.4494 13.4639 12.4567Z" fill="#BBDDF5"/>
<path d="M32.6015 19.0036C32.6015 19.8375 31.9246 20.5144 31.0906 20.5144H8.93173C8.09676 20.5144 7.4209 19.8375 7.4209 19.0036C7.4209 18.1686 8.09676 17.4928 8.93173 17.4928H31.0906C31.9246 17.4928 32.6015 18.1686 32.6015 19.0036Z" fill="#55ACEE"/>
</svg>
