<svg width="25" height="25" viewBox="0 0 25 25" fill="none" xmlns="http://www.w3.org/2000/svg">
<path fill-rule="evenodd" clip-rule="evenodd" d="M5.96039 7.08326C4.99893 8.30826 4.65205 9.4593 4.68955 10.5312C4.72914 11.6197 5.16664 12.6853 5.87289 13.7187C7.29685 15.7978 9.7208 17.6114 11.7156 19.0208C12.1864 19.3541 12.8093 19.3541 13.2802 19.0208C15.2906 17.6041 17.7135 15.7916 19.1343 13.7135C19.8385 12.6822 20.2729 11.6176 20.3104 10.5312C20.3458 9.4593 19.9979 8.30826 19.0343 7.08326C17.3468 5.30097 14.9166 5.35409 13.2625 6.79368C13.0498 6.97676 12.7785 7.07746 12.4979 7.07746C12.2173 7.07746 11.946 6.97676 11.7333 6.79368C10.0781 5.35513 7.64997 5.29993 5.96039 7.08326ZM5.18643 6.38743C7.28643 4.15305 10.3635 4.22389 12.4166 6.0093C12.4395 6.02799 12.4683 6.03795 12.4979 6.03743C12.5326 6.03604 12.5593 6.02666 12.5781 6.0093C14.6302 4.22389 17.7114 4.15201 19.8093 6.38847L19.825 6.40409L19.8385 6.4218C20.9416 7.81764 21.3968 9.21034 21.351 10.5676C21.3062 11.9135 20.7698 13.1666 19.9937 14.302C18.4521 16.5562 15.876 18.4666 13.8812 19.8739C13.4765 20.1601 12.9929 20.3136 12.4972 20.3134C12.0015 20.3133 11.5181 20.1593 11.1135 19.8728C9.13434 18.4728 6.55726 16.5624 5.01351 14.3072C4.23643 13.1718 3.69685 11.9166 3.64893 10.5697C3.60101 9.21139 4.05414 7.81868 5.15726 6.4218L5.1708 6.40409L5.18643 6.38743Z" fill="black"/>
</svg>
