<svg width="21" height="21" viewBox="0 0 21 21" fill="none" xmlns="http://www.w3.org/2000/svg">
<g clip-path="url(#clip0_2450_1053)">
<path d="M4.57945 5.67586C4.00818 7.55128 2.51537 8.68339 1.65072 8.68339C1.50059 8.68339 1.35903 8.68339 1.35903 8.12887C1.35903 7.15147 2.95829 6.23966 4.57945 5.67586ZM5.96124 4.10193C5.96124 4.10193 0.208496 5.25247 0.208496 8.12887C0.208496 9.30415 0.823457 9.83393 1.65072 9.83393C3.35469 9.83393 5.96124 7.5875 5.96124 4.10193Z" fill="#C1694F"/>
<path d="M19.6252 6.38521C19.4682 5.12934 18.3049 4.10193 17.0393 4.10193H6.38869C5.12313 4.10193 3.95932 5.12939 3.80288 6.38521L2.79442 14.4741C2.63791 15.7305 3.54514 16.758 4.81075 16.758H18.6173C19.8829 16.758 20.7902 15.7305 20.6337 14.4741L19.6252 6.38521Z" fill="#A6D388"/>
<path d="M4.81055 5.25244C4.81055 5.25244 6.24872 10.1423 7.11162 9.27938C7.97452 8.41648 4.81055 5.25244 4.81055 5.25244ZM18.1902 5.25244C18.1902 5.25244 16.7521 10.1423 15.8892 9.27938C15.0263 8.41648 18.1902 5.25244 18.1902 5.25244Z" fill="#77B255"/>
</g>
<defs>
<clipPath id="clip0_2450_1053">
<rect width="20.8599" height="20.8599" fill="white"/>
</clipPath>
</defs>
</svg>
