<svg width="17" height="17" viewBox="0 0 17 17" fill="none" xmlns="http://www.w3.org/2000/svg">
<path d="M17 8.736C17 7.96203 16.5419 7.31745 15.9266 7.13753C15.2844 3.61617 12.2069 0.944336 8.5 0.944336C4.79306 0.944336 1.71558 3.61617 1.07336 7.13753C0.458056 7.31745 0 7.96203 0 8.736C0 9.55578 0.513306 10.232 1.18528 10.3614C2.01592 13.632 4.97108 16.0554 8.5 16.0554C12.0289 16.0554 14.9841 13.632 15.8147 10.3614C16.4862 10.232 17 9.55578 17 8.736Z" fill="#FFDC5D"/>
<path d="M8.50022 11.8056C7.08355 11.8056 6.61133 11.3333 6.61133 12.2778C6.61133 13.2222 7.55577 14.1667 8.50022 14.1667C9.44466 14.1667 10.3891 13.2222 10.3891 12.2778C10.3891 11.3333 9.91688 11.8056 8.50022 11.8056Z" fill="#662214"/>
<path d="M10.6249 9.91677C11.2769 9.91677 11.8054 9.38822 11.8054 8.73622C11.8054 8.08422 11.2769 7.55566 10.6249 7.55566C9.97289 7.55566 9.44434 8.08422 9.44434 8.73622C9.44434 9.38822 9.97289 9.91677 10.6249 9.91677Z" fill="#662214"/>
<path d="M6.37489 9.91677C7.02689 9.91677 7.55545 9.38822 7.55545 8.73622C7.55545 8.08422 7.02689 7.55566 6.37489 7.55566C5.72289 7.55566 5.19434 8.08422 5.19434 8.73622C5.19434 9.38822 5.72289 9.91677 6.37489 9.91677Z" fill="#662214"/>
<path d="M8.5 12.2778H9.44444V12.7501C9.44444 12.7501 9.44444 13.2223 8.97222 13.2223C8.5 13.2223 8.5 12.7501 8.5 12.7501V12.2778Z" fill="white"/>
<path d="M8.49143 5.19465H8.47679C8.20139 5.19624 7.92846 5.14256 7.67418 5.03679C7.41989 4.93102 7.18941 4.77531 6.99637 4.57887C6.82217 4.40292 6.68691 4.1923 6.59938 3.96069C6.51184 3.72908 6.47398 3.48165 6.48826 3.23446C6.49156 3.17252 6.50715 3.11187 6.53412 3.05602C6.56109 3.00017 6.5989 2.95024 6.64536 2.90915C6.69181 2.86806 6.74598 2.83662 6.8047 2.81667C6.86342 2.79671 6.92553 2.78864 6.9874 2.79293C7.2476 2.80851 7.4464 3.03282 7.43082 3.29348C7.41712 3.52724 7.50401 3.75768 7.66835 3.92437C7.77444 4.03299 7.90113 4.11938 8.04099 4.17849C8.18085 4.23759 8.33109 4.26824 8.48293 4.26862C8.79129 4.25162 9.08265 4.15198 9.30223 3.93571C9.59679 3.64466 9.76383 3.24862 9.76666 2.83454C9.76949 2.42046 9.6079 2.02217 9.31735 1.72712C8.93133 1.33663 8.40616 1.11523 7.85709 1.11151C7.30801 1.10779 6.77989 1.32206 6.38862 1.70729C6.34447 1.75082 6.29217 1.78523 6.23472 1.80856C6.17727 1.83188 6.11579 1.84366 6.05378 1.84322C5.92856 1.84233 5.80882 1.79174 5.7209 1.70257C5.63298 1.6134 5.58409 1.49295 5.58497 1.36773C5.58586 1.24251 5.63645 1.12277 5.72562 1.03485C6.29549 0.47427 7.0644 0.162552 7.86376 0.16804C8.66311 0.173528 9.42767 0.495776 9.98979 1.06412C10.2205 1.29774 10.4029 1.57455 10.5265 1.87871C10.6502 2.18287 10.7126 2.50842 10.7103 2.83674C10.7081 3.16506 10.6411 3.48972 10.5132 3.79213C10.3854 4.09454 10.1992 4.36879 9.96523 4.59918C9.57046 4.98924 9.04676 5.19465 8.49143 5.19465Z" fill="#EF9645"/>
</svg>
