<svg width="8" height="10" viewBox="0 0 8 10" fill="none" xmlns="http://www.w3.org/2000/svg">
<path d="M3.81735 0.501574C3.80679 0.421004 3.81856 0.339082 3.85135 0.264736C3.88415 0.190391 3.93673 0.126474 4.00335 0.0799522C4.06998 0.0334301 4.14809 0.00608756 4.22918 0.000904196C4.31028 -0.00427917 4.39124 0.0128955 4.46324 0.0505567C5.84382 0.771918 6.86482 1.7361 7.46855 2.99238L7.46277 2.98173L7.46721 2.99016L7.51826 3.09315C8.73947 5.62346 7.55733 8.68071 4.8934 9.20142L4.77487 9.22317C0.904378 10.071 -1.64192 5.34335 1.23687 2.60085C1.44373 2.39665 1.80508 2.06993 1.96311 1.95717C2.02946 1.90968 2.10762 1.8814 2.18899 1.87543C2.27036 1.86946 2.35181 1.88603 2.42438 1.92333C2.49695 1.96062 2.55784 2.0172 2.60035 2.08683C2.64287 2.15647 2.66537 2.23648 2.66539 2.31807C2.66539 2.45613 2.70356 2.81393 2.75639 3.07007C2.77 3.13369 2.78376 3.19037 2.79767 3.24008L2.80522 3.26583L2.84961 3.25695C3.54301 3.08116 3.96917 1.91589 3.83066 0.613441L3.81735 0.501574Z" fill="white"/>
</svg>
