<svg width="16" height="16" viewBox="0 0 16 16" fill="none" xmlns="http://www.w3.org/2000/svg">
<path fill-rule="evenodd" clip-rule="evenodd" d="M11.9889 1.10419C11.8204 0.935662 11.6132 0.810999 11.3853 0.741112C11.1575 0.671225 10.916 0.658245 10.682 0.703307C10.4479 0.748369 10.2285 0.8501 10.0429 0.999598C9.8573 1.1491 9.71117 1.3418 9.61728 1.56086L8.28978 4.65836C7.65234 4.53269 6.99377 4.56585 6.37218 4.75493C5.75059 4.94401 5.1851 5.28319 4.72562 5.74253L3.30062 7.16753C3.18357 7.28471 3.11783 7.44357 3.11783 7.60919C3.11783 7.77482 3.18357 7.93367 3.30062 8.05086L5.37978 10.1309L0.892283 14.6192C0.830877 14.6764 0.781626 14.7454 0.747466 14.8221C0.713306 14.8987 0.694937 14.9815 0.693457 15.0654C0.691976 15.1493 0.707413 15.2327 0.738847 15.3105C0.770282 15.3883 0.817069 15.459 0.876418 15.5184C0.935767 15.5777 1.00646 15.6245 1.08429 15.656C1.16211 15.6874 1.24547 15.7028 1.32939 15.7014C1.4133 15.6999 1.49607 15.6815 1.57273 15.6473C1.6494 15.6132 1.7184 15.5639 1.77562 15.5025L6.26395 11.015L8.34312 13.0942C8.40116 13.1523 8.47007 13.1983 8.54593 13.2298C8.62178 13.2612 8.70309 13.2774 8.7852 13.2774C8.86731 13.2774 8.94861 13.2612 9.02447 13.2298C9.10032 13.1983 9.16924 13.1523 9.22728 13.0942L10.6523 11.6692C11.1118 11.2098 11.4511 10.6443 11.6403 10.0227C11.8295 9.40115 11.8628 8.74253 11.7373 8.10503L14.834 6.77836C15.053 6.68448 15.2457 6.53834 15.3952 6.35273C15.5447 6.16712 15.6464 5.94771 15.6915 5.71368C15.7366 5.47965 15.7236 5.23815 15.6537 5.0103C15.5838 4.78245 15.4591 4.57521 15.2906 4.40669L11.9889 1.10419ZM10.7656 2.05336C10.779 2.02202 10.7999 1.99445 10.8265 1.97307C10.853 1.95169 10.8844 1.93715 10.9179 1.93073C10.9514 1.92432 10.986 1.92621 11.0185 1.93626C11.0511 1.94631 11.0807 1.9642 11.1048 1.98836L14.4073 5.29003C14.4314 5.31414 14.4493 5.34381 14.4593 5.37643C14.4692 5.40905 14.4711 5.44362 14.4646 5.47712C14.4581 5.51061 14.4434 5.54199 14.422 5.56851C14.4005 5.59502 14.3729 5.61586 14.3414 5.62919L10.7456 7.17086C10.5997 7.23365 10.4831 7.34967 10.4196 7.49534C10.3562 7.641 10.3506 7.80537 10.4039 7.95503C10.5772 8.43849 10.6094 8.96124 10.4968 9.46232C10.3842 9.96339 10.1315 10.4221 9.76812 10.785L8.78478 11.7684L4.62645 7.61002L5.60978 6.62669C5.97277 6.26344 6.43155 6.01087 6.93262 5.89844C7.43369 5.78601 7.9564 5.81835 8.43978 5.99169C8.58954 6.04533 8.75411 6.03986 8.89997 5.97637C9.04583 5.91289 9.16199 5.79618 9.22478 5.65003L10.7656 2.05336Z" fill="#525252"/>
</svg>
