<svg width="32" height="32" viewBox="0 0 32 32" fill="none" xmlns="http://www.w3.org/2000/svg">
<path d="M14.5747 24.0776C13 24.0776 11.7238 22.8013 11.7238 21.2267V17.4254C11.7238 15.8509 13 14.5746 14.5747 14.5746C15.1477 14.5689 20.2765 13.6243 20.2765 9.82303C20.2765 7.92241 18.3758 6.02187 15.525 6.02187C13.2053 6.02187 11.7238 7.92241 11.7238 8.87272C11.7238 10.4474 10.4475 11.7237 8.87282 11.7237C7.29815 11.7237 6.02197 10.4474 6.02197 8.87272C6.02197 4.23716 10.3743 0.320007 15.525 0.320007C23.1274 0.320007 25.9783 6.00472 25.9783 10.7733C25.9783 14.7124 23.8145 17.7229 19.884 19.2501C19.0287 19.5836 18.183 19.8079 17.4256 19.9599V21.2267C17.4256 22.8013 16.1494 24.0776 14.5747 24.0776Z" fill="#CCD6DD"/>
<path d="M11.7236 28.8291C11.7236 31.0237 14.0994 32.3954 16 31.2981C16.882 30.7888 17.4254 29.8477 17.4254 28.8291C17.4254 26.6345 15.0497 25.2629 13.1491 26.3601C12.267 26.8694 11.7236 27.8106 11.7236 28.8291Z" fill="#CCD6DD"/>
</svg>
