<svg width="32" height="32" viewBox="0 0 32 32" fill="none" xmlns="http://www.w3.org/2000/svg">
<path d="M31.6798 17.152C31.6798 15.7243 30.8348 14.5352 29.6998 14.2033C28.5151 7.70737 22.838 2.77866 15.9998 2.77866C9.1616 2.77866 3.48454 7.70737 2.29982 14.2033C1.1648 14.5352 0.319824 15.7243 0.319824 17.152C0.319824 18.6643 1.26676 19.9116 2.50631 20.1504C4.03858 26.1836 9.49005 30.6542 15.9998 30.6542C22.5096 30.6542 27.9611 26.1836 29.4933 20.1504C30.7321 19.9116 31.6798 18.6643 31.6798 17.152Z" fill="#F3D2A2"/>
<path d="M16.0001 22.8142C13.3867 22.8142 12.5156 21.9431 12.5156 23.6853C12.5156 25.4275 14.2578 27.1698 16.0001 27.1698C17.7423 27.1698 19.4845 25.4275 19.4845 23.6853C19.4845 21.9431 18.6134 22.8142 16.0001 22.8142Z" fill="#662214"/>
<path d="M17.7422 17.152C17.7422 18.8284 19.557 19.8763 21.0089 19.038C21.6826 18.649 22.0977 17.93 22.0977 17.152C22.0977 15.4756 20.2829 14.4277 18.8311 15.266C18.1573 15.655 17.7422 16.374 17.7422 17.152Z" fill="#662214"/>
<path d="M9.90234 17.152C9.90234 18.8284 11.7172 19.8763 13.169 19.038C13.8428 18.649 14.2579 17.93 14.2579 17.152C14.2579 15.4756 12.4431 14.4277 10.9912 15.266C10.3175 15.655 9.90234 16.374 9.90234 17.152Z" fill="#662214"/>
<path d="M16 23.6853H17.7422V24.5564C17.7422 24.5564 17.7422 25.4276 16.8711 25.4276C16 25.4276 16 24.5564 16 24.5564V23.6853Z" fill="white"/>
<path d="M15.9842 10.6187H15.9571C14.9222 10.6187 13.9527 10.2197 13.2262 9.48274C12.5763 8.82416 12.2348 7.92603 12.2889 7.00265C12.3168 6.52265 12.7157 6.16639 13.2097 6.18816C13.6896 6.21696 14.0563 6.63074 14.0276 7.11154C14.0024 7.54274 14.1627 7.9679 14.4658 8.27536C14.8656 8.68132 15.3987 8.90692 15.9684 8.91039C16.5373 8.87901 17.0747 8.69527 17.4798 8.29625C18.6106 7.18123 18.6227 5.35367 17.5077 4.22212C16.0277 2.72292 13.6051 2.70639 12.1051 4.1855C11.7619 4.52434 11.2105 4.5191 10.8733 4.17679C10.5354 3.83447 10.5397 3.28301 10.882 2.94505C13.0651 0.79163 16.5939 0.816075 18.7482 2.99901C20.5383 4.81447 20.5174 7.73092 18.7028 9.52016C17.9747 10.2397 17.0085 10.6187 15.9842 10.6187Z" fill="#C68F6A"/>
</svg>
