<svg width="29" height="29" viewBox="0 0 29 29" fill="none" xmlns="http://www.w3.org/2000/svg">
<g clip-path="url(#clip0_2388_1821)">
<path d="M11.6581 25.056C11.6581 26.8497 11.0158 28.304 9.22205 28.304H3.53805C0.290051 28.304 0.290051 16.936 3.53805 16.936H9.22205C11.0158 16.936 11.6581 18.3902 11.6581 20.184V25.056Z" fill="#553788"/>
<path d="M27.0856 26.68H26.2736V18.56H27.0856C27.5346 18.56 27.8976 18.197 27.8976 17.748C27.8976 17.299 27.5346 16.936 27.0856 16.936H7.59762C4.34962 16.936 4.34962 28.304 7.59762 28.304H27.0856C27.5346 28.304 27.8976 27.941 27.8976 27.492C27.8976 27.043 27.5346 26.68 27.0856 26.68Z" fill="#9266CC"/>
<path d="M27.2256 26.68H8.40989C6.78589 26.68 6.78589 18.56 8.40989 18.56H27.2256C28.122 18.56 28.122 26.68 27.2256 26.68Z" fill="#CCD6DD"/>
<path d="M8.81576 20.184H27.776C27.6663 19.2299 27.4836 18.56 27.2254 18.56H8.40976C7.06915 18.56 6.8361 24.0881 7.709 26.0207C7.39073 23.6179 7.75935 20.184 8.81576 20.184Z" fill="#99AAB5"/>
<path d="M9.22204 6.37998C9.22204 8.17371 7.76777 9.62798 5.97404 9.62798H2.72604C-0.521961 9.62798 -0.521961 0.695984 2.72604 0.695984H5.97404C7.76777 0.695984 9.22204 2.15025 9.22204 3.94398V6.37998Z" fill="#226699"/>
<path d="M24.6496 8.00398H23.8376V2.31998H24.6496C25.0986 2.31998 25.4616 1.957 25.4616 1.50798C25.4616 1.05897 25.0986 0.695984 24.6496 0.695984H5.16159C1.91359 0.695984 1.91359 9.62798 5.16159 9.62798H24.6496C25.0986 9.62798 25.4616 9.265 25.4616 8.81598C25.4616 8.36697 25.0986 8.00398 24.6496 8.00398Z" fill="#55ACEE"/>
<path d="M24.7895 8.00401H5.97386C4.34986 8.00401 4.34986 2.32001 5.97386 2.32001H24.7895C25.686 2.32001 25.686 8.00401 24.7895 8.00401Z" fill="#CCD6DD"/>
<path d="M5.97382 3.94401H25.4009C25.3084 3.03051 25.1054 2.32001 24.7895 2.32001H5.97382C5.00514 2.32001 4.61863 4.34107 4.80617 5.97401C4.9328 4.87128 5.3185 3.94401 5.97382 3.94401Z" fill="#99AAB5"/>
<path d="M15.7181 13.6881C15.7181 15.4818 14.2638 16.9361 12.4701 16.9361H4.35006C1.10206 16.9361 1.10206 9.62805 4.35006 9.62805H12.4701C14.2638 9.62805 15.7181 11.0823 15.7181 12.8761V13.6881Z" fill="#F4900C"/>
<path d="M27.8977 15.3121H27.0857V11.2521H27.8977C28.3467 11.2521 28.7097 10.8891 28.7097 10.4401C28.7097 9.99104 28.3467 9.62805 27.8977 9.62805H11.6577C8.40968 9.62805 8.40968 16.9361 11.6577 16.9361H27.8977C28.3467 16.9361 28.7097 16.5731 28.7097 16.1241C28.7097 15.675 28.3467 15.3121 27.8977 15.3121Z" fill="#FFAC33"/>
<path d="M28.0376 15.312H12.47C10.846 15.312 10.846 11.252 12.47 11.252H28.0376C28.9341 11.252 28.9341 15.312 28.0376 15.312Z" fill="#CCD6DD"/>
<path d="M12.4701 12.876H28.6971C28.6443 12.0137 28.4259 11.252 28.0378 11.252H12.4701C11.4356 11.252 11.0628 12.8979 11.347 14.094C11.5078 13.4128 11.8806 12.876 12.4701 12.876Z" fill="#99AAB5"/>
</g>
<defs>
<clipPath id="clip0_2388_1821">
<rect width="29" height="29" fill="white"/>
</clipPath>
</defs>
</svg>
