<svg width="32" height="32" viewBox="0 0 32 32" fill="none" xmlns="http://www.w3.org/2000/svg">
<path d="M31.6798 10.3378C31.6798 6.36727 27.8164 3.13625 22.9687 2.95163V2.93332H9.03094V2.95163C4.1832 3.13625 0.319824 6.36727 0.319824 10.3378C0.319824 11.9589 0.97058 13.4529 2.06205 14.6724V25.5822C2.06205 27.5065 3.62222 29.0667 5.54649 29.0667H26.4532C28.3774 29.0667 29.9376 27.5065 29.9376 25.5822V14.6724C31.0291 13.4529 31.6798 11.9589 31.6798 10.3378Z" fill="#D99E82"/>
<path d="M16.8711 14.6725H29.9378V15.9791H16.8711V14.6725Z" fill="#CC927A"/>
<path d="M18.6131 10.3378C18.6131 7.32286 15.5312 4.85761 11.6442 4.68517C11.5005 4.67903 9.61277 4.67557 9.46646 4.67557C5.37748 4.67557 2.06201 7.2105 2.06201 10.3378C2.06201 11.7272 2.71881 12.9973 3.80423 13.9825V24.7111C3.80423 26.1546 4.9741 27.3245 6.41757 27.3245H14.2576C15.701 27.3245 16.8709 26.1546 16.8709 24.7111V13.9781C17.9545 12.9929 18.6131 11.7254 18.6131 10.3378Z" fill="#FFE8B6"/>
</svg>
