<svg width="32" height="32" viewBox="0 0 32 32" fill="none" xmlns="http://www.w3.org/2000/svg">
<path d="M20.5708 3.02489C19.1042 1.688 17.5219 0.888885 16.0002 0.888885C11.0002 0.888885 5.3335 9.432 5.3335 17.7778C5.3335 18.6444 5.40372 19.4658 5.51305 20.2587C6.45438 27.0969 11.2206 31.1111 16.0002 31.1111C21.3335 31.1111 26.6668 26.1236 26.6668 17.7778C26.6668 11.9724 23.9237 6.07911 20.5708 3.02489Z" fill="#F7DECE"/>
<path d="M20.5709 3.0249C23.1558 6.1529 25.1113 11.0409 25.1113 15.872C25.1113 23.88 20.0695 28.6658 15.0278 28.6658C10.9913 28.6658 6.9611 25.5911 5.51221 20.2578C6.45443 27.0969 11.2207 31.1111 16.0002 31.1111C21.3335 31.1111 26.6669 26.1236 26.6669 17.7778C26.6669 11.9725 23.9238 6.07912 20.5709 3.0249Z" fill="#E0AA94"/>
</svg>
