<svg width="32" height="32" viewBox="0 0 32 32" fill="none" xmlns="http://www.w3.org/2000/svg">
<g clip-path="url(#clip0_2388_1842)">
<path d="M10.5404 14.4569C10.8862 14.8027 10.8862 15.368 10.5404 15.7138C10.1946 16.0596 9.62927 16.0596 9.28349 15.7138L1.74127 8.1707C1.39549 7.82492 1.39549 7.25959 1.74127 6.91381C2.08704 6.56803 2.65238 6.56803 2.99816 6.91381L10.5404 14.4569ZM16.8266 8.17159C17.1724 8.51736 17.1724 9.0827 16.8266 9.42847C16.4808 9.77425 15.9155 9.77425 15.5697 9.42847L8.02571 1.88536C7.67993 1.53959 7.67993 0.974252 8.02571 0.628474C8.37149 0.282696 8.93682 0.282696 9.2826 0.628474L16.8266 8.17159Z" fill="#9AAAB4"/>
<path d="M30.2221 32C30.2221 27.5858 27.9465 24.3724 26.167 22.5333C26.9652 21.1716 26.7927 19.3965 25.6247 18.2276L24.6479 17.2507C24.9607 16.0667 24.6665 14.7564 23.7394 13.8276L19.3403 9.42756C20.0336 8.73334 20.0336 7.60801 19.3403 6.91378C18.6461 6.21956 17.519 6.21956 16.8256 6.91289L14.3136 9.42489L14.311 9.42667L10.5403 13.1982L8.02653 15.712C7.3323 16.4062 7.3323 17.5316 8.02653 18.2258C8.72075 18.92 9.84608 18.92 10.5403 18.2258L14.9403 22.6258C15.8683 23.5538 17.1794 23.8462 18.3625 23.5333L19.3412 24.512C20.5127 25.6836 22.295 25.8542 23.6585 25.0471C24.9767 26.4231 26.6665 28.8036 26.6665 32H30.2221Z" fill="#31373D"/>
</g>
<defs>
<clipPath id="clip0_2388_1842">
<rect width="32" height="32" fill="white"/>
</clipPath>
</defs>
</svg>
