<svg width="32" height="32" viewBox="0 0 32 32" fill="none" xmlns="http://www.w3.org/2000/svg">
<g clip-path="url(#clip0_2388_1658)">
<path d="M31.1111 16.5502C31.1111 13.1778 28.3778 10.4445 25.0054 10.4445C24.1351 10.4445 22.5591 10.9582 22.5591 10.9582L10.8916 12.1885C10.8916 12.1885 8.47647 10.7831 6.99558 10.7831C3.62225 10.7831 0.888916 13.5165 0.888916 16.8889C0.888916 17.0996 0.899583 17.3076 0.920027 17.5129C1.2498 25.5671 7.8658 32 16 32C24.3458 32 31.1111 25.2347 31.1111 16.8889C31.1111 16.8427 31.1031 16.7991 31.1005 16.7529C31.1031 16.6853 31.1111 16.6187 31.1111 16.5502Z" fill="#FFCB4C"/>
<path d="M26.7786 12.2231C25.9421 12.0062 25.8817 12.5662 24.8213 12.4418C23.783 12.32 25.2026 11.7849 24.6479 11.4711C24.4613 11.3653 24.1937 11.3431 23.8639 11.384C22.9288 11.4987 8.79369 11.8676 8.26658 12.1218C7.79814 12.3476 7.52081 12.6089 7.09503 12.2116C6.55903 11.712 5.79192 12 5.5697 12.1662C5.28347 12.3813 5.22392 12.808 5.77769 13.3013C6.32969 13.6747 7.26481 14.0649 8.85769 14.3316C9.03281 14.3609 9.18214 14.3724 9.32169 14.3778C10.4124 14.4142 10.5635 12.8933 12.1039 12.8524C13.1137 12.8258 22.0177 13.8036 22.751 13.704C22.8408 13.6916 22.935 13.6827 23.0435 13.6827C24.4328 13.6827 24.7555 14.9716 26.2337 13.9636C26.8604 13.4542 27.8435 12.4987 26.7786 12.2231Z" fill="#F19020"/>
<path d="M5.27832 8.10223C6.6321 9.45957 7.59299 10.8978 8.26676 12.1227C8.76988 13.0373 9.11654 13.8373 9.32188 14.3787C10.4125 14.4151 10.5637 13.7831 12.1041 13.7422C13.1139 13.7156 13.689 14.4258 14.4357 14.8347C15.7708 15.5653 16.7192 14.1858 17.7414 14.1858C18.497 14.1858 19.7139 15.2587 20.5645 14.8649C21.7974 14.2933 22.0179 13.8062 22.7512 13.7058C23.0374 13.0027 23.4099 12.1982 23.8641 11.3867C24.5219 10.2098 25.3557 9.01779 26.3894 8.10401H5.27832V8.10223Z" fill="#F36C24"/>
<path d="M26.0498 8.38667C27.1884 7.26401 5.57064 8.4009 6.19109 9.08712C7.06931 10.0596 8.14664 11.8898 8.14664 11.8898C8.14664 11.8898 12.3751 14.0276 15.5698 11.3333C17.792 12.6667 20.9031 12.1947 22.2915 9.90312C22.2915 9.90312 23.3733 10.3058 24.4702 10.3751C24.4702 10.3751 25.3173 9.10845 26.0498 8.38667Z" fill="#CE5C1F"/>
<path d="M12.1494 25.456C12.1494 26.623 12.5551 27.7421 13.2772 28.5673C13.9994 29.3924 14.9788 29.856 16.0001 29.856C17.0213 29.856 18.0008 29.3924 18.7229 28.5673C19.4451 27.7421 19.8507 26.623 19.8507 25.456C19.8507 24.289 19.4451 23.1699 18.7229 22.3447C18.0008 21.5196 17.0213 21.056 16.0001 21.056C14.9788 21.056 13.9994 21.5196 13.2772 22.3447C12.5551 23.1699 12.1494 24.289 12.1494 25.456Z" fill="#65471B"/>
<path d="M12.4445 18.3164C12.4445 19.6258 11.648 20.6871 10.6667 20.6871C9.68447 20.6871 8.88892 19.6258 8.88892 18.3164C8.88892 17.0071 9.68447 15.9458 10.6667 15.9458C11.648 15.9458 12.4445 17.0071 12.4445 18.3164ZM23.1111 18.3156C23.1111 19.6249 22.3156 20.6862 21.3334 20.6862C20.3511 20.6862 19.5556 19.6249 19.5556 18.3156C19.5556 17.0071 20.352 15.9449 21.3334 15.9449C22.3156 15.9458 23.1111 17.0071 23.1111 18.3156Z" fill="#65471B"/>
<path d="M27.6666 3.31112C27.4533 3.31112 27.2515 3.35112 27.0568 3.40801C26.4453 2.6569 25.5253 2.16712 24.4808 2.16712C24.4035 2.16712 24.3306 2.1849 24.2541 2.19023C23.6017 1.45512 22.6595 0.982232 21.599 0.982232C20.2613 0.982232 19.1101 1.72801 18.5004 2.81868C18.1928 2.10934 17.4879 1.61245 16.6657 1.61245C16.0275 1.61245 15.4666 1.91645 15.1004 2.38134C14.6488 1.07468 13.4221 0.130676 11.9626 0.130676C10.7866 0.130676 9.75815 0.743121 9.16437 1.66223C9.00081 1.63645 8.83726 1.61068 8.66659 1.61068C7.3937 1.61068 6.30126 2.33245 5.73948 3.38134C5.55904 3.34757 5.37504 3.32534 5.18481 3.32534C3.52793 3.32534 2.18481 4.66845 2.18481 6.32534C2.18481 7.98223 3.52793 9.32534 5.18481 9.32534C5.70748 9.32534 6.1937 9.18401 6.61948 8.94757C6.9537 9.19823 7.36437 9.3529 7.81504 9.3529C7.94393 9.3529 8.06837 9.33868 8.19015 9.31468C8.95015 10.5405 10.2941 11.3618 11.8426 11.3618C13.3617 11.3618 14.6924 10.5751 15.463 9.39112C16.103 10.1751 17.0648 10.6862 18.1555 10.6862C19.7688 10.6862 21.1128 9.58579 21.5119 8.09868C21.5421 8.09956 21.5697 8.10756 21.5999 8.10756C21.8515 8.10756 22.0968 8.08001 22.3341 8.03023C22.9155 8.52445 23.6595 8.83379 24.4826 8.83379C25.5261 8.83379 26.447 8.34401 27.0577 7.5929C27.2524 7.64979 27.4541 7.68979 27.6675 7.68979C28.8764 7.68979 29.8568 6.70934 29.8568 5.50045C29.8568 4.29156 28.8755 3.31112 27.6666 3.31112Z" fill="#CCD6DD"/>
<path d="M22.8213 5.12621C22.8213 5.62623 23.0199 6.10577 23.3735 6.45934C23.7271 6.81291 24.2066 7.01154 24.7066 7.01154C25.2066 7.01154 25.6862 6.81291 26.0398 6.45934C26.3933 6.10577 26.592 5.62623 26.592 5.12621C26.592 4.62619 26.3933 4.14665 26.0398 3.79308C25.6862 3.43951 25.2066 3.24088 24.7066 3.24088C24.2066 3.24088 23.7271 3.43951 23.3735 3.79308C23.0199 4.14665 22.8213 4.62619 22.8213 5.12621Z" fill="#E1E8ED"/>
<path d="M17.6674 5.2471C17.6674 4.18665 16.8079 3.32621 15.7474 3.32621C15.4203 3.32621 15.1163 3.41599 14.847 3.55999C14.6239 3.02576 14.0968 2.64977 13.4808 2.64977C12.9768 2.64977 12.5323 2.9031 12.2648 3.28799C11.6692 2.73421 10.8772 2.38754 9.99988 2.38754C8.43988 2.38754 7.14122 3.4631 6.77766 4.91021C6.45322 4.58399 6.00433 4.38132 5.50744 4.38132C4.51988 4.38132 3.71899 5.18221 3.71899 6.16976C3.71899 7.15732 4.51988 7.95821 5.50744 7.95821C6.13233 7.95821 6.67988 7.63732 6.99988 7.15199C7.45944 8.11288 8.35899 8.81688 9.44344 8.99999C9.79011 9.59554 10.4274 9.99999 11.1661 9.99999C12.1208 9.99999 12.9163 9.32976 13.1154 8.43554C13.4034 8.59554 13.7297 8.6951 14.0817 8.6951C15.0328 8.6951 15.8257 8.02932 16.0283 7.13954C16.9545 7.00176 17.6674 6.21154 17.6674 5.2471Z" fill="#E1E8ED"/>
</g>
<defs>
<clipPath id="clip0_2388_1658">
<rect width="32" height="32" fill="white"/>
</clipPath>
</defs>
</svg>
