<svg width="32" height="32" viewBox="0 0 32 32" fill="none" xmlns="http://www.w3.org/2000/svg">
<path d="M26.6668 30.2222C26.6668 31.2036 25.8704 32 24.8891 32H7.11127C6.12994 32 5.3335 31.2036 5.3335 30.2222V1.77778C5.3335 0.796444 6.12994 0 7.11127 0H24.8891C25.8704 0 26.6668 0.796444 26.6668 1.77778V30.2222Z" fill="#292F33"/>
<path d="M24.8891 14.2222C24.8891 14.7129 24.4918 15.1111 24.0002 15.1111H8.00022C7.50955 15.1111 7.11133 14.7129 7.11133 14.2222V2.66666C7.11133 2.17599 7.50955 1.77777 8.00022 1.77777H24.0002C24.4918 1.77777 24.8891 2.17599 24.8891 2.66666V14.2222ZM24.8891 29.3333C24.8891 29.8249 24.4918 30.2222 24.0002 30.2222H8.00022C7.50955 30.2222 7.11133 29.8249 7.11133 29.3333V17.7778C7.11133 17.2862 7.50955 16.8889 8.00022 16.8889H24.0002C24.4918 16.8889 24.8891 17.2862 24.8891 17.7778V29.3333Z" fill="#66757F"/>
<path d="M19.5554 7.1111C19.5554 7.60176 19.1581 7.99999 18.6666 7.99999H13.3332C12.8426 7.99999 12.4443 7.60176 12.4443 7.1111V4.44443C12.4443 3.95376 12.8426 3.55554 13.3332 3.55554H18.6666C19.1581 3.55554 19.5554 3.95376 19.5554 4.44443V7.1111ZM19.5554 22.2222C19.5554 22.7138 19.1581 23.1111 18.6666 23.1111H13.3332C12.8426 23.1111 12.4443 22.7138 12.4443 22.2222V19.5555C12.4443 19.064 12.8426 18.6667 13.3332 18.6667H18.6666C19.1581 18.6667 19.5554 19.064 19.5554 19.5555V22.2222Z" fill="#292F33"/>
<path d="M13.3332 4.44446H18.6665V7.11112H13.3332V4.44446ZM13.3332 19.5556H18.6665V22.2222H13.3332V19.5556ZM21.3332 11.5822C21.3332 12.0587 20.9465 12.4445 20.4709 12.4445H11.5287C11.0523 12.4445 10.6665 12.0578 10.6665 11.5822V11.5289C10.6665 11.0525 11.0523 10.6667 11.5287 10.6667H20.4709C20.9465 10.6667 21.3332 11.0533 21.3332 11.5289V11.5822ZM21.3332 26.6925C21.3332 27.1689 20.9465 27.5556 20.4709 27.5556H11.5287C11.0523 27.5556 10.6665 27.1689 10.6665 26.6925V26.64C10.6665 26.1645 11.0523 25.7778 11.5287 25.7778H20.4709C20.9465 25.7778 21.3332 26.1645 21.3332 26.6409V26.6925Z" fill="#E1E8ED"/>
</svg>
