<svg width="32" height="32" viewBox="0 0 32 32" fill="none" xmlns="http://www.w3.org/2000/svg">
<path d="M28.4457 17.7587C28.4457 16.8794 29.785 12.2962 31.1251 10.957C32.4635 9.61769 31.1251 8.17297 29.7859 8.17297C26.7916 8.17297 21.7495 14.2413 21.7495 17.7587C21.7495 22.1555 26.7908 26.925 29.7859 26.925C31.1251 26.925 32.4644 25.6904 31.1251 24.3503C29.7859 23.0119 28.4457 19.5174 28.4457 17.7587Z" fill="#3B88C3"/>
<path d="M8.10498 9.30294C8.10498 6.62445 9.42134 3.94507 10.7605 3.94507C14.7783 3.94507 22.4752 8.18613 23.8145 14.8832C25.1546 21.5804 8.10498 9.30294 8.10498 9.30294ZM12.3733 25.3756C13.7125 26.7148 16.3919 28.0549 19.0713 28.0549C21.7498 28.0549 16.3356 24.3714 17.732 22.698C19.649 20.3967 12.3733 25.3756 12.3733 25.3756Z" fill="#3B88C3"/>
<path d="M1.99336 21.9154C2.66252 19.906 2.16039 18.4551 0.988208 17.0051C-0.183881 15.5533 4.3931 15.3308 5.89941 17.3401C7.40572 19.3493 10.9231 22.8633 7.79701 22.8097C4.67274 22.7525 1.99336 21.9154 1.99336 21.9154Z" fill="black"/>
<path d="M0.319824 17.3085C1.16311 18.077 6.67138 21.0976 6.62036 21.8257C6.56934 22.5538 4.61636 21.7483 3.88996 21.5804C2.58418 21.2796 2.21485 21.0545 1.85254 21.1178C1.11387 21.4001 1.36534 22.1739 1.63974 22.6162C2.95698 24.9113 8.04667 26.7157 12.3325 26.7157C19.7296 26.7157 27.1074 20.0195 27.1074 17.3401C27.1074 14.6616 18.8899 7.96365 11.4928 7.96365C4.11422 7.96276 0.330402 13.2933 0.319824 17.3085Z" fill="#55ACEE"/>
<path d="M6.3276 11.6033C7.29836 11.6033 8.08627 12.3894 8.08627 13.362C8.08627 14.3336 7.29836 15.1206 6.3276 15.1206C5.35587 15.1206 4.56885 14.3328 4.56885 13.362C4.56885 12.3894 5.35587 11.6033 6.3276 11.6033Z" fill="black"/>
<path d="M13.4328 23.0172C13.2956 23.0172 13.1567 22.9855 13.0266 22.9178C12.5956 22.6927 12.4295 22.1616 12.6546 21.7307C14.0483 19.0628 14.605 16.6587 12.79 13.6029C12.542 13.1852 12.6792 12.6461 13.0969 12.3973C13.5146 12.1484 14.0536 12.2883 14.3025 12.7042C16.6706 16.6921 15.5863 19.9166 14.2128 22.545C14.0562 22.8457 13.7493 23.0172 13.4328 23.0172Z" fill="#226699"/>
</svg>
