<svg width="32" height="32" viewBox="0 0 32 32" fill="none" xmlns="http://www.w3.org/2000/svg">
<path d="M7.80176 3.96266L9.59287 28.4444H22.3333L24.2791 3.94489L7.80176 3.96266Z" fill="#CCD6DD"/>
<path d="M22.2224 27.8053L9.69444 27.9449L8.78955 14.3342H23.2304L22.2224 27.8053Z" fill="white"/>
<path d="M21.25 31.2667H10.7505C9.22868 31.2667 8.16024 30.2418 7.9638 28.5902L6.20824 3.95378C6.16735 3.37867 6.60024 2.87911 7.17624 2.83823C7.76202 2.79823 8.25091 3.23111 8.2918 3.80534L10.042 28.392C10.1371 29.1778 10.5514 29.1778 10.7505 29.1778H21.25C21.7087 29.1778 21.8794 29.1778 21.9611 28.3627L23.7087 3.80534C23.7496 3.23111 24.242 2.8 24.8242 2.83823C25.3994 2.87911 25.8331 3.37867 25.7922 3.95378L24.042 28.5396C23.818 30.7982 22.4002 31.2667 21.25 31.2667Z" fill="#8899A6"/>
<path d="M15.9998 29.3333H13.6647C8.74737 29.3333 8.18292 26.9476 7.92248 23.5787C7.63092 19.8178 6.36426 3.93955 6.36426 3.93955L8.13581 3.79822C8.13581 3.79822 9.40426 19.6809 9.69492 23.4418C9.93048 26.4987 10.1891 27.5556 13.6647 27.5556H15.9998C16.4905 27.5556 16.8887 27.9529 16.8887 28.4444C16.8887 28.936 16.4905 29.3333 15.9998 29.3333Z" fill="#8899A6"/>
<path d="M18.3353 29.3333H16.0002C15.5096 29.3333 15.1113 28.936 15.1113 28.4444C15.1113 27.9529 15.5096 27.5556 16.0002 27.5556H18.3353C21.8109 27.5556 22.0687 26.4987 22.3051 23.4418C22.5967 19.68 23.8642 3.79822 23.8642 3.79822L25.6367 3.93955C25.6367 3.93955 24.3691 19.8187 24.0776 23.5787C23.8171 26.9476 23.2536 29.3333 18.3353 29.3333Z" fill="#8899A6"/>
<path d="M25.7777 3.62933C25.7777 5.14311 23.3511 6.36977 15.9999 6.36977C8.64972 6.36977 6.22217 5.14311 6.22217 3.62933C6.22217 2.11555 8.64883 0.888885 15.9999 0.888885C23.3511 0.888885 25.7777 2.11555 25.7777 3.62933Z" fill="#CCD6DD"/>
<path d="M25.362 3.66933C25.0891 3.26133 24.538 3.15111 24.1291 3.424C22.2749 4.66222 17.6633 4.82044 16.0429 4.77777C16.034 4.77689 16.026 4.78222 16.0171 4.78133C16.0091 4.78133 16.0029 4.77777 15.9949 4.77777C14.378 4.82133 9.76554 4.66489 7.90866 3.424C7.49977 3.152 6.94866 3.26133 6.67577 3.66933C6.40288 4.07733 6.5131 4.62933 6.9211 4.90222C9.20554 6.42844 13.9584 6.56089 15.5327 6.56089C15.7895 6.56089 15.9567 6.55733 16.0189 6.55555C16.082 6.55733 16.2482 6.56089 16.5051 6.56089C18.0793 6.56089 22.8322 6.42933 25.1167 4.90222C25.5255 4.62933 25.6358 4.07733 25.362 3.66933Z" fill="white"/>
<path d="M9.03467 14.2755C9.03467 14.6207 9.76767 14.9517 11.0724 15.1957C12.3772 15.4398 14.1468 15.5769 15.992 15.5769C17.8372 15.5769 19.6068 15.4398 20.9116 15.1957C22.2163 14.9517 22.9493 14.6207 22.9493 14.2755C22.9493 13.9304 22.2163 13.5994 20.9116 13.3554C19.6068 13.1113 17.8372 12.9742 15.992 12.9742C14.1468 12.9742 12.3772 13.1113 11.0724 13.3554C9.76767 13.5994 9.03467 13.9304 9.03467 14.2755Z" fill="#E1E8ED"/>
<path d="M9.81494 28.0373H22.4078V29.6667H9.81494V28.0373Z" fill="#8899A6"/>
</svg>
