<svg width="37" height="37" viewBox="0 0 37 37" fill="none" xmlns="http://www.w3.org/2000/svg">
<path d="M20.6599 14.1538H16.1651C14.3516 14.1538 12.7939 15.7124 12.7939 17.5249V36.63H23.5699V27.5716L24.0321 25.7995V17.5249C24.0321 15.7114 22.4735 14.1538 20.6599 14.1538Z" fill="#9268CA"/>
<path d="M16.4899 16.9069C13.9766 16.9069 11.9385 18.945 11.9385 21.4584C11.9385 23.9719 13.9765 26.0098 16.4899 26.0098V16.9069Z" fill="#7450A8"/>
<path d="M16.4897 17.9183C14.5346 17.9183 12.9497 19.5033 12.9497 21.4584C12.9497 23.4136 14.5346 24.9984 16.4897 24.9984V17.9183Z" fill="#9268CA"/>
<path d="M18.5128 16.9069C15.9995 16.9069 13.9614 18.945 13.9614 21.4584C13.9614 23.9719 15.9994 26.0098 18.5128 26.0098V16.9069Z" fill="#7450A8"/>
<path d="M18.5126 17.9183C16.5576 17.9183 14.9727 19.5033 14.9727 21.4584C14.9727 23.4136 16.5576 24.9984 18.5126 24.9984V17.9183Z" fill="#9268CA"/>
<path d="M10.2332 36.63H17.469V22.217C17.0108 22.1402 16.5425 22.0906 16.0621 22.0906C11.3994 22.0906 7.61963 25.8703 7.61963 30.5331C7.61963 32.9322 8.625 35.0927 10.2332 36.63Z" fill="#7450A8"/>
<path d="M17.2884 18.5971V23.1394C16.8879 23.0727 16.4802 23.0293 16.0615 23.0293C11.9166 23.0293 8.55762 26.3882 8.55762 30.5331C8.55762 33.0475 9.79969 35.2686 11.6982 36.63H22.5165V15.7267L17.2884 18.5971Z" fill="#9268CA"/>
<path d="M23.001 16.4012L27.9065 21.5737L23.5695 26.1363L23.5674 29.2171L19.5823 31.9217L16.9111 27.7354L22.6207 21.859L20.6595 19.9139L23.001 16.4012Z" fill="#7450A8"/>
<path d="M23.0018 15.1369L28.5282 20.8961C28.5282 20.8961 30.447 22.4415 28.5282 24.2672C27.3762 25.3626 20.1576 30.2246 20.1576 30.2246L17.9102 27.9771L24.0335 22.0197L20.6613 18.6486L23.0018 15.1369Z" fill="#9268CA"/>
<path d="M18.8474 28.0651C17.7105 27.524 16.6323 27.5989 15.5895 28.2088C15.0908 28.5011 14.8875 29.0472 15.6512 29.2282C16.4179 29.4073 18.8474 28.0651 18.8474 28.0651Z" fill="#EEC2AD"/>
<path d="M20.3786 30.0041C20.5192 31.7893 18.1272 33.4572 16.3126 33.2397C15.016 33.0839 13.8872 29.5904 15.4257 29.1403C16.7971 28.7398 17.1764 27.4937 18.8039 27.959C20.0964 28.3292 20.327 29.3183 20.3786 30.0041Z" fill="#F7DECE"/>
<path d="M19.1792 30.6949L18.9648 30.2489C18.9648 30.2489 18.185 31.409 17.1007 31.857C16.2784 32.1928 15.5856 32.2262 15.2225 32.1666C15.3782 32.4629 15.3813 32.5135 15.5856 32.7026C16.7154 32.7421 18.5208 32.1362 19.1792 30.6949ZM16.9368 30.6555C17.9382 29.9697 18.2305 29.3143 18.2305 29.3143L17.9038 28.9006C17.9038 28.9006 16.7457 30.6969 14.6904 30.6049C14.7056 30.8558 14.6854 30.9043 14.7593 31.1612C15.0354 31.1703 16.1237 31.2118 16.9368 30.6555Z" fill="#E0AA94"/>
<path d="M14.0347 5.08226C14.6173 6.48312 13.9619 8.08522 12.5722 8.66273C11.1815 9.24023 9.58236 8.57578 9.00085 7.17389C8.41923 5.77405 9.07361 4.17093 10.4653 3.59342C11.8561 3.01591 13.4551 3.6814 14.0347 5.08226Z" fill="#292F33"/>
<path d="M19.5069 12.1522C20.7236 10.7008 21.4499 8.84574 20.8258 7.34683L19.7941 4.86166C14.2171 6.96141 11.9222 4.07983 11.9222 4.07983C11.9222 4.07983 13.0145 6.70755 10.6699 8.04572L11.917 11.0477C12.9366 13.4994 14.3263 15.2553 16.775 14.2489L16.858 14.5786C17.0663 15.4049 16.9136 16.0735 18.1304 16.12C18.9809 16.1524 20.1299 14.6332 19.9216 13.8068L19.5069 12.1522Z" fill="#F7DECE"/>
<path d="M26.0072 5.69214C26.8407 3.46495 24.8351 1.77179 23.1277 1.59789C22.092 1.49264 21.1575 2.15309 20.7023 2.94407C18.6278 -0.529199 15.5247 0.289014 13.5504 0.983895C11.4587 1.72019 8.34755 3.88572 9.56835 6.21302C10.7891 8.54135 14.8663 7.53999 14.8663 7.53999L16.342 9.91898C15.9434 7.87175 17.3029 7.4146 17.931 7.86065C18.5924 8.33096 18.1535 9.83902 18.4548 10.4338C18.7563 11.0285 19.8001 11.8437 19.8001 11.8437C20.4413 11.0285 22.4652 8.22479 21.5196 4.82933C21.9109 4.68276 22.4986 4.78184 22.9729 5.02964C24.1786 5.65576 23.2289 8.77496 24.9058 9.76112C26.513 10.7069 27.4557 9.40612 27.4557 9.40612C25.809 9.4607 25.2112 7.82119 26.0072 5.69214Z" fill="#292F33"/>
<path d="M12.79 12.1349L12.4785 12.2644C12.342 12.3211 12.1851 12.2584 12.1275 12.1198C12.0719 11.9832 12.1356 11.8265 12.2722 11.7699L12.5846 11.6404C12.7223 11.5827 12.879 11.6485 12.9356 11.785C12.9923 11.9216 12.9266 12.0773 12.79 12.1349Z" fill="#BF6952"/>
<path d="M12.9427 10.0402C12.6697 10.1536 12.3561 10.0231 12.2428 9.75103L12.0355 9.25441C11.9222 8.98236 12.0527 8.66673 12.3258 8.55449C12.5999 8.44021 12.9145 8.57166 13.0267 8.84279L13.233 9.33838C13.3473 9.61249 13.2179 9.92689 12.9427 10.0402Z" fill="#662113"/>
<path d="M13.2139 13.3497C13.4597 13.6481 13.7287 13.8969 14.019 14.0911C15.0861 13.4752 15.1609 12.5405 15.1609 12.5405L13.2644 13.3285L13.2139 13.3497Z" fill="#DF1F32"/>
</svg>
