<svg width="32" height="32" viewBox="0 0 32 32" fill="none" xmlns="http://www.w3.org/2000/svg">
<g clip-path="url(#clip0_2388_1942)">
<path d="M21.3332 6.22223C18.6665 6.22223 18.6665 7.11112 15.9998 7.11112C13.3332 7.11112 13.3332 6.22223 10.6665 6.22223C7.11095 6.22223 2.6665 8.00001 2.6665 14.2222C2.6665 24 7.99984 32 11.5554 32C14.2221 32 14.2221 31.1111 15.9998 31.1111C17.7776 31.1111 17.7776 32 20.4443 32C23.9998 32 29.3332 24 29.3332 14.2222C29.3332 7.99912 24.8887 6.22223 21.3332 6.22223Z" fill="#DD2E44"/>
<path d="M16.8887 6.22221C16.8887 6.22221 19.5553 2.66666 23.9998 2.66666C27.5553 2.66666 29.3331 4.44443 29.3331 4.44443C29.3331 4.44443 25.7776 7.1111 23.1109 7.1111C20.4442 7.1111 16.8887 6.22221 16.8887 6.22221Z" fill="#77B255"/>
<path d="M16.0002 8.8889C15.5096 8.8889 15.1113 8.49067 15.1113 8.00001C15.1113 4.94134 16.178 2.12001 18.0384 0.260453C18.386 -0.0871025 18.9478 -0.0871025 19.2953 0.260453C19.6429 0.608009 19.6429 1.17068 19.2953 1.51734C17.7656 3.04623 16.8891 5.4089 16.8891 8.00001C16.8891 8.49067 16.4909 8.8889 16.0002 8.8889Z" fill="#662113"/>
</g>
<defs>
<clipPath id="clip0_2388_1942">
<rect width="32" height="32" fill="white"/>
</clipPath>
</defs>
</svg>
