<svg width="32" height="32" viewBox="0 0 32 32" fill="none" xmlns="http://www.w3.org/2000/svg">
<g clip-path="url(#clip0_2388_1966)">
<path d="M23.1109 3.55556C23.1109 6.22223 19.9269 8.8889 15.9998 8.8889C12.0727 8.8889 8.88867 6.22223 8.88867 3.55556C8.88867 -0.371548 14.222 7.69552e-06 15.9998 7.69552e-06C17.7776 7.69552e-06 23.1109 -0.371548 23.1109 3.55556Z" fill="#66757F"/>
<path d="M21.6055 10.6667H10.3948C9.52551 10.6667 8.78418 11.2951 8.64107 12.152L5.6784 29.9298C5.49795 31.0134 6.33351 32 7.43218 32H24.5682C25.6668 32 26.5024 31.0134 26.322 29.9298L23.3593 12.152C23.2162 11.2951 22.474 10.6667 21.6055 10.6667Z" fill="#CCD6DD"/>
<path d="M17.1947 12.4445H11.1485C10.7138 12.4445 10.3432 12.7582 10.2721 13.1876L7.60541 29.1876C7.51385 29.7289 7.93163 30.2222 8.48096 30.2222H17.7494L17.1947 12.4445ZM21.729 13.1876C21.6579 12.7582 21.2863 12.4445 20.8525 12.4445H18.7076L19.5156 30.2222H23.5201C24.0694 30.2222 24.4872 29.7289 24.3965 29.1876L21.729 13.1876Z" fill="#F5F8FA"/>
<path d="M12.2666 1.33332C12.2666 1.47477 12.379 1.61043 12.579 1.71044C12.7791 1.81046 13.0504 1.86665 13.3333 1.86665C13.6162 1.86665 13.8875 1.81046 14.0875 1.71044C14.2876 1.61043 14.3999 1.47477 14.3999 1.33332C14.3999 1.19187 14.2876 1.05622 14.0875 0.956198C13.8875 0.856178 13.6162 0.799988 13.3333 0.799988C13.0504 0.799988 12.7791 0.856178 12.579 0.956198C12.379 1.05622 12.2666 1.19187 12.2666 1.33332Z" fill="#CCD6DD"/>
<path d="M17.6001 1.33332C17.6001 1.47477 17.7125 1.61043 17.9125 1.71044C18.1126 1.81046 18.3839 1.86665 18.6668 1.86665C18.9497 1.86665 19.221 1.81046 19.421 1.71044C19.621 1.61043 19.7334 1.47477 19.7334 1.33332C19.7334 1.19187 19.621 1.05622 19.421 0.956198C19.221 0.856178 18.9497 0.799988 18.6668 0.799988C18.3839 0.799988 18.1126 0.856178 17.9125 0.956198C17.7125 1.05622 17.6001 1.19187 17.6001 1.33332Z" fill="#CCD6DD"/>
<path d="M14.9331 3.11109C14.9331 3.25254 15.0455 3.3882 15.2455 3.48822C15.4456 3.58824 15.7169 3.64443 15.9998 3.64443C16.2827 3.64443 16.554 3.58824 16.754 3.48822C16.9541 3.3882 17.0664 3.25254 17.0664 3.11109C17.0664 2.96964 16.9541 2.83399 16.754 2.73397C16.554 2.63395 16.2827 2.57776 15.9998 2.57776C15.7169 2.57776 15.4456 2.63395 15.2455 2.73397C15.0455 2.83399 14.9331 2.96964 14.9331 3.11109Z" fill="#CCD6DD"/>
<path d="M22.2223 10.6666H9.77783V8.46931C9.77783 7.71909 10.3858 7.34753 11.1361 7.34753H20.8641C21.6143 7.34753 22.2223 7.71909 22.2223 8.46931V10.6666Z" fill="#66757F"/>
<path d="M20.8641 7.11108H11.1361C10.5521 7.11108 10.0578 7.48175 9.86583 7.99997H22.1334C21.9423 7.48175 21.4489 7.11108 20.8641 7.11108ZM9.77783 8.88886H22.2223V9.77775H9.77783V8.88886ZM9.77783 10.6666H22.2223V11.1111H9.77783V10.6666Z" fill="#CCD6DD"/>
</g>
<defs>
<clipPath id="clip0_2388_1966">
<rect width="32" height="32" fill="white"/>
</clipPath>
</defs>
</svg>
