<svg width="25" height="25" viewBox="0 0 25 25" fill="none" xmlns="http://www.w3.org/2000/svg">
<path fill-rule="evenodd" clip-rule="evenodd" d="M11.0356 2.41562C11.4929 2.19702 11.9933 2.08356 12.5002 2.08356C13.007 2.08356 13.5075 2.19702 13.9648 2.41562C14.3679 2.60833 14.7356 2.92291 15.2471 3.35833L15.3283 3.42708C15.5762 3.63854 15.6544 3.70312 15.7335 3.75625C15.9346 3.89166 16.1606 3.98437 16.3971 4.03125C16.4908 4.05 16.5919 4.05937 16.9169 4.08437L17.0221 4.09271C17.6908 4.14583 18.1741 4.18437 18.595 4.33229C19.073 4.50169 19.5072 4.77571 19.8658 5.13434C20.2245 5.49297 20.4985 5.92715 20.6679 6.40521C20.8158 6.82604 20.8533 7.30937 20.9075 7.97812L20.9158 8.08333C20.9408 8.40833 20.9502 8.51041 20.9689 8.60312C21.0158 8.84062 21.1096 9.06666 21.2439 9.26771C21.2971 9.34583 21.3616 9.42395 21.5731 9.67187L21.6418 9.75312C22.0783 10.2635 22.3918 10.6323 22.5846 11.0344C23.0273 11.9615 23.0273 13.0385 22.5846 13.9646C22.3929 14.3677 22.0783 14.7354 21.6418 15.2469L21.5731 15.3281C21.4567 15.4576 21.3468 15.5928 21.2439 15.7333C21.1085 15.9344 21.0158 16.1604 20.9689 16.3969C20.9502 16.4906 20.9419 16.5917 20.9158 16.9167L20.9064 17.0219C20.8543 17.6906 20.8158 18.174 20.6669 18.5948C20.4982 19.0731 20.2246 19.5076 19.8661 19.8663C19.5075 20.225 19.0732 20.4988 18.595 20.6677C18.1741 20.8156 17.6908 20.8531 17.0221 20.9073L16.9169 20.9156C16.7428 20.9246 16.5693 20.9424 16.3971 20.9687C16.1602 21.0168 15.9349 21.1102 15.7335 21.2437C15.5927 21.3466 15.4571 21.4565 15.3273 21.5729L15.2471 21.6417C14.7366 22.0781 14.3679 22.3917 13.9658 22.5844C13.5084 22.8031 13.0078 22.9167 12.5007 22.9167C11.9937 22.9167 11.493 22.8031 11.0356 22.5844C10.6325 22.3927 10.2648 22.0781 9.75331 21.6417L9.67206 21.5729C9.54292 21.4565 9.40802 21.3467 9.26789 21.2437C9.06619 21.1101 8.84051 21.0167 8.60331 20.9687C8.43104 20.9424 8.25756 20.9246 8.08352 20.9156L7.97831 20.9062C7.30956 20.8542 6.82623 20.8156 6.40539 20.6667C5.92708 20.498 5.49262 20.2244 5.13391 19.8659C4.7752 19.5073 4.50135 19.073 4.33248 18.5948C4.18456 18.174 4.14602 17.6906 4.09289 17.0219L4.08456 16.9167C4.07556 16.7426 4.05783 16.5691 4.03143 16.3969C3.98338 16.16 3.89001 15.9347 3.75643 15.7333C3.65358 15.5925 3.54372 15.4569 3.42727 15.3271L3.35852 15.2469C2.9231 14.7365 2.60852 14.3677 2.41581 13.9656C2.19705 13.5082 2.0835 13.0076 2.0835 12.5005C2.0835 11.9935 2.19705 11.4928 2.41581 11.0354C2.60852 10.6323 2.9231 10.2646 3.35852 9.75312L3.42727 9.67187C3.54367 9.54273 3.65353 9.40784 3.75643 9.26771C3.89185 9.06666 3.98456 8.84062 4.03143 8.60312C4.05018 8.50937 4.05956 8.40833 4.08456 8.08333L4.09289 7.97812C4.14602 7.30937 4.18456 6.82604 4.33248 6.40521C4.50122 5.92679 4.77501 5.49226 5.13373 5.13354C5.49244 4.77482 5.92698 4.50103 6.40539 4.33229C6.82623 4.18437 7.30956 4.14583 7.97831 4.09271L8.08352 4.08437C8.25756 4.07537 8.43104 4.05764 8.60331 4.03125C8.84081 3.98437 9.06685 3.89062 9.26789 3.75625C9.34602 3.70312 9.42414 3.63854 9.67206 3.42708L9.75331 3.35833C10.2637 2.92291 10.6335 2.60833 11.0356 2.41562ZM13.2877 3.83021C13.0414 3.71285 12.772 3.65196 12.4991 3.65196C12.2263 3.65196 11.9569 3.71285 11.7106 3.83021C11.5179 3.92187 11.3148 4.0875 10.6887 4.61979L10.6575 4.64583C10.4523 4.82083 10.3033 4.94896 10.1398 5.05833C9.76581 5.30833 9.34706 5.48229 8.90539 5.56875C8.71268 5.60729 8.51685 5.62291 8.24706 5.64479L8.20748 5.64791C7.38768 5.71354 7.12831 5.74062 6.92623 5.81146C6.40539 5.99583 5.99498 6.40521 5.81164 6.92708C5.73873 7.12916 5.71268 7.38854 5.64706 8.20833L5.64393 8.24791C5.6231 8.51771 5.60643 8.71354 5.56893 8.90625C5.48143 9.34791 5.30852 9.76666 5.05852 10.1406C4.9481 10.3042 4.81998 10.4531 4.64498 10.6594L4.61893 10.6896C4.08664 11.3146 3.92102 11.5187 3.82935 11.7104C3.71184 11.9569 3.65086 12.2264 3.65086 12.4995C3.65086 12.7725 3.71184 13.0421 3.82935 13.2885C3.92102 13.4812 4.08664 13.6844 4.61893 14.3104L4.64498 14.3417C4.81998 14.5469 4.9481 14.6958 5.05748 14.8594C5.30748 15.2333 5.48143 15.6521 5.56789 16.0937C5.60643 16.2865 5.62206 16.4823 5.64393 16.7521L5.64706 16.7917C5.71268 17.6115 5.73977 17.8708 5.8106 18.0729C5.99498 18.5937 6.40435 19.0042 6.92623 19.1875C7.12831 19.2604 7.38768 19.2865 8.20748 19.3521L8.24706 19.3552C8.51685 19.376 8.71268 19.3927 8.90539 19.4302C9.34706 19.5177 9.76581 19.6906 10.1398 19.9406C10.3033 20.051 10.4523 20.1792 10.6585 20.3542L10.6887 20.3802C11.3137 20.9125 11.5179 21.0781 11.7096 21.1698C11.956 21.2873 12.2256 21.3483 12.4986 21.3483C12.7717 21.3483 13.0412 21.2873 13.2877 21.1698C13.4804 21.0781 13.6835 20.9125 14.3096 20.3802L14.3408 20.3542C14.546 20.1792 14.695 20.051 14.8585 19.9417C15.2325 19.6917 15.6512 19.5177 16.0929 19.4312C16.3108 19.3943 16.5306 19.3689 16.7512 19.3552L16.7908 19.3521C17.6106 19.2865 17.87 19.2594 18.0721 19.1885C18.5929 19.0042 19.0033 18.5948 19.1866 18.0729C19.2596 17.8708 19.2856 17.6104 19.3512 16.7917L19.3544 16.7521C19.3677 16.5311 19.3927 16.311 19.4294 16.0927C19.5169 15.6521 19.6898 15.2333 19.9398 14.8594C20.0502 14.6958 20.1783 14.5469 20.3533 14.3406L20.3794 14.3104C20.9116 13.6854 21.0773 13.4812 21.1689 13.2896C21.2864 13.0431 21.3474 12.7735 21.3474 12.5005C21.3474 12.2275 21.2864 11.9579 21.1689 11.7115C21.0773 11.5187 20.9116 11.3156 20.3794 10.6896L20.3533 10.6583C20.1783 10.4531 20.0502 10.3042 19.9408 10.1406C19.6916 9.7665 19.5182 9.34712 19.4304 8.90625C19.3934 8.6883 19.368 8.46855 19.3544 8.24791L19.3512 8.20833C19.2856 7.38854 19.2585 7.12916 19.1877 6.92708C19.0033 6.40625 18.5939 5.99583 18.0721 5.8125C17.87 5.73958 17.6096 5.71354 16.7908 5.64791L16.7512 5.64479C16.5303 5.63148 16.3102 5.60645 16.0919 5.56979C15.6513 5.48187 15.2323 5.30846 14.8585 5.05937C14.695 4.94896 14.546 4.82083 14.3398 4.64583L14.3096 4.61979C13.6846 4.0875 13.4804 3.92187 13.2887 3.83021" fill="black"/>
<path fill-rule="evenodd" clip-rule="evenodd" d="M16.1904 8.80937C16.2633 8.88221 16.3211 8.96869 16.3605 9.06386C16.3999 9.15904 16.4202 9.26104 16.4202 9.36406C16.4202 9.46708 16.3999 9.56909 16.3605 9.66426C16.3211 9.75944 16.2633 9.84591 16.1904 9.91875L9.91854 16.1896C9.77024 16.3301 9.57296 16.4072 9.36868 16.4045C9.16441 16.4018 8.96925 16.3194 8.82472 16.1751C8.6802 16.0307 8.59771 15.8356 8.59481 15.6313C8.5919 15.427 8.66881 15.2297 8.80917 15.0812L15.081 8.81042C15.1539 8.73757 15.2404 8.67978 15.3355 8.64035C15.4307 8.60092 15.5327 8.58063 15.6357 8.58063C15.7387 8.58063 15.8408 8.60092 15.9359 8.64035C16.0311 8.67978 16.1176 8.73757 16.1904 8.81042" fill="black"/>
<path d="M16.1585 15.1136C16.1629 15.2536 16.1392 15.3931 16.0886 15.5238C16.0381 15.6545 15.9618 15.7737 15.8643 15.8743C15.7668 15.975 15.65 16.055 15.521 16.1096C15.392 16.1643 15.2533 16.1924 15.1132 16.1924C14.9731 16.1924 14.8344 16.1643 14.7053 16.1096C14.5763 16.055 14.4596 15.975 14.3621 15.8743C14.2646 15.7737 14.1883 15.6545 14.1378 15.5238C14.0872 15.3931 14.0634 15.2536 14.0679 15.1136C14.0764 14.842 14.1903 14.5845 14.3854 14.3955C14.5805 14.2064 14.8415 14.1007 15.1132 14.1007C15.3848 14.1007 15.6458 14.2064 15.8409 14.3955C16.036 14.5845 16.1499 14.842 16.1585 15.1136ZM10.9325 9.88649C10.9369 10.0265 10.9131 10.166 10.8626 10.2967C10.812 10.4274 10.7357 10.5466 10.6382 10.6472C10.5407 10.7479 10.424 10.8279 10.295 10.8825C10.166 10.9372 10.0273 10.9653 9.88714 10.9653C9.74702 10.9653 9.60833 10.9372 9.47931 10.8825C9.35028 10.8279 9.23355 10.7479 9.13605 10.6472C9.03855 10.5466 8.96226 10.4274 8.91172 10.2967C8.86117 10.166 8.83741 10.0265 8.84183 9.88649C8.8504 9.61497 8.96429 9.35743 9.15939 9.1684C9.35449 8.97936 9.61548 8.87366 9.88714 8.87366C10.1588 8.87366 10.4198 8.97936 10.6149 9.1684C10.81 9.35743 10.9239 9.61497 10.9325 9.88649Z" fill="black"/>
</svg>
