<svg width="17" height="17" viewBox="0 0 17 17" fill="none" xmlns="http://www.w3.org/2000/svg">
<g clip-path="url(#clip0_2450_1039)">
<path d="M0 8.5C0 10.7543 0.895533 12.9163 2.48959 14.5104C4.08365 16.1045 6.24566 17 8.5 17C10.7543 17 12.9163 16.1045 14.5104 14.5104C16.1045 12.9163 17 10.7543 17 8.5C17 6.24566 16.1045 4.08365 14.5104 2.48959C12.9163 0.895533 10.7543 0 8.5 0C6.24566 0 4.08365 0.895533 2.48959 2.48959C0.895533 4.08365 0 6.24566 0 8.5Z" fill="#191919"/>
<path d="M0.472168 8.50001C0.472168 9.55423 0.679813 10.5981 1.08325 11.5721C1.48668 12.5461 2.078 13.4311 2.82345 14.1765C3.5689 14.922 4.45387 15.5133 5.42785 15.9167C6.40182 16.3201 7.44572 16.5278 8.49995 16.5278C9.55417 16.5278 10.5981 16.3201 11.572 15.9167C12.546 15.5133 13.431 14.922 14.1764 14.1765C14.9219 13.4311 15.5132 12.5461 15.9166 11.5721C16.3201 10.5981 16.5277 9.55423 16.5277 8.50001C16.5277 7.44578 16.3201 6.40188 15.9166 5.42791C15.5132 4.45393 14.9219 3.56896 14.1764 2.82351C13.431 2.07806 12.546 1.48674 11.572 1.08331C10.5981 0.679874 9.55417 0.472229 8.49995 0.472229C7.44572 0.472229 6.40182 0.679874 5.42785 1.08331C4.45387 1.48674 3.5689 2.07806 2.82345 2.82351C2.078 3.56896 1.48668 4.45393 1.08325 5.42791C0.679813 6.40188 0.472168 7.44578 0.472168 8.50001Z" fill="#313131"/>
<path d="M2.36084 8.50003C2.36084 9.3062 2.51963 10.1045 2.82813 10.8493C3.13664 11.5941 3.58883 12.2708 4.15888 12.8409C4.72893 13.4109 5.40567 13.8631 6.15048 14.1716C6.89528 14.4801 7.69356 14.6389 8.49973 14.6389C9.3059 14.6389 10.1042 14.4801 10.849 14.1716C11.5938 13.8631 12.2705 13.4109 12.8406 12.8409C13.4106 12.2708 13.8628 11.5941 14.1713 10.8493C14.4798 10.1045 14.6386 9.3062 14.6386 8.50003C14.6386 7.69386 14.4798 6.89559 14.1713 6.15078C13.8628 5.40598 13.4106 4.72923 12.8406 4.15918C12.2705 3.58914 11.5938 3.13695 10.849 2.82844C10.1042 2.51993 9.3059 2.36115 8.49973 2.36115C7.69356 2.36115 6.89528 2.51993 6.15048 2.82844C5.40567 3.13695 4.72893 3.58914 4.15888 4.15918C3.58883 4.72923 3.13664 5.40598 2.82813 6.15078C2.51963 6.89559 2.36084 7.69386 2.36084 8.50003Z" fill="#AEB3B2"/>
<path d="M3.30566 8.49999C3.30566 9.87764 3.85293 11.1989 4.82708 12.173C5.80123 13.1472 7.12246 13.6944 8.50011 13.6944C9.87776 13.6944 11.199 13.1472 12.1731 12.173C13.1473 11.1989 13.6946 9.87764 13.6946 8.49999C13.6946 7.12233 13.1473 5.80111 12.1731 4.82696C11.199 3.85281 9.87776 3.30554 8.50011 3.30554C7.12246 3.30554 5.80123 3.85281 4.82708 4.82696C3.85293 5.80111 3.30566 7.12233 3.30566 8.49999Z" fill="#313131"/>
<path d="M4.25 8.5C4.25 9.62717 4.69777 10.7082 5.4948 11.5052C6.29183 12.3022 7.37283 12.75 8.5 12.75C9.62717 12.75 10.7082 12.3022 11.5052 11.5052C12.3022 10.7082 12.75 9.62717 12.75 8.5C12.75 7.37283 12.3022 6.29183 11.5052 5.4948C10.7082 4.69777 9.62717 4.25 8.5 4.25C7.37283 4.25 6.29183 4.69777 5.4948 5.4948C4.69777 6.29183 4.25 7.37283 4.25 8.5Z" fill="#787878"/>
<path d="M5.6665 8.50002C5.6665 9.25147 5.96501 9.97214 6.49637 10.5035C7.02772 11.0348 7.74839 11.3334 8.49984 11.3334C9.25128 11.3334 9.97195 11.0348 10.5033 10.5035C11.0347 9.97214 11.3332 9.25147 11.3332 8.50002C11.3332 7.74857 11.0347 7.0279 10.5033 6.49655C9.97195 5.9652 9.25128 5.66669 8.49984 5.66669C7.74839 5.66669 7.02772 5.9652 6.49637 6.49655C5.96501 7.0279 5.6665 7.74857 5.6665 8.50002Z" fill="#313131"/>
<path d="M7.55566 8.49999C7.55566 8.75047 7.65517 8.99069 7.83229 9.16781C8.0094 9.34493 8.24963 9.44443 8.50011 9.44443C8.75059 9.44443 8.99081 9.34493 9.16793 9.16781C9.34505 8.99069 9.44455 8.75047 9.44455 8.49999C9.44455 8.2495 9.34505 8.00928 9.16793 7.83216C8.99081 7.65505 8.75059 7.55554 8.50011 7.55554C8.24963 7.55554 8.0094 7.65505 7.83229 7.83216C7.65517 8.00928 7.55566 8.2495 7.55566 8.49999Z" fill="#AEB3B2"/>
<path d="M8.02783 8.49999C8.02783 8.62523 8.07758 8.74535 8.16614 8.83391C8.2547 8.92246 8.37481 8.97222 8.50005 8.97222C8.6253 8.97222 8.74541 8.92246 8.83397 8.83391C8.92253 8.74535 8.97228 8.62523 8.97228 8.49999C8.97228 8.37475 8.92253 8.25464 8.83397 8.16608C8.74541 8.07752 8.6253 8.02777 8.50005 8.02777C8.37481 8.02777 8.2547 8.07752 8.16614 8.16608C8.07758 8.25464 8.02783 8.37475 8.02783 8.49999Z" fill="#E1E1E1"/>
<path d="M9.19426 10.2661C8.9421 9.81986 8.27721 9.71456 7.9306 10.1089C7.23596 11.0533 6.63151 12.0521 6.15598 13.1292C6.2339 13.1689 6.31276 13.2076 6.39304 13.2435C6.94035 12.75 7.43429 12.2131 7.89943 11.6493H9.10123C9.56685 12.2126 10.0603 12.7486 10.6072 13.2425C10.6874 13.2066 10.7663 13.1679 10.8447 13.1278C10.3965 12.112 9.82137 11.1813 9.19426 10.2661ZM13.6662 7.96025C13.6572 7.87289 13.6398 7.78742 13.6265 7.70147C12.4554 7.82095 11.3193 8.08728 10.2062 8.45609C9.72362 8.66386 9.61926 9.32875 9.96493 9.70606C10.6416 10.5858 11.35 11.4212 12.1792 12.1626C12.2415 12.0998 12.2987 12.0318 12.3577 11.9661C12.0573 11.2946 11.7003 10.6609 11.3089 10.0451L11.681 8.90234C12.3605 8.63364 13.0278 8.32859 13.6662 7.96025ZM3.88176 6.1337C4.84273 6.69234 5.85518 7.10742 6.90021 7.47906C7.35826 7.69439 7.97262 7.38036 8.01465 6.86375C8.02173 5.6917 7.92351 4.52814 7.67512 3.37781C7.58729 3.39197 7.49946 3.40378 7.41304 3.4222C7.30951 3.92573 7.234 4.43463 7.18685 4.94653C7.16418 5.15809 7.14623 5.37814 7.13207 5.60056L6.15976 6.30511C5.45332 6.12331 4.74026 5.98022 4.00926 5.90184C3.96487 5.97786 3.92237 6.05484 3.88176 6.1337ZM9.90637 7.53289C11.0237 7.17731 12.1003 6.72445 13.118 6.13228C13.077 6.05304 13.0338 5.97494 12.9886 5.89806C12.4738 5.95284 11.9709 6.04397 11.4742 6.15353C11.2659 6.19697 11.051 6.24797 10.8352 6.30322L9.86435 5.59631C9.81901 4.86672 9.73448 4.14281 9.58196 3.42125C9.49696 3.40331 9.4096 3.3915 9.32318 3.37781C9.08896 4.46392 9.00679 5.55475 8.97657 6.66353C8.91329 7.16503 9.40204 7.65236 9.90637 7.53289ZM4.82054 12.1626C5.64976 11.4212 6.35762 10.5858 7.03479 9.70606C7.38093 9.32828 7.27562 8.66386 6.79396 8.45609C5.6814 8.08728 4.54476 7.82095 3.37365 7.70195C3.36043 7.78836 3.34296 7.87336 3.33398 7.96072C3.97243 8.32906 4.63968 8.63411 5.31921 8.90234L5.69132 10.0451C5.29985 10.6609 4.94332 11.2946 4.64251 11.9661C4.70154 12.0318 4.75821 12.0998 4.82054 12.1626Z" fill="#AEB3B2"/>
<path d="M10.6108 9.05111C11.1543 8.87101 11.6937 8.67893 12.2287 8.475C12.7099 8.29283 13.1854 8.09566 13.6543 7.88378C13.6496 7.84223 13.6416 7.80209 13.6354 7.761C12.5106 7.9983 11.4006 8.30088 10.311 8.6672C9.9927 8.78903 9.89495 9.26267 10.116 9.51342C10.1396 9.54836 10.2104 9.63667 10.2345 9.67303C10.8611 10.5145 11.5151 11.3371 12.2197 12.1173C12.2495 12.0866 12.2768 12.054 12.3056 12.0228C11.7465 11.0533 11.1199 10.1259 10.4772 9.21309C10.4205 9.11061 10.5315 9.07661 10.6108 9.05111ZM4.6939 12.0233C4.7227 12.0544 4.75009 12.0875 4.77984 12.1177C5.48393 11.3376 6.13843 10.515 6.76506 9.6735C6.78962 9.63809 6.86045 9.54837 6.88359 9.51389C7.10554 9.26314 7.00637 8.7895 6.68904 8.66767C5.59936 8.30151 4.48935 7.99893 3.36459 7.76148C3.35893 7.80256 3.3509 7.8427 3.3457 7.88425C3.81651 8.09486 4.29062 8.29556 4.77181 8.47548C5.30681 8.67932 5.84622 8.87141 6.38965 9.05159C6.46898 9.07661 6.57948 9.11109 6.52281 9.21356C5.88012 10.1264 5.25301 11.0538 4.6939 12.0233ZM9.0799 10.5126C9.05393 10.4782 8.99065 10.3833 8.96468 10.3507C8.79468 10.0621 8.31348 10.0097 8.09956 10.2742C7.41477 11.1972 6.78409 12.1592 6.21068 13.1552C6.24798 13.1736 6.28529 13.192 6.32306 13.2095C6.66897 12.8296 7.00284 12.4389 7.32418 12.0379C7.68331 11.5919 8.03268 11.1382 8.37204 10.677C8.4202 10.6094 8.48726 10.5145 8.56706 10.6005C9.23762 11.4944 9.92612 12.3779 10.676 13.2095C10.7143 13.1916 10.7525 13.1731 10.7903 13.1543C10.2666 12.2443 9.68623 11.3683 9.0799 10.5126ZM3.90765 6.07895C4.86768 6.5082 5.8532 6.87653 6.8477 7.21228C7.08004 7.29964 7.3289 7.37661 7.56218 7.20898C7.79404 7.03945 7.79734 6.77831 7.78601 6.53039C7.77468 5.48111 7.72887 4.43089 7.61695 3.38586C7.5754 3.39295 7.53337 3.39673 7.49229 3.40523C7.37706 4.48803 7.33315 5.57556 7.3237 6.66261C7.32465 6.74573 7.32606 6.86189 7.21084 6.83923C6.1422 6.50961 5.06506 6.19984 3.96904 5.9675C3.94803 6.00435 3.92757 6.0415 3.90765 6.07895ZM9.21401 6.53086C9.21495 6.57384 9.21023 6.68811 9.21212 6.72967C9.18001 7.06306 9.53843 7.38795 9.86709 7.30011C10.9647 6.95565 12.0413 6.54759 13.0914 6.078C13.072 6.04134 13.052 6.00497 13.0315 5.96892C12.5275 6.07297 12.027 6.19298 11.5307 6.32875C10.9781 6.47839 10.4287 6.64008 9.88315 6.81373C9.80429 6.84017 9.69426 6.87748 9.68009 6.76084C9.66309 5.64214 9.62484 4.52061 9.50679 3.4057C9.46618 3.39767 9.42368 3.39389 9.38259 3.38681C9.27209 4.43184 9.22629 5.48159 9.21401 6.53086Z" fill="#E1E1E1"/>
</g>
<defs>
<clipPath id="clip0_2450_1039">
<rect width="17" height="17" fill="white"/>
</clipPath>
</defs>
</svg>
