<svg width="32" height="32" viewBox="0 0 32 32" fill="none" xmlns="http://www.w3.org/2000/svg">
<path d="M22.2263 19.8885H22.0013C22.1436 19.1788 22.2263 18.436 22.2263 17.6648C22.2263 12.9978 19.4387 9.21475 16 9.21475C12.5612 9.21475 9.77368 12.9978 9.77368 17.6648C9.77368 18.436 9.85635 19.1788 9.99866 19.8885H9.77368C7.99466 22.557 8.43768 27.0541 9.88213 27.8939C16 31.4517 12.442 26.1148 16 26.1148C19.5579 26.1148 16 31.4517 22.1179 27.8939C23.5623 27.0541 24.0053 22.557 22.2263 19.8885Z" fill="#C1694F"/>
<path d="M21.0405 18.517C20.883 17.1436 21.3225 15.3486 21.2673 13.8472C20.0336 14.8114 17.7316 15.4412 15.9998 15.4412C14.268 15.4412 11.9883 14.8114 10.7546 13.8472C10.6994 15.3486 11.1166 17.1436 10.9591 18.517C10.5517 22.0748 13.0521 24.9069 15.9998 24.9069C18.9476 24.9069 21.4479 22.0748 21.0405 18.517Z" fill="#C1694F"/>
<path d="M10.9948 12.7727C10.9948 12.7727 6.54731 13.6621 5.65789 18.999C4.76847 24.3359 8.69905 24.8527 10.1053 23.4464C11.8842 21.6675 10.1053 19.8885 10.1053 19.8885C10.1053 19.8885 10.9948 15.4411 10.9948 12.7727ZM21.0049 12.7727C21.0049 12.7727 25.4523 13.6621 26.3418 18.999C27.2313 24.3359 23.3006 24.8527 21.8944 23.4464C20.1155 21.6675 21.8944 19.8885 21.8944 19.8885C21.8944 19.8885 21.0049 15.4411 21.0049 12.7727Z" fill="#C1694F"/>
<path d="M11.5528 11.8832C9.77384 11.8832 10.6633 12.7727 10.6633 13.6622C10.6633 14.5517 11.5528 16.3306 13.3317 15.4412C13.3317 15.4412 12.4423 17.2201 12.4423 19.8885C12.4423 19.8885 14.2212 19.8885 15.1106 21.6675C15.1106 21.6675 16.0002 15.4412 16.0002 13.6622C16.0002 11.8833 12.4423 11.8832 11.5528 11.8832ZM20.4475 11.8832C22.2265 11.8832 21.337 12.7727 21.337 13.6622C21.337 14.5517 20.4475 16.3306 18.6686 15.4412C18.6686 15.4412 19.558 17.2201 19.558 19.8885C19.558 19.8885 17.7791 19.8885 16.8897 21.6675C16.8897 21.6675 16.0002 15.4412 16.0002 13.6622C16.0002 11.8833 19.558 11.8832 20.4475 11.8832Z" fill="#A0041E"/>
<path d="M6.21582 3.87796C6.21582 6.6168 9.18071 8.32862 11.5527 6.95911C12.6535 6.32356 13.3316 5.14907 13.3316 3.87796C13.3316 1.13902 10.3668 -0.5728 7.99475 0.796711C6.89395 1.43227 6.21582 2.60676 6.21582 3.87796Z" fill="#C1694F"/>
<path d="M7.99463 3.87795C7.99161 5.24737 9.47214 6.10657 10.6596 5.42453C11.2132 5.10648 11.554 4.51635 11.5526 3.87795C11.5556 2.50844 10.0751 1.64924 8.88761 2.33128C8.33401 2.64933 7.99321 3.23946 7.99463 3.87795Z" fill="#662113"/>
<path d="M18.6685 3.87796C18.6685 6.6168 21.6333 8.32862 24.0053 6.95911C25.1061 6.32356 25.7843 5.14907 25.7843 3.87796C25.7843 1.13902 22.8193 -0.5728 20.4474 0.796711C19.3466 1.43227 18.6685 2.60676 18.6685 3.87796Z" fill="#C1694F"/>
<path d="M20.4473 3.87795C20.4442 5.24737 21.9248 6.10657 23.1122 5.42453C23.6658 5.10648 24.0066 4.51635 24.0052 3.87795C24.0082 2.50844 22.5277 1.64924 21.3402 2.33128C20.7866 2.64933 20.4458 3.23946 20.4473 3.87795Z" fill="#662113"/>
<path d="M8.88428 7.88054C8.88428 13.016 14.8141 16.2256 19.5581 13.6579C21.7597 12.4662 23.1159 10.2639 23.1159 7.88054C23.1159 2.74516 17.1861 -0.46444 12.4421 2.1032C10.2405 3.29494 8.88428 5.49725 8.88428 7.88054Z" fill="#C1694F"/>
<path d="M12.4419 7.43583C12.4419 8.12055 13.1831 8.54854 13.7761 8.20614C14.0513 8.04721 14.2209 7.75361 14.2209 7.43583C14.2209 6.75112 13.4797 6.32312 12.8867 6.66552C12.6115 6.82446 12.4419 7.11806 12.4419 7.43583Z" fill="#292F33"/>
<path d="M17.7788 7.43583C17.7788 8.12055 18.5201 8.54854 19.113 8.20614C19.3882 8.04721 19.5578 7.75361 19.5578 7.43583C19.5578 6.75112 18.8166 6.32312 18.2236 6.66552C17.9484 6.82446 17.7788 7.11806 17.7788 7.43583Z" fill="#292F33"/>
<path d="M16.0513 8.82605C9.99579 8.82605 11.9491 13.7733 15.9206 13.7733C19.8913 13.7733 22.1069 8.82605 16.0513 8.82605Z" fill="#D99E82"/>
<path d="M14.8768 10.162L15.3446 10.9723C15.6363 11.4767 16.3649 11.4767 16.6557 10.9723L17.1235 10.162C17.4154 9.65777 17.0506 9.02621 16.4681 9.02621H15.5323C14.9497 9.02621 14.5858 9.65688 14.8768 10.162Z" fill="#292F33"/>
<path d="M10.0093 24.3377C9.8617 24.3377 9.7185 24.2648 9.63406 24.1323C9.50241 23.925 9.56286 23.6501 9.77015 23.5185C9.8057 23.4963 10.6836 22.9065 10.6569 21.72C10.6365 20.8385 9.82704 20.2604 9.81904 20.2559C9.71139 20.1803 9.64117 20.0593 9.62961 19.9285C9.44721 17.8294 10.2077 15.74 10.2406 15.651C10.3261 15.4216 10.5796 15.3033 10.8117 15.3877C11.0421 15.4732 11.1604 15.7284 11.0749 15.9588C11.0678 15.9775 10.3981 17.8259 10.5021 19.6635C10.8357 19.9499 11.5215 20.6633 11.5464 21.6995C11.5855 23.3984 10.3029 24.2354 10.2486 24.2701C10.1731 24.3155 10.0903 24.3377 10.0093 24.3377ZM21.9916 24.3377C21.9097 24.3377 21.8261 24.3155 21.7523 24.2684C21.6971 24.2336 20.4145 23.3975 20.4536 21.6977C20.4776 20.6615 21.1643 19.9481 21.4979 19.6617C21.6029 17.8187 20.9322 15.9766 20.9251 15.958C20.8397 15.7276 20.9571 15.4714 21.1884 15.386C21.4169 15.3015 21.674 15.4188 21.7594 15.6492C21.7923 15.7373 22.5537 17.8267 22.3714 19.9268C22.3597 20.0593 22.2895 20.1794 22.1801 20.255C22.173 20.2595 21.3636 20.8367 21.344 21.719C21.3165 22.9225 22.221 23.5123 22.2309 23.5176C22.4372 23.6492 22.4995 23.9241 22.3669 24.1313C22.2815 24.2647 22.1383 24.3377 21.9916 24.3377Z" fill="#934035"/>
<path d="M7.05159 30.2788C9.47239 32.6997 13.3439 31.8541 14.0205 28.7569C14.3344 27.3195 13.8356 25.7417 12.7121 24.6181C10.2913 22.1972 6.41977 23.0428 5.74323 26.14C5.42928 27.5775 5.92812 29.1553 7.05159 30.2788Z" fill="#C1694F"/>
<path d="M11.863 29.8747C10.9255 30.8122 9.27824 30.6859 8.1833 29.5918C7.08926 28.4978 6.96206 26.8505 7.90046 25.9121C8.83797 24.9746 10.4853 25.1009 11.5802 26.1949C12.6742 27.2899 12.8005 28.9372 11.863 29.8747Z" fill="#D99E82"/>
<path d="M11.4539 29.4664C10.7592 30.1612 9.49176 30.0205 8.62358 29.1516C7.75549 28.2835 7.61407 27.0159 8.30873 26.3213C9.0034 25.6266 10.2709 25.7671 11.139 26.6361C12.0072 27.5051 12.1486 28.7717 11.4539 29.4664Z" fill="#D99E82"/>
<path d="M18.9733 30.5939C21.1485 32.7763 25.1321 31.5231 26.1438 28.3382C26.6148 26.8556 26.2787 25.3167 25.2628 24.3043C23.0876 22.1219 19.1039 23.375 18.0922 26.56C17.6213 28.0425 17.9574 29.5814 18.9733 30.5939Z" fill="#C1694F"/>
<path d="M20.1369 29.8747C21.0744 30.8122 22.7217 30.6859 23.8166 29.5918C24.9107 28.4978 25.0379 26.8505 24.0995 25.9121C23.162 24.9746 21.5147 25.1009 20.4198 26.1949C19.3257 27.2899 19.1994 28.9372 20.1369 29.8747Z" fill="#D99E82"/>
<path d="M20.5455 29.4662C21.5127 30.4357 23.4286 29.7322 23.9939 28.2C24.2568 27.4876 24.141 26.7711 23.6903 26.3214C22.723 25.352 20.8072 26.0555 20.2418 27.5877C19.9789 28.3001 20.0947 29.0165 20.5455 29.4662Z" fill="#D99E82"/>
<path d="M16.0772 12.8955C14.9386 12.8955 14.0768 12.0531 14.0634 12.0406C13.9762 11.9535 13.9762 11.8139 14.0634 11.7267C14.1506 11.6395 14.2902 11.6395 14.3774 11.7258C14.4441 11.7916 16.022 13.3242 17.6213 11.7258C17.7085 11.6386 17.849 11.6386 17.9362 11.7258C18.0233 11.813 18.0234 11.9535 17.9362 12.0406C17.2949 12.6819 16.651 12.8955 16.0772 12.8955Z" fill="#292F33"/>
<path d="M14.1767 26.7615C14.0121 26.7615 13.8547 26.6699 13.7773 26.5124C11.7546 22.3898 7.73328 23.7106 7.56341 23.7675C7.33034 23.8484 7.0787 23.7239 6.99861 23.4909C6.91852 23.2587 7.04128 23.007 7.27345 22.926C7.32234 22.9083 12.2039 21.285 14.576 26.1211C14.6846 26.3408 14.5938 26.6076 14.3724 26.7162C14.3092 26.7464 14.2416 26.7615 14.1767 26.7615ZM17.8245 26.7615C17.7666 26.7615 17.7071 26.7499 17.651 26.7259C17.4242 26.6299 17.3192 26.3692 17.4153 26.1434C19.4211 21.4282 24.6566 22.9047 24.7072 22.9208C24.943 22.9892 25.0773 23.2356 25.0087 23.4714C24.9403 23.7088 24.6868 23.8395 24.4582 23.7747C24.2741 23.7204 19.9254 22.5116 18.2336 26.4911C18.1615 26.6592 17.997 26.7615 17.8245 26.7615Z" fill="#934035"/>
</svg>
