<svg width="32" height="32" viewBox="0 0 32 32" fill="none" xmlns="http://www.w3.org/2000/svg">
<g clip-path="url(#clip0_2388_1861)">
<path d="M16.0001 0C11.9006 0 8.45968 2.77867 7.43213 6.552L10.8588 7.48711C11.4757 5.22311 13.5406 3.55556 16.0001 3.55556C18.945 3.55556 21.3335 5.944 21.3335 8.88889V17.7778H24.889V8.88889C24.889 3.98044 20.9095 0 16.0001 0Z" fill="#AAB8C2"/>
<path d="M27.5554 28.4445C27.5554 30.408 25.9634 32 23.9999 32H7.99989C6.03634 32 4.44434 30.408 4.44434 28.4445V17.7778C4.44434 15.8142 6.03634 14.2222 7.99989 14.2222H23.9999C25.9634 14.2222 27.5554 15.8142 27.5554 17.7778V28.4445Z" fill="#FFAC33"/>
</g>
<defs>
<clipPath id="clip0_2388_1861">
<rect width="32" height="32" fill="white"/>
</clipPath>
</defs>
</svg>
